;TYPE=PLATED
;Layer: PTH_Through
;EasyEDA Pro Client v2.2.40.8, 2025-07-27 07:59:39
;Gerber Generator version 0.3
M48
METRIC,LZ,0000.00000
;Hole size 1 = 0.30500 METRIC
T01C0.30500
;Hole size 2 = 1.10002 METRIC
T02C1.10002
;Hole size 3 = 1.30002 METRIC
T03C1.30002
%
G05
G90
T01
X41.148Y-53.975
X50.673Y-52.70195
X41.148Y-50.546
X41.148Y-51.435
X41.148Y-52.197
X41.148Y-52.959
X41.148Y-54.864
X41.148Y-55.88
X41.148Y-56.769
X42.164Y-56.769
X43.18Y-56.769
X44.196Y-56.769
X45.339Y-56.769
X46.482Y-56.769
X47.498Y-56.769
X48.768Y-56.769
X50.038Y-56.769
X51.435Y-56.769
X52.324Y-56.769
X53.467Y-56.769
X53.467Y-55.753
X53.467Y-54.61
X53.467Y-53.594
X53.467Y-52.578
X53.467Y-51.562
X52.832Y-50.927
X51.943Y-50.292
X50.8Y-49.784
X49.911Y-49.657
X49.022Y-49.657
X42.75007Y-42.164
X42.037Y-47.24993
X33.909Y-45.974
X18.542Y-80.518
X18.04505Y-56.642
X44.704Y-38.1
X45.593Y-38.608
X62.865Y-50.11598
X72.898Y-46.79803
X66.59547Y-34.544
X17.78658Y-37.846
X58.547Y-12.192
X61.341Y-42.926
X37.211Y-80.391
X23.749Y-86.106
X24.765Y-84.709
X25.908Y-83.058
X27.92551Y-83.058
X27.051Y-84.963
X26.035Y-86.741
X24.765Y-88.519
X22.479Y-87.503
X71.628Y-77.597
X69.74546Y-77.597
X67.818Y-77.597
X67.818Y-79.65305
X69.82574Y-79.65305
X71.64536Y-79.65305
X67.818Y-81.534
X69.8525Y-81.534
X71.67212Y-81.534
X45.75006Y-47.498
X50.927Y-43.942
X58.73751Y-5.207
X55.88Y-16.20994
X54.61Y-16.14492
X70.36514Y-10.795
X71.91717Y-10.795
X73.71895Y-10.795
X73.71895Y-12.25819
X73.71895Y-14.00645
X72.32748Y-14.00645
X75.819Y-13.97
X75.692Y-12.31596
X72.136Y-12.319
X16.256Y-14.351
X73.66Y-52.705
X54.16462Y-46.30598
X67.818Y-50.165
X67.691Y-45.339
X75.946Y-26.63104
X79.883Y-25.654
X84.709Y-19.05
X84.709Y-10.033
X84.709Y-12.065
X84.709Y-14.351
X84.709Y-16.637
X28.448Y-60.071
X28.448Y-62.071
X30.448Y-60.071
X32.448Y-60.071
X30.448Y-62.071
X32.448Y-62.071
X34.671Y-60.071
X34.671Y-62.071
X36.671Y-60.071
X38.671Y-60.071
X36.671Y-62.071
X38.671Y-62.071
X28.448Y-63.627
X28.448Y-65.627
X30.448Y-63.627
X32.448Y-63.627
X30.448Y-65.627
X32.448Y-65.627
X34.671Y-63.627
X34.671Y-65.627
X36.671Y-63.627
X38.671Y-63.627
X36.671Y-65.627
X38.671Y-65.627
X52.197Y-22.225
X52.197Y-24.225
X54.197Y-22.225
X56.197Y-22.225
X54.197Y-24.225
X56.197Y-24.225
X68.453Y-20.574
X68.453Y-22.574
X70.453Y-20.574
X72.453Y-20.574
X70.453Y-22.574
X72.453Y-22.574
X60.325Y-25.146
X60.325Y-27.146
X62.325Y-25.146
X64.325Y-25.146
X62.325Y-27.146
X64.325Y-27.146
X45.56301Y-88.614
X43.56301Y-88.614
X45.56301Y-86.614
X43.56301Y-86.614
X41.56301Y-88.614
X41.56301Y-86.614
X63.59701Y-72.358
X61.59701Y-72.358
X63.59701Y-70.358
X61.59701Y-70.358
X59.59701Y-72.358
X59.59701Y-70.358
X84.17101Y-70.961
X82.17101Y-70.961
X84.17101Y-68.961
X82.17101Y-68.961
X80.17101Y-70.961
X80.17101Y-68.961
T02
X40.767Y-2.81995
X38.227Y-2.81995
X35.687Y-2.81995
X33.147Y-2.81995
X51.23753Y-3.39148
X53.73752Y-3.39148
X56.23752Y-3.39148
X58.73751Y-3.39148
X86.46105Y-24.69807
X86.46105Y-27.19807
X86.46105Y-29.69806
X86.46105Y-32.19806
T03
X6.4711Y-80.35025
X6.4711Y-75.27025
X6.4711Y-70.19025
X6.68952Y-58.25225
X6.68952Y-53.17225
X6.68952Y-48.09225
X6.43999Y-37.80525
X6.43999Y-32.72525
X6.43999Y-27.64525
X6.61832Y-16.72325
X6.61832Y-11.64325
X6.61832Y-6.56325
X83.81206Y-52.07434
X83.81206Y-46.99434
M30