G04 Layer: TopPasteMaskLayer*
G04 EasyEDA Pro v2.2.40.8, 2025-07-27 07:59:39*
G04 Gerber Generator version 0.3*
G04 Scale: 100 percent, Rotated: No, Reflected: No*
G04 Dimensions in millimeters*
G04 Leading zeros omitted, absolute positions, 4 integers and 5 decimals*
G04 Generated by one-click*
%FSLAX45Y45*%
%MOMM*%
%AMPolygonMacro1*4,1,8,-3.683,2.54,-5.461,2.54,-5.461,4.064,5.461,4.064,5.461,2.54,4.31749,2.54,4.31749,-4.064,-3.683,-4.064,-3.683,2.54,0*%
%ADD10R,0.8X0.9*%
%ADD11R,0.9X0.8*%
%ADD12R,2.04638X1.62001*%
%ADD13R,5.39999X2.79999*%
%ADD14R,0.8001X0.8001*%
%ADD15R,1.15001X3.19999*%
%ADD16C,0.7018*%
%ADD17PolygonMacro1*%
%ADD18R,1.1X2.49999*%
%ADD19R,3.59999X2.34*%
%ADD20O,0.27X1.5*%
%ADD21O,1.5X0.27*%
%ADD22R,1.2X1.4*%
%ADD23O,1.95021X0.5684*%
%ADD24R,4.19999X1.4*%
%ADD25R,1.2X3.79999*%
%ADD26R,2.1X2.0*%
%ADD27R,2.49999X1.9*%
%ADD28R,2.0X2.0*%
G75*


G04 PolygonModel Start*
G36*
G01X3675502Y-4552401D02*
G01X3595502Y-4552401D01*
G01X3590501Y-4557403D01*
G01X3590501Y-4580199D01*
G01X3627501Y-4580199D01*
G01X3627501Y-4613199D01*
G01X3590501Y-4613199D01*
G01X3590501Y-4637402D01*
G01X3595502Y-4642401D01*
G01X3675502Y-4642401D01*
G01X3680501Y-4637402D01*
G01X3680501Y-4557403D01*
G01X3675502Y-4552401D01*
G37*
G36*
G01X3436498Y-4642399D02*
G01X3516498Y-4642399D01*
G01X3521499Y-4637397D01*
G01X3521499Y-4614601D01*
G01X3484499Y-4614601D01*
G01X3484499Y-4581601D01*
G01X3521499Y-4581601D01*
G01X3521499Y-4557398D01*
G01X3516498Y-4552399D01*
G01X3436498Y-4552399D01*
G01X3431499Y-4557398D01*
G01X3431499Y-4637397D01*
G01X3436498Y-4642399D01*
G37*
G36*
G01X6614549Y-3137904D02*
G01X6614549Y-3217904D01*
G01X6619550Y-3222905D01*
G01X6642346Y-3222905D01*
G01X6642346Y-3185905D01*
G01X6675346Y-3185905D01*
G01X6675346Y-3222905D01*
G01X6699550Y-3222905D01*
G01X6704548Y-3217904D01*
G01X6704548Y-3137904D01*
G01X6699550Y-3132905D01*
G01X6619550Y-3132905D01*
G01X6614549Y-3137904D01*
G37*
G36*
G01X6704546Y-3376908D02*
G01X6704546Y-3296908D01*
G01X6699545Y-3291907D01*
G01X6676748Y-3291907D01*
G01X6676748Y-3328907D01*
G01X6643748Y-3328907D01*
G01X6643748Y-3291907D01*
G01X6619545Y-3291907D01*
G01X6614546Y-3296908D01*
G01X6614546Y-3376908D01*
G01X6619545Y-3381906D01*
G01X6699545Y-3381906D01*
G01X6704546Y-3376908D01*
G37*
G36*
G01X1595028Y-7821087D02*
G01X1515028Y-7821087D01*
G01X1510026Y-7826088D01*
G01X1510026Y-7848884D01*
G01X1547027Y-7848884D01*
G01X1547027Y-7881884D01*
G01X1510026Y-7881884D01*
G01X1510026Y-7906088D01*
G01X1515028Y-7911087D01*
G01X1595028Y-7911087D01*
G01X1600026Y-7906088D01*
G01X1600026Y-7826088D01*
G01X1595028Y-7821087D01*
G37*
G36*
G01X1356024Y-7911084D02*
G01X1436024Y-7911084D01*
G01X1441025Y-7906083D01*
G01X1441025Y-7883286D01*
G01X1404025Y-7883286D01*
G01X1404025Y-7850287D01*
G01X1441025Y-7850287D01*
G01X1441025Y-7826083D01*
G01X1436024Y-7821084D01*
G01X1356024Y-7821084D01*
G01X1351025Y-7826083D01*
G01X1351025Y-7906083D01*
G01X1356024Y-7911084D01*
G37*
G36*
G01X1896745Y-7930002D02*
G01X1896745Y-7850002D01*
G01X1891744Y-7845001D01*
G01X1868947Y-7845001D01*
G01X1868947Y-7882001D01*
G01X1835948Y-7882001D01*
G01X1835948Y-7845001D01*
G01X1811744Y-7845001D01*
G01X1806745Y-7850002D01*
G01X1806745Y-7930002D01*
G01X1811744Y-7935001D01*
G01X1891744Y-7935001D01*
G01X1896745Y-7930002D01*
G37*
G36*
G01X1806748Y-7690998D02*
G01X1806748Y-7770998D01*
G01X1811749Y-7775999D01*
G01X1834546Y-7775999D01*
G01X1834546Y-7738999D01*
G01X1867545Y-7738999D01*
G01X1867545Y-7775999D01*
G01X1891749Y-7775999D01*
G01X1896748Y-7770998D01*
G01X1896748Y-7690998D01*
G01X1891749Y-7685999D01*
G01X1811749Y-7685999D01*
G01X1806748Y-7690998D01*
G37*
G36*
G01X1482316Y-5303830D02*
G01X1482316Y-5383830D01*
G01X1487317Y-5388831D01*
G01X1510113Y-5388831D01*
G01X1510113Y-5351831D01*
G01X1543113Y-5351831D01*
G01X1543113Y-5388831D01*
G01X1567317Y-5388831D01*
G01X1572315Y-5383830D01*
G01X1572315Y-5303830D01*
G01X1567317Y-5298831D01*
G01X1487317Y-5298831D01*
G01X1482316Y-5303830D01*
G37*
G36*
G01X1572313Y-5542834D02*
G01X1572313Y-5462834D01*
G01X1567312Y-5457833D01*
G01X1544515Y-5457833D01*
G01X1544515Y-5494833D01*
G01X1511516Y-5494833D01*
G01X1511516Y-5457833D01*
G01X1487312Y-5457833D01*
G01X1482313Y-5462834D01*
G01X1482313Y-5542834D01*
G01X1487312Y-5547832D01*
G01X1567312Y-5547832D01*
G01X1572313Y-5542834D01*
G37*
G36*
G01X1849503Y-5555102D02*
G01X1849503Y-5475102D01*
G01X1844502Y-5470101D01*
G01X1821706Y-5470101D01*
G01X1821706Y-5507101D01*
G01X1788706Y-5507101D01*
G01X1788706Y-5470101D01*
G01X1764502Y-5470101D01*
G01X1759504Y-5475102D01*
G01X1759504Y-5555102D01*
G01X1764502Y-5560101D01*
G01X1844502Y-5560101D01*
G01X1849503Y-5555102D01*
G37*
G36*
G01X1759506Y-5316098D02*
G01X1759506Y-5396098D01*
G01X1764507Y-5401099D01*
G01X1787304Y-5401099D01*
G01X1787304Y-5364099D01*
G01X1820304Y-5364099D01*
G01X1820304Y-5401099D01*
G01X1844507Y-5401099D01*
G01X1849506Y-5396098D01*
G01X1849506Y-5316098D01*
G01X1844507Y-5311099D01*
G01X1764507Y-5311099D01*
G01X1759506Y-5316098D01*
G37*
G36*
G01X1517759Y-3474598D02*
G01X1517759Y-3554598D01*
G01X1522761Y-3559599D01*
G01X1545557Y-3559599D01*
G01X1545557Y-3522599D01*
G01X1578557Y-3522599D01*
G01X1578557Y-3559599D01*
G01X1602760Y-3559599D01*
G01X1607759Y-3554598D01*
G01X1607759Y-3474598D01*
G01X1602760Y-3469599D01*
G01X1522761Y-3469599D01*
G01X1517759Y-3474598D01*
G37*
G36*
G01X1607757Y-3713602D02*
G01X1607757Y-3633602D01*
G01X1602755Y-3628601D01*
G01X1579959Y-3628601D01*
G01X1579959Y-3665601D01*
G01X1546959Y-3665601D01*
G01X1546959Y-3628601D01*
G01X1522756Y-3628601D01*
G01X1517757Y-3633602D01*
G01X1517757Y-3713602D01*
G01X1522756Y-3718601D01*
G01X1602755Y-3718601D01*
G01X1607757Y-3713602D01*
G37*
G36*
G01X1823657Y-3713602D02*
G01X1823657Y-3633602D01*
G01X1818655Y-3628601D01*
G01X1795859Y-3628601D01*
G01X1795859Y-3665601D01*
G01X1762859Y-3665601D01*
G01X1762859Y-3628601D01*
G01X1738656Y-3628601D01*
G01X1733657Y-3633602D01*
G01X1733657Y-3713602D01*
G01X1738656Y-3718601D01*
G01X1818655Y-3718601D01*
G01X1823657Y-3713602D01*
G37*
G36*
G01X1733659Y-3474598D02*
G01X1733659Y-3554598D01*
G01X1738661Y-3559599D01*
G01X1761457Y-3559599D01*
G01X1761457Y-3522599D01*
G01X1794457Y-3522599D01*
G01X1794457Y-3559599D01*
G01X1818660Y-3559599D01*
G01X1823659Y-3554598D01*
G01X1823659Y-3474598D01*
G01X1818660Y-3469599D01*
G01X1738661Y-3469599D01*
G01X1733659Y-3474598D01*
G37*
G36*
G01X1376842Y-1101496D02*
G01X1376842Y-1181496D01*
G01X1381843Y-1186497D01*
G01X1404640Y-1186497D01*
G01X1404640Y-1149497D01*
G01X1437639Y-1149497D01*
G01X1437639Y-1186497D01*
G01X1461843Y-1186497D01*
G01X1466842Y-1181496D01*
G01X1466842Y-1101496D01*
G01X1461843Y-1096498D01*
G01X1381843Y-1096498D01*
G01X1376842Y-1101496D01*
G37*
G36*
G01X1466839Y-1340500D02*
G01X1466839Y-1260500D01*
G01X1461838Y-1255499D01*
G01X1439042Y-1255499D01*
G01X1439042Y-1292499D01*
G01X1406042Y-1292499D01*
G01X1406042Y-1255499D01*
G01X1381838Y-1255499D01*
G01X1376840Y-1260500D01*
G01X1376840Y-1340500D01*
G01X1381838Y-1345499D01*
G01X1461838Y-1345499D01*
G01X1466839Y-1340500D01*
G37*
G36*
G01X1678824Y-1336904D02*
G01X1678824Y-1256904D01*
G01X1673823Y-1251902D01*
G01X1651026Y-1251902D01*
G01X1651026Y-1288903D01*
G01X1618026Y-1288903D01*
G01X1618026Y-1251902D01*
G01X1593823Y-1251902D01*
G01X1588824Y-1256904D01*
G01X1588824Y-1336904D01*
G01X1593823Y-1341902D01*
G01X1673823Y-1341902D01*
G01X1678824Y-1336904D01*
G37*
G36*
G01X1588827Y-1097900D02*
G01X1588827Y-1177900D01*
G01X1593828Y-1182901D01*
G01X1616624Y-1182901D01*
G01X1616624Y-1145901D01*
G01X1649624Y-1145901D01*
G01X1649624Y-1182901D01*
G01X1673828Y-1182901D01*
G01X1678826Y-1177900D01*
G01X1678826Y-1097900D01*
G01X1673828Y-1092901D01*
G01X1593828Y-1092901D01*
G01X1588827Y-1097900D01*
G37*
G36*
G01X6964802Y-4628601D02*
G01X6884802Y-4628601D01*
G01X6879801Y-4633603D01*
G01X6879801Y-4656399D01*
G01X6916801Y-4656399D01*
G01X6916801Y-4689399D01*
G01X6879801Y-4689399D01*
G01X6879801Y-4713602D01*
G01X6884802Y-4718601D01*
G01X6964802Y-4718601D01*
G01X6969801Y-4713602D01*
G01X6969801Y-4633603D01*
G01X6964802Y-4628601D01*
G37*
G36*
G01X6725798Y-4718599D02*
G01X6805798Y-4718599D01*
G01X6810799Y-4713597D01*
G01X6810799Y-4690801D01*
G01X6773799Y-4690801D01*
G01X6773799Y-4657801D01*
G01X6810799Y-4657801D01*
G01X6810799Y-4633598D01*
G01X6805798Y-4628599D01*
G01X6725798Y-4628599D01*
G01X6720799Y-4633598D01*
G01X6720799Y-4713597D01*
G01X6725798Y-4718599D01*
G37*
G36*
G01X6495501Y-4655698D02*
G01X6495501Y-4735698D01*
G01X6500503Y-4740699D01*
G01X6523299Y-4740699D01*
G01X6523299Y-4703699D01*
G01X6556299Y-4703699D01*
G01X6556299Y-4740699D01*
G01X6580502Y-4740699D01*
G01X6585501Y-4735698D01*
G01X6585501Y-4655698D01*
G01X6580502Y-4650699D01*
G01X6500503Y-4650699D01*
G01X6495501Y-4655698D01*
G37*
G36*
G01X6585499Y-4894702D02*
G01X6585499Y-4814702D01*
G01X6580497Y-4809701D01*
G01X6557701Y-4809701D01*
G01X6557701Y-4846701D01*
G01X6524701Y-4846701D01*
G01X6524701Y-4809701D01*
G01X6500498Y-4809701D01*
G01X6495499Y-4814702D01*
G01X6495499Y-4894702D01*
G01X6500498Y-4899701D01*
G01X6580497Y-4899701D01*
G01X6585499Y-4894702D01*
G37*
G36*
G01X6725798Y-4921799D02*
G01X6805798Y-4921799D01*
G01X6810799Y-4916797D01*
G01X6810799Y-4894001D01*
G01X6773799Y-4894001D01*
G01X6773799Y-4861001D01*
G01X6810799Y-4861001D01*
G01X6810799Y-4836798D01*
G01X6805798Y-4831799D01*
G01X6725798Y-4831799D01*
G01X6720799Y-4836798D01*
G01X6720799Y-4916797D01*
G01X6725798Y-4921799D01*
G37*
G36*
G01X6964802Y-4831801D02*
G01X6884802Y-4831801D01*
G01X6879801Y-4836803D01*
G01X6879801Y-4859599D01*
G01X6916801Y-4859599D01*
G01X6916801Y-4892599D01*
G01X6879801Y-4892599D01*
G01X6879801Y-4916802D01*
G01X6884802Y-4921801D01*
G01X6964802Y-4921801D01*
G01X6969801Y-4916802D01*
G01X6969801Y-4836803D01*
G01X6964802Y-4831801D01*
G37*

G04 Pad Start*
G54D10*
G01X6521597Y-7810504D03*
G01X6381593Y-7810504D03*
G54D11*
G01X6477004Y-6584803D03*
G01X6477004Y-6724807D03*
G01X5321172Y-1614492D03*
G01X5321172Y-1474487D03*
G01X5746774Y-1620994D03*
G01X5746774Y-1480990D03*
G01X6718172Y-1830087D03*
G01X6718172Y-1690082D03*
G01X7048621Y-1835336D03*
G01X7048621Y-1695331D03*
G54D10*
G01X8210398Y-1435100D03*
G01X8350402Y-1435100D03*
G01X8223098Y-1905000D03*
G01X8363102Y-1905000D03*
G01X8200804Y-996946D03*
G01X8340809Y-996946D03*
G54D11*
G01X4248152Y-5225903D03*
G01X4248152Y-5365907D03*
G01X4895848Y-5410200D03*
G01X4895848Y-5270195D03*
G54D10*
G01X3879698Y-586795D03*
G01X4019702Y-586795D03*
G01X8210398Y-1206500D03*
G01X8350402Y-1206500D03*
G01X8210398Y-1663700D03*
G01X8350402Y-1663700D03*
G54D12*
G01X3481591Y-8700210D03*
G01X3020809Y-8702090D03*
G54D13*
G01X5092700Y-7474991D03*
G01X5092700Y-6495009D03*
G54D14*
G01X6673263Y-2923396D03*
G01X6672755Y-2763376D03*
G54D15*
G01X3528060Y-8040774D03*
G01X3357880Y-8040774D03*
G01X3017520Y-8040774D03*
G01X3187700Y-8040774D03*
G01X2847340Y-8040774D03*
G54D17*
G01X3187700Y-7039226D03*
G54D18*
G01X6490969Y-1513890D03*
G01X6260972Y-1513890D03*
G01X6030975Y-1513890D03*
G54D19*
G01X6260972Y-2107882D03*
G54D20*
G01X4224994Y-4924993D03*
G01X4275007Y-4924993D03*
G01X4324994Y-4924993D03*
G01X4375006Y-4924993D03*
G01X4424994Y-4924993D03*
G01X4475006Y-4924993D03*
G01X4524993Y-4924993D03*
G01X4575006Y-4924993D03*
G01X4624993Y-4924993D03*
G01X4675006Y-4924993D03*
G01X4724993Y-4924993D03*
G01X4775006Y-4924993D03*
G54D21*
G01X4924993Y-4775006D03*
G01X4924993Y-4724993D03*
G01X4924993Y-4675006D03*
G01X4924993Y-4624993D03*
G01X4924993Y-4575006D03*
G01X4924993Y-4524993D03*
G01X4924993Y-4475006D03*
G01X4924993Y-4424994D03*
G01X4924993Y-4375006D03*
G01X4924993Y-4324994D03*
G01X4924993Y-4275007D03*
G01X4924993Y-4224994D03*
G54D20*
G01X4775006Y-4075007D03*
G01X4724993Y-4075007D03*
G01X4675006Y-4075007D03*
G01X4624993Y-4075007D03*
G01X4575006Y-4075007D03*
G01X4524993Y-4075007D03*
G01X4475006Y-4075007D03*
G01X4424994Y-4075007D03*
G01X4375006Y-4075007D03*
G01X4324994Y-4075007D03*
G01X4275007Y-4075007D03*
G01X4224994Y-4075007D03*
G54D21*
G01X4075007Y-4224994D03*
G01X4075007Y-4275007D03*
G01X4075007Y-4324994D03*
G01X4075007Y-4375006D03*
G01X4075007Y-4424994D03*
G01X4075007Y-4475006D03*
G01X4075007Y-4524993D03*
G01X4075007Y-4575006D03*
G01X4075007Y-4624993D03*
G01X4075007Y-4675006D03*
G01X4075007Y-4724993D03*
G01X4075007Y-4775006D03*
G54D22*
G01X4651932Y-5419877D03*
G01X4651932Y-5199863D03*
G01X4481930Y-5199863D03*
G01X4481930Y-5419877D03*
G54D10*
G01X5060798Y-850900D03*
G01X5200802Y-850900D03*
G54D11*
G01X8150805Y-2406498D03*
G01X8150805Y-2546502D03*
G01X7162804Y-4679803D03*
G01X7162804Y-4819807D03*
G54D23*
G01X5590483Y-4630598D03*
G01X5590483Y-4757598D03*
G01X5590483Y-4884598D03*
G01X5590483Y-5011598D03*
G01X6131503Y-4630598D03*
G01X6131503Y-4757598D03*
G01X6131503Y-4884598D03*
G01X6131503Y-5011598D03*
G54D24*
G01X6524320Y-8369300D03*
G01X5870880Y-8369300D03*
G54D25*
G01X7162825Y-6324295D03*
G01X7162825Y-6858305D03*
G54D26*
G01X8748799Y-7767347D03*
G54D27*
G01X7628801Y-7767347D03*
G54D28*
G01X7653820Y-8377328D03*
G54D26*
G01X8748799Y-8367345D03*
G04 Pad End*

M02*

