G04 Layer: TopSilkscreenLayer*
G04 EasyEDA Pro v2.2.40.8, 2025-07-27 07:59:39*
G04 Gerber Generator version 0.3*
G04 Scale: 100 percent, Rotated: No, Reflected: No*
G04 Dimensions in millimeters*
G04 Leading zeros omitted, absolute positions, 4 integers and 5 decimals*
G04 Generated by one-click*
%FSLAX45Y45*%
%MOMM*%
%ADD10C,0.1524*%
%ADD11C,0.254*%
%ADD12C,0.15199*%
%ADD13C,0.127*%
%ADD14C,0.14986*%
%ADD15C,0.2004*%
%ADD16C,0.2*%
%ADD17C,0.4*%
%ADD18C,0.3*%
G75*


G04 Text Start*
G54D10*
G01X6354006Y-7635353D02*
G01X6350958Y-7629003D01*
G01X6344608Y-7622907D01*
G01X6338512Y-7619859D01*
G01X6326066Y-7619859D01*
G01X6319970Y-7622907D01*
G01X6313620Y-7629003D01*
G01X6310572Y-7635353D01*
G01X6307524Y-7644497D01*
G01X6307524Y-7659991D01*
G01X6310572Y-7669389D01*
G01X6313620Y-7675485D01*
G01X6319970Y-7681835D01*
G01X6326066Y-7684883D01*
G01X6338512Y-7684883D01*
G01X6344608Y-7681835D01*
G01X6350958Y-7675485D01*
G01X6354006Y-7669389D01*
G01X6387280Y-7635353D02*
G01X6387280Y-7632305D01*
G01X6390328Y-7625955D01*
G01X6393376Y-7622907D01*
G01X6399472Y-7619859D01*
G01X6411918Y-7619859D01*
G01X6418268Y-7622907D01*
G01X6421316Y-7625955D01*
G01X6424364Y-7632305D01*
G01X6424364Y-7638401D01*
G01X6421316Y-7644497D01*
G01X6414966Y-7653895D01*
G01X6384232Y-7684883D01*
G01X6427412Y-7684883D01*
G01X6301853Y-6752394D02*
G01X6295503Y-6755442D01*
G01X6289407Y-6761792D01*
G01X6286359Y-6767888D01*
G01X6286359Y-6780334D01*
G01X6289407Y-6786430D01*
G01X6295503Y-6792780D01*
G01X6301853Y-6795828D01*
G01X6310997Y-6798876D01*
G01X6326491Y-6798876D01*
G01X6335889Y-6795828D01*
G01X6341985Y-6792780D01*
G01X6348335Y-6786430D01*
G01X6351383Y-6780334D01*
G01X6351383Y-6767888D01*
G01X6348335Y-6761792D01*
G01X6341985Y-6755442D01*
G01X6335889Y-6752394D01*
G01X6286359Y-6691434D02*
G01X6329539Y-6722168D01*
G01X6329539Y-6675940D01*
G01X6286359Y-6691434D02*
G01X6351383Y-6691434D01*
G01X5496323Y-1446900D02*
G01X5502673Y-1443852D01*
G01X5508769Y-1437502D01*
G01X5511817Y-1431406D01*
G01X5511817Y-1418960D01*
G01X5508769Y-1412864D01*
G01X5502673Y-1406514D01*
G01X5496323Y-1403466D01*
G01X5487179Y-1400418D01*
G01X5471685Y-1400418D01*
G01X5462287Y-1403466D01*
G01X5456191Y-1406514D01*
G01X5449841Y-1412864D01*
G01X5446793Y-1418960D01*
G01X5446793Y-1431406D01*
G01X5449841Y-1437502D01*
G01X5456191Y-1443852D01*
G01X5462287Y-1446900D01*
G01X5511817Y-1514210D02*
G01X5511817Y-1483222D01*
G01X5484131Y-1480174D01*
G01X5487179Y-1483222D01*
G01X5490227Y-1492366D01*
G01X5490227Y-1501764D01*
G01X5487179Y-1511162D01*
G01X5480829Y-1517258D01*
G01X5471685Y-1520306D01*
G01X5465335Y-1520306D01*
G01X5456191Y-1517258D01*
G01X5449841Y-1511162D01*
G01X5446793Y-1501764D01*
G01X5446793Y-1492366D01*
G01X5449841Y-1483222D01*
G01X5453143Y-1480174D01*
G01X5459239Y-1477126D01*
G01X5921925Y-1453403D02*
G01X5928275Y-1450355D01*
G01X5934371Y-1444005D01*
G01X5937419Y-1437909D01*
G01X5937419Y-1425463D01*
G01X5934371Y-1419367D01*
G01X5928275Y-1413017D01*
G01X5921925Y-1409969D01*
G01X5912781Y-1406921D01*
G01X5897287Y-1406921D01*
G01X5887889Y-1409969D01*
G01X5881793Y-1413017D01*
G01X5875443Y-1419367D01*
G01X5872395Y-1425463D01*
G01X5872395Y-1437909D01*
G01X5875443Y-1444005D01*
G01X5881793Y-1450355D01*
G01X5887889Y-1453403D01*
G01X5928275Y-1520713D02*
G01X5934371Y-1517665D01*
G01X5937419Y-1508267D01*
G01X5937419Y-1502171D01*
G01X5934371Y-1492773D01*
G01X5924973Y-1486677D01*
G01X5909733Y-1483629D01*
G01X5894239Y-1483629D01*
G01X5881793Y-1486677D01*
G01X5875443Y-1492773D01*
G01X5872395Y-1502171D01*
G01X5872395Y-1505219D01*
G01X5875443Y-1514363D01*
G01X5881793Y-1520713D01*
G01X5890937Y-1523761D01*
G01X5894239Y-1523761D01*
G01X5903383Y-1520713D01*
G01X5909733Y-1514363D01*
G01X5912781Y-1505219D01*
G01X5912781Y-1502171D01*
G01X5909733Y-1492773D01*
G01X5903383Y-1486677D01*
G01X5894239Y-1483629D01*
G01X6893323Y-1662495D02*
G01X6899673Y-1659447D01*
G01X6905769Y-1653097D01*
G01X6908817Y-1647001D01*
G01X6908817Y-1634555D01*
G01X6905769Y-1628459D01*
G01X6899673Y-1622109D01*
G01X6893323Y-1619061D01*
G01X6884179Y-1616013D01*
G01X6868685Y-1616013D01*
G01X6859287Y-1619061D01*
G01X6853191Y-1622109D01*
G01X6846841Y-1628459D01*
G01X6843793Y-1634555D01*
G01X6843793Y-1647001D01*
G01X6846841Y-1653097D01*
G01X6853191Y-1659447D01*
G01X6859287Y-1662495D01*
G01X6908817Y-1735901D02*
G01X6843793Y-1704913D01*
G01X6908817Y-1692721D02*
G01X6908817Y-1735901D01*
G01X7223771Y-1667744D02*
G01X7230121Y-1664696D01*
G01X7236217Y-1658346D01*
G01X7239265Y-1652250D01*
G01X7239265Y-1639804D01*
G01X7236217Y-1633708D01*
G01X7230121Y-1627358D01*
G01X7223771Y-1624310D01*
G01X7214627Y-1621262D01*
G01X7199133Y-1621262D01*
G01X7189735Y-1624310D01*
G01X7183639Y-1627358D01*
G01X7177289Y-1633708D01*
G01X7174241Y-1639804D01*
G01X7174241Y-1652250D01*
G01X7177289Y-1658346D01*
G01X7183639Y-1664696D01*
G01X7189735Y-1667744D01*
G01X7239265Y-1713210D02*
G01X7236217Y-1704066D01*
G01X7230121Y-1701018D01*
G01X7223771Y-1701018D01*
G01X7217675Y-1704066D01*
G01X7214627Y-1710162D01*
G01X7211579Y-1722608D01*
G01X7208277Y-1732006D01*
G01X7202181Y-1738102D01*
G01X7196085Y-1741150D01*
G01X7186687Y-1741150D01*
G01X7180591Y-1738102D01*
G01X7177289Y-1735054D01*
G01X7174241Y-1725656D01*
G01X7174241Y-1713210D01*
G01X7177289Y-1704066D01*
G01X7180591Y-1701018D01*
G01X7186687Y-1697970D01*
G01X7196085Y-1697970D01*
G01X7202181Y-1701018D01*
G01X7208277Y-1707114D01*
G01X7211579Y-1716512D01*
G01X7214627Y-1728704D01*
G01X7217675Y-1735054D01*
G01X7223771Y-1738102D01*
G01X7230121Y-1738102D01*
G01X7236217Y-1735054D01*
G01X7239265Y-1725656D01*
G01X7239265Y-1713210D01*
G01X8568685Y-1423166D02*
G01X8575035Y-1420118D01*
G01X8581131Y-1413768D01*
G01X8584179Y-1407672D01*
G01X8584179Y-1395226D01*
G01X8581131Y-1389130D01*
G01X8575035Y-1382780D01*
G01X8568685Y-1379732D01*
G01X8559541Y-1376684D01*
G01X8544047Y-1376684D01*
G01X8534649Y-1379732D01*
G01X8528553Y-1382780D01*
G01X8522203Y-1389130D01*
G01X8519155Y-1395226D01*
G01X8519155Y-1407672D01*
G01X8522203Y-1413768D01*
G01X8528553Y-1420118D01*
G01X8534649Y-1423166D01*
G01X8562589Y-1493524D02*
G01X8553191Y-1490476D01*
G01X8547095Y-1484126D01*
G01X8544047Y-1474982D01*
G01X8544047Y-1471934D01*
G01X8547095Y-1462536D01*
G01X8553191Y-1456440D01*
G01X8562589Y-1453392D01*
G01X8565637Y-1453392D01*
G01X8575035Y-1456440D01*
G01X8581131Y-1462536D01*
G01X8584179Y-1471934D01*
G01X8584179Y-1474982D01*
G01X8581131Y-1484126D01*
G01X8575035Y-1490476D01*
G01X8562589Y-1493524D01*
G01X8547095Y-1493524D01*
G01X8531601Y-1490476D01*
G01X8522203Y-1484126D01*
G01X8519155Y-1474982D01*
G01X8519155Y-1468632D01*
G01X8522203Y-1459488D01*
G01X8528553Y-1456440D01*
G01X4073001Y-5393494D02*
G01X4066651Y-5396542D01*
G01X4060555Y-5402892D01*
G01X4057507Y-5408988D01*
G01X4057507Y-5421434D01*
G01X4060555Y-5427530D01*
G01X4066651Y-5433880D01*
G01X4073001Y-5436928D01*
G01X4082145Y-5439976D01*
G01X4097639Y-5439976D01*
G01X4107037Y-5436928D01*
G01X4113133Y-5433880D01*
G01X4119483Y-5427530D01*
G01X4122531Y-5421434D01*
G01X4122531Y-5408988D01*
G01X4119483Y-5402892D01*
G01X4113133Y-5396542D01*
G01X4107037Y-5393494D01*
G01X4069953Y-5363268D02*
G01X4066651Y-5357172D01*
G01X4057507Y-5348028D01*
G01X4122531Y-5348028D01*
G01X4073001Y-5314754D02*
G01X4069953Y-5314754D01*
G01X4063603Y-5311706D01*
G01X4060555Y-5308658D01*
G01X4057507Y-5302562D01*
G01X4057507Y-5290116D01*
G01X4060555Y-5283766D01*
G01X4063603Y-5280718D01*
G01X4069953Y-5277670D01*
G01X4076049Y-5277670D01*
G01X4082145Y-5280718D01*
G01X4091543Y-5287068D01*
G01X4122531Y-5317802D01*
G01X4122531Y-5274622D01*
G01X5070999Y-5242608D02*
G01X5077349Y-5239560D01*
G01X5083445Y-5233210D01*
G01X5086493Y-5227114D01*
G01X5086493Y-5214668D01*
G01X5083445Y-5208572D01*
G01X5077349Y-5202222D01*
G01X5070999Y-5199174D01*
G01X5061855Y-5196126D01*
G01X5046361Y-5196126D01*
G01X5036963Y-5199174D01*
G01X5030867Y-5202222D01*
G01X5024517Y-5208572D01*
G01X5021469Y-5214668D01*
G01X5021469Y-5227114D01*
G01X5024517Y-5233210D01*
G01X5030867Y-5239560D01*
G01X5036963Y-5242608D01*
G01X5074047Y-5272834D02*
G01X5077349Y-5278930D01*
G01X5086493Y-5288074D01*
G01X5021469Y-5288074D01*
G01X5086493Y-5324396D02*
G01X5086493Y-5358432D01*
G01X5061855Y-5339890D01*
G01X5061855Y-5349034D01*
G01X5058807Y-5355384D01*
G01X5055505Y-5358432D01*
G01X5046361Y-5361480D01*
G01X5040011Y-5361480D01*
G01X5030867Y-5358432D01*
G01X5024517Y-5352336D01*
G01X5021469Y-5342938D01*
G01X5021469Y-5333540D01*
G01X5024517Y-5324396D01*
G01X5027819Y-5321348D01*
G01X5033915Y-5318300D01*
G01X4047289Y-761945D02*
G01X4050337Y-768295D01*
G01X4056687Y-774391D01*
G01X4062783Y-777439D01*
G01X4075229Y-777439D01*
G01X4081325Y-774391D01*
G01X4087675Y-768295D01*
G01X4090723Y-761945D01*
G01X4093771Y-752801D01*
G01X4093771Y-737307D01*
G01X4090723Y-727909D01*
G01X4087675Y-721813D01*
G01X4081325Y-715463D01*
G01X4075229Y-712415D01*
G01X4062783Y-712415D01*
G01X4056687Y-715463D01*
G01X4050337Y-721813D01*
G01X4047289Y-727909D01*
G01X4017063Y-764993D02*
G01X4010967Y-768295D01*
G01X4001823Y-777439D01*
G01X4001823Y-712415D01*
G01X3934513Y-777439D02*
G01X3965501Y-777439D01*
G01X3968549Y-749753D01*
G01X3965501Y-752801D01*
G01X3956357Y-755849D01*
G01X3946959Y-755849D01*
G01X3937561Y-752801D01*
G01X3931465Y-746451D01*
G01X3928417Y-737307D01*
G01X3928417Y-730957D01*
G01X3931465Y-721813D01*
G01X3937561Y-715463D01*
G01X3946959Y-712415D01*
G01X3956357Y-712415D01*
G01X3965501Y-715463D01*
G01X3968549Y-718765D01*
G01X3971597Y-724861D01*
G01X3576290Y-8944484D02*
G01X3576290Y-8879460D01*
G01X3576290Y-8944484D02*
G01X3554700Y-8944484D01*
G01X3545302Y-8941436D01*
G01X3539206Y-8935340D01*
G01X3536158Y-8928990D01*
G01X3532856Y-8919846D01*
G01X3532856Y-8904352D01*
G01X3536158Y-8894954D01*
G01X3539206Y-8888858D01*
G01X3545302Y-8882508D01*
G01X3554700Y-8879460D01*
G01X3576290Y-8879460D01*
G01X3502630Y-8932038D02*
G01X3496534Y-8935340D01*
G01X3487390Y-8944484D01*
G01X3487390Y-8879460D01*
G01X4208780Y-528629D02*
G01X4208780Y-463605D01*
G01X4165346Y-528629D02*
G01X4165346Y-463605D01*
G01X4208780Y-497641D02*
G01X4165346Y-497641D01*
G01X4135120Y-516183D02*
G01X4129024Y-519485D01*
G01X4119880Y-528629D01*
G01X4119880Y-463605D01*
G01X5821934Y-6362629D02*
G01X5756910Y-6362629D01*
G01X5756910Y-6362629D02*
G01X5756910Y-6399713D01*
G01X5809488Y-6429939D02*
G01X5812790Y-6436035D01*
G01X5821934Y-6445179D01*
G01X5756910Y-6445179D01*
G01X6482890Y-2992103D02*
G01X6547914Y-2992103D01*
G01X6547914Y-2992103D02*
G01X6547914Y-2955019D01*
G01X6482890Y-2924793D02*
G01X6547914Y-2924793D01*
G01X6482890Y-2924793D02*
G01X6482890Y-2884661D01*
G01X6513878Y-2924793D02*
G01X6513878Y-2900155D01*
G01X6547914Y-2924793D02*
G01X6547914Y-2884661D01*
G01X6482890Y-2854435D02*
G01X6547914Y-2854435D01*
G01X6482890Y-2854435D02*
G01X6482890Y-2832845D01*
G01X6485938Y-2823701D01*
G01X6492034Y-2817351D01*
G01X6498384Y-2814303D01*
G01X6507528Y-2811255D01*
G01X6523022Y-2811255D01*
G01X6532420Y-2814303D01*
G01X6538516Y-2817351D01*
G01X6544866Y-2823701D01*
G01X6547914Y-2832845D01*
G01X6547914Y-2854435D01*
G01X6495336Y-2781029D02*
G01X6492034Y-2774933D01*
G01X6482890Y-2765789D01*
G01X6547914Y-2765789D01*
G01X3417491Y-4416786D02*
G01X3417491Y-4481810D01*
G01X3417491Y-4416786D02*
G01X3445431Y-4416786D01*
G01X3454575Y-4419834D01*
G01X3457623Y-4422882D01*
G01X3460925Y-4429232D01*
G01X3460925Y-4435328D01*
G01X3457623Y-4441424D01*
G01X3454575Y-4444472D01*
G01X3445431Y-4447774D01*
G01X3417491Y-4447774D01*
G01X3439081Y-4447774D02*
G01X3460925Y-4481810D01*
G01X3494199Y-4432280D02*
G01X3494199Y-4429232D01*
G01X3497247Y-4422882D01*
G01X3500295Y-4419834D01*
G01X3506391Y-4416786D01*
G01X3518837Y-4416786D01*
G01X3525187Y-4419834D01*
G01X3528235Y-4422882D01*
G01X3531283Y-4429232D01*
G01X3531283Y-4435328D01*
G01X3528235Y-4441424D01*
G01X3521885Y-4450822D01*
G01X3491151Y-4481810D01*
G01X3534331Y-4481810D01*
G01X6478933Y-3395914D02*
G01X6543957Y-3395914D01*
G01X6478933Y-3395914D02*
G01X6478933Y-3367974D01*
G01X6481981Y-3358830D01*
G01X6485029Y-3355782D01*
G01X6491379Y-3352480D01*
G01X6497475Y-3352480D01*
G01X6503571Y-3355782D01*
G01X6506619Y-3358830D01*
G01X6509921Y-3367974D01*
G01X6509921Y-3395914D01*
G01X6509921Y-3374324D02*
G01X6543957Y-3352480D01*
G01X6494427Y-3319206D02*
G01X6491379Y-3319206D01*
G01X6485029Y-3316158D01*
G01X6481981Y-3313110D01*
G01X6478933Y-3307014D01*
G01X6478933Y-3294568D01*
G01X6481981Y-3288218D01*
G01X6485029Y-3285170D01*
G01X6491379Y-3282122D01*
G01X6497475Y-3282122D01*
G01X6503571Y-3285170D01*
G01X6512969Y-3291520D01*
G01X6543957Y-3322254D01*
G01X6543957Y-3279074D01*
G01X6491379Y-3248848D02*
G01X6488077Y-3242752D01*
G01X6478933Y-3233608D01*
G01X6543957Y-3233608D01*
G01X2534666Y-8193154D02*
G01X2581148Y-8193154D01*
G01X2590292Y-8190106D01*
G01X2596642Y-8183756D01*
G01X2599690Y-8174612D01*
G01X2599690Y-8168262D01*
G01X2596642Y-8159118D01*
G01X2590292Y-8153022D01*
G01X2581148Y-8149720D01*
G01X2534666Y-8149720D01*
G01X2534666Y-8113398D02*
G01X2534666Y-8079362D01*
G01X2559304Y-8097904D01*
G01X2559304Y-8088760D01*
G01X2562352Y-8082410D01*
G01X2565654Y-8079362D01*
G01X2574798Y-8076314D01*
G01X2581148Y-8076314D01*
G01X2590292Y-8079362D01*
G01X2596642Y-8085458D01*
G01X2599690Y-8094856D01*
G01X2599690Y-8104254D01*
G01X2596642Y-8113398D01*
G01X2593340Y-8116446D01*
G01X2587244Y-8119494D01*
G01X5813797Y-2217262D02*
G01X5860279Y-2217262D01*
G01X5869423Y-2214214D01*
G01X5875773Y-2207864D01*
G01X5878821Y-2198720D01*
G01X5878821Y-2192370D01*
G01X5875773Y-2183226D01*
G01X5869423Y-2177130D01*
G01X5860279Y-2173828D01*
G01X5813797Y-2173828D01*
G01X5813797Y-2112868D02*
G01X5856977Y-2143602D01*
G01X5856977Y-2097374D01*
G01X5813797Y-2112868D02*
G01X5878821Y-2112868D01*
G01X3974220Y-3986666D02*
G01X3974220Y-4033148D01*
G01X3977268Y-4042292D01*
G01X3983618Y-4048642D01*
G01X3992762Y-4051690D01*
G01X3999112Y-4051690D01*
G01X4008256Y-4048642D01*
G01X4014352Y-4042292D01*
G01X4017654Y-4033148D01*
G01X4017654Y-3986666D01*
G01X4084964Y-3986666D02*
G01X4053976Y-3986666D01*
G01X4050928Y-4014352D01*
G01X4053976Y-4011304D01*
G01X4063120Y-4008256D01*
G01X4072518Y-4008256D01*
G01X4081916Y-4011304D01*
G01X4088012Y-4017654D01*
G01X4091060Y-4026798D01*
G01X4091060Y-4033148D01*
G01X4088012Y-4042292D01*
G01X4081916Y-4048642D01*
G01X4072518Y-4051690D01*
G01X4063120Y-4051690D01*
G01X4053976Y-4048642D01*
G01X4050928Y-4045340D01*
G01X4047880Y-4039244D01*
G01X4508498Y-5637784D02*
G01X4465064Y-5572760D01*
G01X4465064Y-5637784D02*
G01X4508498Y-5572760D01*
G01X4434838Y-5625338D02*
G01X4428742Y-5628640D01*
G01X4419598Y-5637784D01*
G01X4419598Y-5572760D01*
G01X5228389Y-1026051D02*
G01X5231437Y-1032401D01*
G01X5237787Y-1038497D01*
G01X5243883Y-1041545D01*
G01X5256329Y-1041545D01*
G01X5262425Y-1038497D01*
G01X5268775Y-1032401D01*
G01X5271823Y-1026051D01*
G01X5274871Y-1016907D01*
G01X5274871Y-1001413D01*
G01X5271823Y-992015D01*
G01X5268775Y-985919D01*
G01X5262425Y-979569D01*
G01X5256329Y-976521D01*
G01X5243883Y-976521D01*
G01X5237787Y-979569D01*
G01X5231437Y-985919D01*
G01X5228389Y-992015D01*
G01X5195115Y-1026051D02*
G01X5195115Y-1029099D01*
G01X5192067Y-1035449D01*
G01X5189019Y-1038497D01*
G01X5182923Y-1041545D01*
G01X5170477Y-1041545D01*
G01X5164127Y-1038497D01*
G01X5161079Y-1035449D01*
G01X5158031Y-1029099D01*
G01X5158031Y-1023003D01*
G01X5161079Y-1016907D01*
G01X5167429Y-1007509D01*
G01X5198163Y-976521D01*
G01X5154983Y-976521D01*
G01X5121709Y-1026051D02*
G01X5121709Y-1029099D01*
G01X5118661Y-1035449D01*
G01X5115613Y-1038497D01*
G01X5109517Y-1041545D01*
G01X5097071Y-1041545D01*
G01X5090721Y-1038497D01*
G01X5087673Y-1035449D01*
G01X5084625Y-1029099D01*
G01X5084625Y-1023003D01*
G01X5087673Y-1016907D01*
G01X5094023Y-1007509D01*
G01X5124757Y-976521D01*
G01X5081577Y-976521D01*
G01X7975655Y-2574089D02*
G01X7969305Y-2577137D01*
G01X7963209Y-2583487D01*
G01X7960161Y-2589583D01*
G01X7960161Y-2602029D01*
G01X7963209Y-2608125D01*
G01X7969305Y-2614475D01*
G01X7975655Y-2617523D01*
G01X7984799Y-2620571D01*
G01X8000293Y-2620571D01*
G01X8009691Y-2617523D01*
G01X8015787Y-2614475D01*
G01X8022137Y-2608125D01*
G01X8025185Y-2602029D01*
G01X8025185Y-2589583D01*
G01X8022137Y-2583487D01*
G01X8015787Y-2577137D01*
G01X8009691Y-2574089D01*
G01X7975655Y-2540815D02*
G01X7972607Y-2540815D01*
G01X7966257Y-2537767D01*
G01X7963209Y-2534719D01*
G01X7960161Y-2528623D01*
G01X7960161Y-2516177D01*
G01X7963209Y-2509827D01*
G01X7966257Y-2506779D01*
G01X7972607Y-2503731D01*
G01X7978703Y-2503731D01*
G01X7984799Y-2506779D01*
G01X7994197Y-2513129D01*
G01X8025185Y-2543863D01*
G01X8025185Y-2500683D01*
G01X7960161Y-2464361D02*
G01X7960161Y-2430325D01*
G01X7984799Y-2448867D01*
G01X7984799Y-2439723D01*
G01X7987847Y-2433373D01*
G01X7991149Y-2430325D01*
G01X8000293Y-2427277D01*
G01X8006643Y-2427277D01*
G01X8015787Y-2430325D01*
G01X8022137Y-2436421D01*
G01X8025185Y-2445819D01*
G01X8025185Y-2455217D01*
G01X8022137Y-2464361D01*
G01X8018835Y-2467409D01*
G01X8012739Y-2470457D01*
G01X7319010Y-4801489D02*
G01X7312660Y-4804537D01*
G01X7306564Y-4810887D01*
G01X7303516Y-4816983D01*
G01X7303516Y-4829429D01*
G01X7306564Y-4835525D01*
G01X7312660Y-4841875D01*
G01X7319010Y-4844923D01*
G01X7328154Y-4847971D01*
G01X7343648Y-4847971D01*
G01X7353046Y-4844923D01*
G01X7359142Y-4841875D01*
G01X7365492Y-4835525D01*
G01X7368540Y-4829429D01*
G01X7368540Y-4816983D01*
G01X7365492Y-4810887D01*
G01X7359142Y-4804537D01*
G01X7353046Y-4801489D01*
G01X7319010Y-4768215D02*
G01X7315962Y-4768215D01*
G01X7309612Y-4765167D01*
G01X7306564Y-4762119D01*
G01X7303516Y-4756023D01*
G01X7303516Y-4743577D01*
G01X7306564Y-4737227D01*
G01X7309612Y-4734179D01*
G01X7315962Y-4731131D01*
G01X7322058Y-4731131D01*
G01X7328154Y-4734179D01*
G01X7337552Y-4740529D01*
G01X7368540Y-4771263D01*
G01X7368540Y-4728083D01*
G01X7303516Y-4667123D02*
G01X7346696Y-4697857D01*
G01X7346696Y-4651629D01*
G01X7303516Y-4667123D02*
G01X7368540Y-4667123D01*
G01X6079644Y-798888D02*
G01X6082692Y-805238D01*
G01X6089042Y-811334D01*
G01X6095138Y-814382D01*
G01X6107584Y-814382D01*
G01X6113680Y-811334D01*
G01X6120030Y-805238D01*
G01X6123078Y-798888D01*
G01X6126126Y-789744D01*
G01X6126126Y-774250D01*
G01X6123078Y-764852D01*
G01X6120030Y-758756D01*
G01X6113680Y-752406D01*
G01X6107584Y-749358D01*
G01X6095138Y-749358D01*
G01X6089042Y-752406D01*
G01X6082692Y-758756D01*
G01X6079644Y-764852D01*
G01X6049418Y-814382D02*
G01X6049418Y-749358D01*
G01X6049418Y-814382D02*
G01X6006238Y-749358D01*
G01X6006238Y-814382D02*
G01X6006238Y-749358D01*
G01X5976012Y-801936D02*
G01X5969916Y-805238D01*
G01X5960772Y-814382D01*
G01X5960772Y-749358D01*
G01X8186365Y-3425698D02*
G01X8180015Y-3428746D01*
G01X8173919Y-3435096D01*
G01X8170871Y-3441192D01*
G01X8170871Y-3453638D01*
G01X8173919Y-3459734D01*
G01X8180015Y-3466084D01*
G01X8186365Y-3469132D01*
G01X8195509Y-3472180D01*
G01X8211003Y-3472180D01*
G01X8220401Y-3469132D01*
G01X8226497Y-3466084D01*
G01X8232847Y-3459734D01*
G01X8235895Y-3453638D01*
G01X8235895Y-3441192D01*
G01X8232847Y-3435096D01*
G01X8226497Y-3428746D01*
G01X8220401Y-3425698D01*
G01X8170871Y-3395472D02*
G01X8235895Y-3395472D01*
G01X8170871Y-3395472D02*
G01X8235895Y-3352292D01*
G01X8170871Y-3352292D02*
G01X8235895Y-3352292D01*
G01X8186365Y-3319018D02*
G01X8183317Y-3319018D01*
G01X8176967Y-3315970D01*
G01X8173919Y-3312922D01*
G01X8170871Y-3306826D01*
G01X8170871Y-3294380D01*
G01X8173919Y-3288030D01*
G01X8176967Y-3284982D01*
G01X8183317Y-3281934D01*
G01X8189413Y-3281934D01*
G01X8195509Y-3284982D01*
G01X8204907Y-3291332D01*
G01X8235895Y-3322066D01*
G01X8235895Y-3278886D01*
G01X1216744Y-6757943D02*
G01X1151720Y-6757943D01*
G01X1216744Y-6757943D02*
G01X1216744Y-6785883D01*
G01X1213696Y-6795027D01*
G01X1210648Y-6798075D01*
G01X1204298Y-6801377D01*
G01X1195154Y-6801377D01*
G01X1189058Y-6798075D01*
G01X1185756Y-6795027D01*
G01X1182708Y-6785883D01*
G01X1182708Y-6757943D01*
G01X1201250Y-6834651D02*
G01X1204298Y-6834651D01*
G01X1210648Y-6837699D01*
G01X1213696Y-6840747D01*
G01X1216744Y-6846843D01*
G01X1216744Y-6859289D01*
G01X1213696Y-6865639D01*
G01X1210648Y-6868687D01*
G01X1204298Y-6871735D01*
G01X1198202Y-6871735D01*
G01X1192106Y-6868687D01*
G01X1182708Y-6862337D01*
G01X1151720Y-6831603D01*
G01X1151720Y-6874783D01*
G01X1213632Y-2503443D02*
G01X1148608Y-2503443D01*
G01X1213632Y-2503443D02*
G01X1213632Y-2531383D01*
G01X1210584Y-2540527D01*
G01X1207536Y-2543575D01*
G01X1201186Y-2546877D01*
G01X1192042Y-2546877D01*
G01X1185946Y-2543575D01*
G01X1182644Y-2540527D01*
G01X1179596Y-2531383D01*
G01X1179596Y-2503443D01*
G01X1213632Y-2607837D02*
G01X1170452Y-2577103D01*
G01X1170452Y-2623331D01*
G01X1213632Y-2607837D02*
G01X1148608Y-2607837D01*
G01X1231465Y-395243D02*
G01X1166441Y-395243D01*
G01X1231465Y-395243D02*
G01X1231465Y-423183D01*
G01X1228417Y-432327D01*
G01X1225369Y-435375D01*
G01X1219019Y-438677D01*
G01X1209875Y-438677D01*
G01X1203779Y-435375D01*
G01X1200477Y-432327D01*
G01X1197429Y-423183D01*
G01X1197429Y-395243D01*
G01X1231465Y-505987D02*
G01X1231465Y-474999D01*
G01X1203779Y-471951D01*
G01X1206827Y-474999D01*
G01X1209875Y-484143D01*
G01X1209875Y-493541D01*
G01X1206827Y-502939D01*
G01X1200477Y-509035D01*
G01X1191333Y-512083D01*
G01X1184983Y-512083D01*
G01X1175839Y-509035D01*
G01X1169489Y-502939D01*
G01X1166441Y-493541D01*
G01X1166441Y-484143D01*
G01X1169489Y-474999D01*
G01X1172791Y-471951D01*
G01X1178887Y-468903D01*
G01X9064847Y-4380354D02*
G01X8999823Y-4380354D01*
G01X9064847Y-4380354D02*
G01X9064847Y-4408294D01*
G01X9061799Y-4417438D01*
G01X9058751Y-4420486D01*
G01X9052401Y-4423788D01*
G01X9043257Y-4423788D01*
G01X9037161Y-4420486D01*
G01X9033859Y-4417438D01*
G01X9030811Y-4408294D01*
G01X9030811Y-4380354D01*
G01X9064847Y-4469254D02*
G01X9061799Y-4460110D01*
G01X9055703Y-4457062D01*
G01X9049353Y-4457062D01*
G01X9043257Y-4460110D01*
G01X9040209Y-4466206D01*
G01X9037161Y-4478652D01*
G01X9033859Y-4488050D01*
G01X9027763Y-4494146D01*
G01X9021667Y-4497194D01*
G01X9012269Y-4497194D01*
G01X9006173Y-4494146D01*
G01X9002871Y-4491098D01*
G01X8999823Y-4481700D01*
G01X8999823Y-4469254D01*
G01X9002871Y-4460110D01*
G01X9006173Y-4457062D01*
G01X9012269Y-4454014D01*
G01X9021667Y-4454014D01*
G01X9027763Y-4457062D01*
G01X9033859Y-4463158D01*
G01X9037161Y-4472556D01*
G01X9040209Y-4484748D01*
G01X9043257Y-4491098D01*
G01X9049353Y-4494146D01*
G01X9055703Y-4494146D01*
G01X9061799Y-4491098D01*
G01X9064847Y-4481700D01*
G01X9064847Y-4469254D01*
G01X1337017Y-7685471D02*
G01X1337017Y-7750495D01*
G01X1337017Y-7685471D02*
G01X1364957Y-7685471D01*
G01X1374101Y-7688519D01*
G01X1377149Y-7691567D01*
G01X1380451Y-7697917D01*
G01X1380451Y-7704013D01*
G01X1377149Y-7710109D01*
G01X1374101Y-7713157D01*
G01X1364957Y-7716459D01*
G01X1337017Y-7716459D01*
G01X1358607Y-7716459D02*
G01X1380451Y-7750495D01*
G01X1413725Y-7700965D02*
G01X1413725Y-7697917D01*
G01X1416773Y-7691567D01*
G01X1419821Y-7688519D01*
G01X1425917Y-7685471D01*
G01X1438363Y-7685471D01*
G01X1444713Y-7688519D01*
G01X1447761Y-7691567D01*
G01X1450809Y-7697917D01*
G01X1450809Y-7704013D01*
G01X1447761Y-7710109D01*
G01X1441411Y-7719507D01*
G01X1410677Y-7750495D01*
G01X1453857Y-7750495D01*
G01X1487131Y-7700965D02*
G01X1487131Y-7697917D01*
G01X1490179Y-7691567D01*
G01X1493227Y-7688519D01*
G01X1499323Y-7685471D01*
G01X1511769Y-7685471D01*
G01X1518119Y-7688519D01*
G01X1521167Y-7691567D01*
G01X1524215Y-7697917D01*
G01X1524215Y-7704013D01*
G01X1521167Y-7710109D01*
G01X1514817Y-7719507D01*
G01X1484083Y-7750495D01*
G01X1527263Y-7750495D01*
G01X2032361Y-7671991D02*
G01X1967337Y-7671991D01*
G01X2032361Y-7671991D02*
G01X2032361Y-7699931D01*
G01X2029313Y-7709075D01*
G01X2026265Y-7712123D01*
G01X2019915Y-7715425D01*
G01X2013819Y-7715425D01*
G01X2007723Y-7712123D01*
G01X2004675Y-7709075D01*
G01X2001373Y-7699931D01*
G01X2001373Y-7671991D01*
G01X2001373Y-7693581D02*
G01X1967337Y-7715425D01*
G01X2016867Y-7748699D02*
G01X2019915Y-7748699D01*
G01X2026265Y-7751747D01*
G01X2029313Y-7754795D01*
G01X2032361Y-7760891D01*
G01X2032361Y-7773337D01*
G01X2029313Y-7779687D01*
G01X2026265Y-7782735D01*
G01X2019915Y-7785783D01*
G01X2013819Y-7785783D01*
G01X2007723Y-7782735D01*
G01X1998325Y-7776385D01*
G01X1967337Y-7745651D01*
G01X1967337Y-7788831D01*
G01X2032361Y-7825153D02*
G01X2032361Y-7859189D01*
G01X2007723Y-7840647D01*
G01X2007723Y-7849791D01*
G01X2004675Y-7856141D01*
G01X2001373Y-7859189D01*
G01X1992229Y-7862237D01*
G01X1985879Y-7862237D01*
G01X1976735Y-7859189D01*
G01X1970385Y-7853093D01*
G01X1967337Y-7843695D01*
G01X1967337Y-7834297D01*
G01X1970385Y-7825153D01*
G01X1973687Y-7822105D01*
G01X1979783Y-7819057D01*
G01X1593492Y-3779520D02*
G01X1528468Y-3779520D01*
G01X1593492Y-3779520D02*
G01X1593492Y-3807460D01*
G01X1590444Y-3816604D01*
G01X1587396Y-3819652D01*
G01X1581046Y-3822954D01*
G01X1574950Y-3822954D01*
G01X1568854Y-3819652D01*
G01X1565806Y-3816604D01*
G01X1562504Y-3807460D01*
G01X1562504Y-3779520D01*
G01X1562504Y-3801110D02*
G01X1528468Y-3822954D01*
G01X1577998Y-3856228D02*
G01X1581046Y-3856228D01*
G01X1587396Y-3859276D01*
G01X1590444Y-3862324D01*
G01X1593492Y-3868420D01*
G01X1593492Y-3880866D01*
G01X1590444Y-3887216D01*
G01X1587396Y-3890264D01*
G01X1581046Y-3893312D01*
G01X1574950Y-3893312D01*
G01X1568854Y-3890264D01*
G01X1559456Y-3883914D01*
G01X1528468Y-3853180D01*
G01X1528468Y-3896360D01*
G01X1584348Y-3963670D02*
G01X1590444Y-3960622D01*
G01X1593492Y-3951224D01*
G01X1593492Y-3945128D01*
G01X1590444Y-3935730D01*
G01X1581046Y-3929634D01*
G01X1565806Y-3926586D01*
G01X1550312Y-3926586D01*
G01X1537866Y-3929634D01*
G01X1531516Y-3935730D01*
G01X1528468Y-3945128D01*
G01X1528468Y-3948176D01*
G01X1531516Y-3957320D01*
G01X1537866Y-3963670D01*
G01X1547010Y-3966718D01*
G01X1550312Y-3966718D01*
G01X1559456Y-3963670D01*
G01X1565806Y-3957320D01*
G01X1568854Y-3948176D01*
G01X1568854Y-3945128D01*
G01X1565806Y-3935730D01*
G01X1559456Y-3929634D01*
G01X1550312Y-3926586D01*
G01X1949092Y-3449320D02*
G01X1884068Y-3449320D01*
G01X1949092Y-3449320D02*
G01X1949092Y-3477260D01*
G01X1946044Y-3486404D01*
G01X1942996Y-3489452D01*
G01X1936646Y-3492754D01*
G01X1930550Y-3492754D01*
G01X1924454Y-3489452D01*
G01X1921406Y-3486404D01*
G01X1918104Y-3477260D01*
G01X1918104Y-3449320D01*
G01X1918104Y-3470910D02*
G01X1884068Y-3492754D01*
G01X1933598Y-3526028D02*
G01X1936646Y-3526028D01*
G01X1942996Y-3529076D01*
G01X1946044Y-3532124D01*
G01X1949092Y-3538220D01*
G01X1949092Y-3550666D01*
G01X1946044Y-3557016D01*
G01X1942996Y-3560064D01*
G01X1936646Y-3563112D01*
G01X1930550Y-3563112D01*
G01X1924454Y-3560064D01*
G01X1915056Y-3553714D01*
G01X1884068Y-3522980D01*
G01X1884068Y-3566160D01*
G01X1949092Y-3639566D02*
G01X1884068Y-3608578D01*
G01X1949092Y-3596386D02*
G01X1949092Y-3639566D01*
G01X1452575Y-1433546D02*
G01X1387551Y-1433546D01*
G01X1452575Y-1433546D02*
G01X1452575Y-1461486D01*
G01X1449527Y-1470630D01*
G01X1446479Y-1473678D01*
G01X1440129Y-1476980D01*
G01X1434033Y-1476980D01*
G01X1427937Y-1473678D01*
G01X1424889Y-1470630D01*
G01X1421587Y-1461486D01*
G01X1421587Y-1433546D01*
G01X1421587Y-1455136D02*
G01X1387551Y-1476980D01*
G01X1437081Y-1510254D02*
G01X1440129Y-1510254D01*
G01X1446479Y-1513302D01*
G01X1449527Y-1516350D01*
G01X1452575Y-1522446D01*
G01X1452575Y-1534892D01*
G01X1449527Y-1541242D01*
G01X1446479Y-1544290D01*
G01X1440129Y-1547338D01*
G01X1434033Y-1547338D01*
G01X1427937Y-1544290D01*
G01X1418539Y-1537940D01*
G01X1387551Y-1507206D01*
G01X1387551Y-1550386D01*
G01X1452575Y-1595852D02*
G01X1449527Y-1586708D01*
G01X1443431Y-1583660D01*
G01X1437081Y-1583660D01*
G01X1430985Y-1586708D01*
G01X1427937Y-1592804D01*
G01X1424889Y-1605250D01*
G01X1421587Y-1614648D01*
G01X1415491Y-1620744D01*
G01X1409395Y-1623792D01*
G01X1399997Y-1623792D01*
G01X1393901Y-1620744D01*
G01X1390599Y-1617696D01*
G01X1387551Y-1608298D01*
G01X1387551Y-1595852D01*
G01X1390599Y-1586708D01*
G01X1393901Y-1583660D01*
G01X1399997Y-1580612D01*
G01X1409395Y-1580612D01*
G01X1415491Y-1583660D01*
G01X1421587Y-1589756D01*
G01X1424889Y-1599154D01*
G01X1427937Y-1611346D01*
G01X1430985Y-1617696D01*
G01X1437081Y-1620744D01*
G01X1443431Y-1620744D01*
G01X1449527Y-1617696D01*
G01X1452575Y-1608298D01*
G01X1452575Y-1595852D01*
G01X1668475Y-1433546D02*
G01X1603451Y-1433546D01*
G01X1668475Y-1433546D02*
G01X1668475Y-1461486D01*
G01X1665427Y-1470630D01*
G01X1662379Y-1473678D01*
G01X1656029Y-1476980D01*
G01X1649933Y-1476980D01*
G01X1643837Y-1473678D01*
G01X1640789Y-1470630D01*
G01X1637487Y-1461486D01*
G01X1637487Y-1433546D01*
G01X1637487Y-1455136D02*
G01X1603451Y-1476980D01*
G01X1652981Y-1510254D02*
G01X1656029Y-1510254D01*
G01X1662379Y-1513302D01*
G01X1665427Y-1516350D01*
G01X1668475Y-1522446D01*
G01X1668475Y-1534892D01*
G01X1665427Y-1541242D01*
G01X1662379Y-1544290D01*
G01X1656029Y-1547338D01*
G01X1649933Y-1547338D01*
G01X1643837Y-1544290D01*
G01X1634439Y-1537940D01*
G01X1603451Y-1507206D01*
G01X1603451Y-1550386D01*
G01X1646885Y-1620744D02*
G01X1637487Y-1617696D01*
G01X1631391Y-1611346D01*
G01X1628343Y-1602202D01*
G01X1628343Y-1599154D01*
G01X1631391Y-1589756D01*
G01X1637487Y-1583660D01*
G01X1646885Y-1580612D01*
G01X1649933Y-1580612D01*
G01X1659331Y-1583660D01*
G01X1665427Y-1589756D01*
G01X1668475Y-1599154D01*
G01X1668475Y-1602202D01*
G01X1665427Y-1611346D01*
G01X1659331Y-1617696D01*
G01X1646885Y-1620744D01*
G01X1631391Y-1620744D01*
G01X1615897Y-1617696D01*
G01X1606499Y-1611346D01*
G01X1603451Y-1602202D01*
G01X1603451Y-1595852D01*
G01X1606499Y-1586708D01*
G01X1612849Y-1583660D01*
G01X6459347Y-4475146D02*
G01X6459347Y-4540170D01*
G01X6459347Y-4475146D02*
G01X6487287Y-4475146D01*
G01X6496431Y-4478194D01*
G01X6499479Y-4481242D01*
G01X6502781Y-4487592D01*
G01X6502781Y-4493688D01*
G01X6499479Y-4499784D01*
G01X6496431Y-4502832D01*
G01X6487287Y-4506134D01*
G01X6459347Y-4506134D01*
G01X6480937Y-4506134D02*
G01X6502781Y-4540170D01*
G01X6539103Y-4475146D02*
G01X6573139Y-4475146D01*
G01X6554597Y-4499784D01*
G01X6563741Y-4499784D01*
G01X6570091Y-4502832D01*
G01X6573139Y-4506134D01*
G01X6576187Y-4515278D01*
G01X6576187Y-4521628D01*
G01X6573139Y-4530772D01*
G01X6567043Y-4537122D01*
G01X6557645Y-4540170D01*
G01X6548247Y-4540170D01*
G01X6539103Y-4537122D01*
G01X6536055Y-4533820D01*
G01X6533007Y-4527724D01*
G01X6606413Y-4487592D02*
G01X6612509Y-4484290D01*
G01X6621653Y-4475146D01*
G01X6621653Y-4540170D01*
G01X6107899Y-4415714D02*
G01X6107899Y-4462196D01*
G01X6110947Y-4471340D01*
G01X6117297Y-4477690D01*
G01X6126441Y-4480738D01*
G01X6132791Y-4480738D01*
G01X6141935Y-4477690D01*
G01X6148031Y-4471340D01*
G01X6151333Y-4462196D01*
G01X6151333Y-4415714D01*
G01X6218643Y-4424858D02*
G01X6215595Y-4418762D01*
G01X6206197Y-4415714D01*
G01X6200101Y-4415714D01*
G01X6190703Y-4418762D01*
G01X6184607Y-4428160D01*
G01X6181559Y-4443400D01*
G01X6181559Y-4458894D01*
G01X6184607Y-4471340D01*
G01X6190703Y-4477690D01*
G01X6200101Y-4480738D01*
G01X6203149Y-4480738D01*
G01X6212293Y-4477690D01*
G01X6218643Y-4471340D01*
G01X6221691Y-4462196D01*
G01X6221691Y-4458894D01*
G01X6218643Y-4449750D01*
G01X6212293Y-4443400D01*
G01X6203149Y-4440352D01*
G01X6200101Y-4440352D01*
G01X6190703Y-4443400D01*
G01X6184607Y-4449750D01*
G01X6181559Y-4458894D01*
G01X6680218Y-8890983D02*
G01X6683266Y-8897333D01*
G01X6689616Y-8903429D01*
G01X6695712Y-8906477D01*
G01X6708158Y-8906477D01*
G01X6714254Y-8903429D01*
G01X6720604Y-8897333D01*
G01X6723652Y-8890983D01*
G01X6726700Y-8881839D01*
G01X6726700Y-8866345D01*
G01X6723652Y-8856947D01*
G01X6720604Y-8850851D01*
G01X6714254Y-8844501D01*
G01X6708158Y-8841453D01*
G01X6695712Y-8841453D01*
G01X6689616Y-8844501D01*
G01X6683266Y-8850851D01*
G01X6680218Y-8856947D01*
G01X6646944Y-8890983D02*
G01X6646944Y-8894031D01*
G01X6643896Y-8900381D01*
G01X6640848Y-8903429D01*
G01X6634752Y-8906477D01*
G01X6622306Y-8906477D01*
G01X6615956Y-8903429D01*
G01X6612908Y-8900381D01*
G01X6609860Y-8894031D01*
G01X6609860Y-8887935D01*
G01X6612908Y-8881839D01*
G01X6619258Y-8872441D01*
G01X6649992Y-8841453D01*
G01X6606812Y-8841453D01*
G01X6539502Y-8906477D02*
G01X6570490Y-8906477D01*
G01X6573538Y-8878791D01*
G01X6570490Y-8881839D01*
G01X6561346Y-8884887D01*
G01X6551948Y-8884887D01*
G01X6542550Y-8881839D01*
G01X6536454Y-8875489D01*
G01X6533406Y-8866345D01*
G01X6533406Y-8859995D01*
G01X6536454Y-8850851D01*
G01X6542550Y-8844501D01*
G01X6551948Y-8841453D01*
G01X6561346Y-8841453D01*
G01X6570490Y-8844501D01*
G01X6573538Y-8847803D01*
G01X6576586Y-8853899D01*
G01X7599502Y-6188398D02*
G01X7605852Y-6185350D01*
G01X7611948Y-6179000D01*
G01X7614996Y-6172904D01*
G01X7614996Y-6160458D01*
G01X7611948Y-6154362D01*
G01X7605852Y-6148012D01*
G01X7599502Y-6144964D01*
G01X7590358Y-6141916D01*
G01X7574864Y-6141916D01*
G01X7565466Y-6144964D01*
G01X7559370Y-6148012D01*
G01X7553020Y-6154362D01*
G01X7549972Y-6160458D01*
G01X7549972Y-6172904D01*
G01X7553020Y-6179000D01*
G01X7559370Y-6185350D01*
G01X7565466Y-6188398D01*
G01X7599502Y-6221672D02*
G01X7602550Y-6221672D01*
G01X7608900Y-6224720D01*
G01X7611948Y-6227768D01*
G01X7614996Y-6233864D01*
G01X7614996Y-6246310D01*
G01X7611948Y-6252660D01*
G01X7608900Y-6255708D01*
G01X7602550Y-6258756D01*
G01X7596454Y-6258756D01*
G01X7590358Y-6255708D01*
G01X7580960Y-6249358D01*
G01X7549972Y-6218624D01*
G01X7549972Y-6261804D01*
G01X7605852Y-6329114D02*
G01X7611948Y-6326066D01*
G01X7614996Y-6316668D01*
G01X7614996Y-6310572D01*
G01X7611948Y-6301174D01*
G01X7602550Y-6295078D01*
G01X7587310Y-6292030D01*
G01X7571816Y-6292030D01*
G01X7559370Y-6295078D01*
G01X7553020Y-6301174D01*
G01X7549972Y-6310572D01*
G01X7549972Y-6313620D01*
G01X7553020Y-6322764D01*
G01X7559370Y-6329114D01*
G01X7568514Y-6332162D01*
G01X7571816Y-6332162D01*
G01X7580960Y-6329114D01*
G01X7587310Y-6322764D01*
G01X7590358Y-6313620D01*
G01X7590358Y-6310572D01*
G01X7587310Y-6301174D01*
G01X7580960Y-6295078D01*
G01X7571816Y-6292030D01*
G01X1985119Y-5297091D02*
G01X1920095Y-5297091D01*
G01X1985119Y-5297091D02*
G01X1985119Y-5325031D01*
G01X1982071Y-5334175D01*
G01X1979023Y-5337223D01*
G01X1972673Y-5340525D01*
G01X1966577Y-5340525D01*
G01X1960481Y-5337223D01*
G01X1957433Y-5334175D01*
G01X1954131Y-5325031D01*
G01X1954131Y-5297091D01*
G01X1954131Y-5318681D02*
G01X1920095Y-5340525D01*
G01X1969625Y-5373799D02*
G01X1972673Y-5373799D01*
G01X1979023Y-5376847D01*
G01X1982071Y-5379895D01*
G01X1985119Y-5385991D01*
G01X1985119Y-5398437D01*
G01X1982071Y-5404787D01*
G01X1979023Y-5407835D01*
G01X1972673Y-5410883D01*
G01X1966577Y-5410883D01*
G01X1960481Y-5407835D01*
G01X1951083Y-5401485D01*
G01X1920095Y-5370751D01*
G01X1920095Y-5413931D01*
G01X1985119Y-5481241D02*
G01X1985119Y-5450253D01*
G01X1957433Y-5447205D01*
G01X1960481Y-5450253D01*
G01X1963529Y-5459397D01*
G01X1963529Y-5468795D01*
G01X1960481Y-5478193D01*
G01X1954131Y-5484289D01*
G01X1944987Y-5487337D01*
G01X1938637Y-5487337D01*
G01X1929493Y-5484289D01*
G01X1923143Y-5478193D01*
G01X1920095Y-5468795D01*
G01X1920095Y-5459397D01*
G01X1923143Y-5450253D01*
G01X1926445Y-5447205D01*
G01X1932541Y-5444157D01*
G01X1558048Y-5608752D02*
G01X1493024Y-5608752D01*
G01X1558048Y-5608752D02*
G01X1558048Y-5636692D01*
G01X1555000Y-5645836D01*
G01X1551952Y-5648884D01*
G01X1545602Y-5652186D01*
G01X1539506Y-5652186D01*
G01X1533410Y-5648884D01*
G01X1530362Y-5645836D01*
G01X1527060Y-5636692D01*
G01X1527060Y-5608752D01*
G01X1527060Y-5630342D02*
G01X1493024Y-5652186D01*
G01X1542554Y-5685460D02*
G01X1545602Y-5685460D01*
G01X1551952Y-5688508D01*
G01X1555000Y-5691556D01*
G01X1558048Y-5697652D01*
G01X1558048Y-5710098D01*
G01X1555000Y-5716448D01*
G01X1551952Y-5719496D01*
G01X1545602Y-5722544D01*
G01X1539506Y-5722544D01*
G01X1533410Y-5719496D01*
G01X1524012Y-5713146D01*
G01X1493024Y-5682412D01*
G01X1493024Y-5725592D01*
G01X1558048Y-5786552D02*
G01X1514868Y-5755818D01*
G01X1514868Y-5802046D01*
G01X1558048Y-5786552D02*
G01X1493024Y-5786552D01*
G01X1238585Y-4548143D02*
G01X1173561Y-4548143D01*
G01X1238585Y-4548143D02*
G01X1238585Y-4576083D01*
G01X1235537Y-4585227D01*
G01X1232489Y-4588275D01*
G01X1226139Y-4591577D01*
G01X1216995Y-4591577D01*
G01X1210899Y-4588275D01*
G01X1207597Y-4585227D01*
G01X1204549Y-4576083D01*
G01X1204549Y-4548143D01*
G01X1238585Y-4627899D02*
G01X1238585Y-4661935D01*
G01X1213947Y-4643393D01*
G01X1213947Y-4652537D01*
G01X1210899Y-4658887D01*
G01X1207597Y-4661935D01*
G01X1198453Y-4664983D01*
G01X1192103Y-4664983D01*
G01X1182959Y-4661935D01*
G01X1176609Y-4655839D01*
G01X1173561Y-4646441D01*
G01X1173561Y-4637043D01*
G01X1176609Y-4627899D01*
G01X1179911Y-4624851D01*
G01X1186007Y-4621803D01*
G01X7396867Y-8795948D02*
G01X7461891Y-8795948D01*
G01X7396867Y-8795948D02*
G01X7396867Y-8774358D01*
G01X7399915Y-8764960D01*
G01X7406011Y-8758864D01*
G01X7412361Y-8755816D01*
G01X7421505Y-8752514D01*
G01X7436999Y-8752514D01*
G01X7446397Y-8755816D01*
G01X7452493Y-8758864D01*
G01X7458843Y-8764960D01*
G01X7461891Y-8774358D01*
G01X7461891Y-8795948D01*
G01X7412361Y-8676060D02*
G01X7406011Y-8679108D01*
G01X7399915Y-8685204D01*
G01X7396867Y-8691554D01*
G01X7396867Y-8703746D01*
G01X7399915Y-8710096D01*
G01X7406011Y-8716192D01*
G01X7412361Y-8719240D01*
G01X7421505Y-8722288D01*
G01X7436999Y-8722288D01*
G01X7446397Y-8719240D01*
G01X7452493Y-8716192D01*
G01X7458843Y-8710096D01*
G01X7461891Y-8703746D01*
G01X7461891Y-8691554D01*
G01X7458843Y-8685204D01*
G01X7452493Y-8679108D01*
G01X7446397Y-8676060D01*
G01X7409313Y-8645834D02*
G01X7406011Y-8639738D01*
G01X7396867Y-8630594D01*
G01X7461891Y-8630594D01*
G01X6750177Y-5032833D02*
G01X6750177Y-5097857D01*
G01X6750177Y-5032833D02*
G01X6778117Y-5032833D01*
G01X6787261Y-5035881D01*
G01X6790309Y-5038929D01*
G01X6793611Y-5045279D01*
G01X6793611Y-5051375D01*
G01X6790309Y-5057471D01*
G01X6787261Y-5060519D01*
G01X6778117Y-5063821D01*
G01X6750177Y-5063821D01*
G01X6771767Y-5063821D02*
G01X6793611Y-5097857D01*
G01X6829933Y-5032833D02*
G01X6863969Y-5032833D01*
G01X6845427Y-5057471D01*
G01X6854571Y-5057471D01*
G01X6860921Y-5060519D01*
G01X6863969Y-5063821D01*
G01X6867017Y-5072965D01*
G01X6867017Y-5079315D01*
G01X6863969Y-5088459D01*
G01X6857873Y-5094809D01*
G01X6848475Y-5097857D01*
G01X6839077Y-5097857D01*
G01X6829933Y-5094809D01*
G01X6826885Y-5091507D01*
G01X6823837Y-5085411D01*
G01X6900291Y-5048327D02*
G01X6900291Y-5045279D01*
G01X6903339Y-5038929D01*
G01X6906387Y-5035881D01*
G01X6912483Y-5032833D01*
G01X6924929Y-5032833D01*
G01X6931279Y-5035881D01*
G01X6934327Y-5038929D01*
G01X6937375Y-5045279D01*
G01X6937375Y-5051375D01*
G01X6934327Y-5057471D01*
G01X6927977Y-5066869D01*
G01X6897243Y-5097857D01*
G01X6940423Y-5097857D01*
G01X6775577Y-4458716D02*
G01X6775577Y-4523740D01*
G01X6775577Y-4458716D02*
G01X6803517Y-4458716D01*
G01X6812661Y-4461764D01*
G01X6815709Y-4464812D01*
G01X6819011Y-4471162D01*
G01X6819011Y-4477258D01*
G01X6815709Y-4483354D01*
G01X6812661Y-4486402D01*
G01X6803517Y-4489704D01*
G01X6775577Y-4489704D01*
G01X6797167Y-4489704D02*
G01X6819011Y-4523740D01*
G01X6855333Y-4458716D02*
G01X6889369Y-4458716D01*
G01X6870827Y-4483354D01*
G01X6879971Y-4483354D01*
G01X6886321Y-4486402D01*
G01X6889369Y-4489704D01*
G01X6892417Y-4498848D01*
G01X6892417Y-4505198D01*
G01X6889369Y-4514342D01*
G01X6883273Y-4520692D01*
G01X6873875Y-4523740D01*
G01X6864477Y-4523740D01*
G01X6855333Y-4520692D01*
G01X6852285Y-4517390D01*
G01X6849237Y-4511294D01*
G01X6941185Y-4458716D02*
G01X6931787Y-4461764D01*
G01X6925691Y-4471162D01*
G01X6922643Y-4486402D01*
G01X6922643Y-4495800D01*
G01X6925691Y-4511294D01*
G01X6931787Y-4520692D01*
G01X6941185Y-4523740D01*
G01X6947281Y-4523740D01*
G01X6956679Y-4520692D01*
G01X6962775Y-4511294D01*
G01X6965823Y-4495800D01*
G01X6965823Y-4486402D01*
G01X6962775Y-4471162D01*
G01X6956679Y-4461764D01*
G01X6947281Y-4458716D01*
G01X6941185Y-4458716D01*
G01X8559091Y-987425D02*
G01X8565441Y-984377D01*
G01X8571537Y-978027D01*
G01X8574585Y-971931D01*
G01X8574585Y-959485D01*
G01X8571537Y-953389D01*
G01X8565441Y-947039D01*
G01X8559091Y-943991D01*
G01X8549947Y-940943D01*
G01X8534453Y-940943D01*
G01X8525055Y-943991D01*
G01X8518959Y-947039D01*
G01X8512609Y-953389D01*
G01X8509561Y-959485D01*
G01X8509561Y-971931D01*
G01X8512609Y-978027D01*
G01X8518959Y-984377D01*
G01X8525055Y-987425D01*
G01X8562139Y-1017651D02*
G01X8565441Y-1023747D01*
G01X8574585Y-1032891D01*
G01X8509561Y-1032891D01*
G01X8562139Y-1063117D02*
G01X8565441Y-1069213D01*
G01X8574585Y-1078357D01*
G01X8509561Y-1078357D01*
G01X8543285Y-1184533D02*
G01X8549635Y-1181485D01*
G01X8555731Y-1175135D01*
G01X8558779Y-1169039D01*
G01X8558779Y-1156593D01*
G01X8555731Y-1150497D01*
G01X8549635Y-1144147D01*
G01X8543285Y-1141099D01*
G01X8534141Y-1138051D01*
G01X8518647Y-1138051D01*
G01X8509249Y-1141099D01*
G01X8503153Y-1144147D01*
G01X8496803Y-1150497D01*
G01X8493755Y-1156593D01*
G01X8493755Y-1169039D01*
G01X8496803Y-1175135D01*
G01X8503153Y-1181485D01*
G01X8509249Y-1184533D01*
G01X8546333Y-1214759D02*
G01X8549635Y-1220855D01*
G01X8558779Y-1229999D01*
G01X8493755Y-1229999D01*
G01X8549635Y-1297309D02*
G01X8555731Y-1294261D01*
G01X8558779Y-1284863D01*
G01X8558779Y-1278767D01*
G01X8555731Y-1269369D01*
G01X8546333Y-1263273D01*
G01X8531093Y-1260225D01*
G01X8515599Y-1260225D01*
G01X8503153Y-1263273D01*
G01X8496803Y-1269369D01*
G01X8493755Y-1278767D01*
G01X8493755Y-1281815D01*
G01X8496803Y-1290959D01*
G01X8503153Y-1297309D01*
G01X8512297Y-1300357D01*
G01X8515599Y-1300357D01*
G01X8524743Y-1297309D01*
G01X8531093Y-1290959D01*
G01X8534141Y-1281815D01*
G01X8534141Y-1278767D01*
G01X8531093Y-1269369D01*
G01X8524743Y-1263273D01*
G01X8515599Y-1260225D01*
G01X8594085Y-1906909D02*
G01X8600435Y-1903861D01*
G01X8606531Y-1897511D01*
G01X8609579Y-1891415D01*
G01X8609579Y-1878969D01*
G01X8606531Y-1872873D01*
G01X8600435Y-1866523D01*
G01X8594085Y-1863475D01*
G01X8584941Y-1860427D01*
G01X8569447Y-1860427D01*
G01X8560049Y-1863475D01*
G01X8553953Y-1866523D01*
G01X8547603Y-1872873D01*
G01X8544555Y-1878969D01*
G01X8544555Y-1891415D01*
G01X8547603Y-1897511D01*
G01X8553953Y-1903861D01*
G01X8560049Y-1906909D01*
G01X8597133Y-1937135D02*
G01X8600435Y-1943231D01*
G01X8609579Y-1952375D01*
G01X8544555Y-1952375D01*
G01X8609579Y-2001143D02*
G01X8606531Y-1991745D01*
G01X8597133Y-1985649D01*
G01X8581893Y-1982601D01*
G01X8572495Y-1982601D01*
G01X8557001Y-1985649D01*
G01X8547603Y-1991745D01*
G01X8544555Y-2001143D01*
G01X8544555Y-2007239D01*
G01X8547603Y-2016637D01*
G01X8557001Y-2022733D01*
G01X8572495Y-2025781D01*
G01X8581893Y-2025781D01*
G01X8597133Y-2022733D01*
G01X8606531Y-2016637D01*
G01X8609579Y-2007239D01*
G01X8609579Y-2001143D01*
G01X8587588Y-1640205D02*
G01X8593938Y-1637157D01*
G01X8600034Y-1630807D01*
G01X8603082Y-1624711D01*
G01X8603082Y-1612265D01*
G01X8600034Y-1606169D01*
G01X8593938Y-1599819D01*
G01X8587588Y-1596771D01*
G01X8578444Y-1593723D01*
G01X8562950Y-1593723D01*
G01X8553552Y-1596771D01*
G01X8547456Y-1599819D01*
G01X8541106Y-1606169D01*
G01X8538058Y-1612265D01*
G01X8538058Y-1624711D01*
G01X8541106Y-1630807D01*
G01X8547456Y-1637157D01*
G01X8553552Y-1640205D01*
G01X8590636Y-1670431D02*
G01X8593938Y-1676527D01*
G01X8603082Y-1685671D01*
G01X8538058Y-1685671D01*
G01X8603082Y-1759077D02*
G01X8538058Y-1728089D01*
G01X8603082Y-1715897D02*
G01X8603082Y-1759077D01*
G04 Text End*

G04 PolygonModel Start*
G54D11*
G01X6423576Y-7881461D02*
G01X6343579Y-7881461D01*
G01X6479621Y-7881507D02*
G01X6559619Y-7881507D01*
G01X6423576Y-7739493D02*
G01X6343579Y-7739493D01*
G01X6479621Y-7739541D02*
G01X6559619Y-7739541D01*
G01X6312604Y-7850478D02*
G01X6312604Y-7770473D01*
G01X6590596Y-7770527D02*
G01X6590596Y-7850529D01*
G01X6559614Y-7739541D02*
G02X6590596Y-7770527I0J-30983D01*
G01X6590596Y-7850524D02*
G02X6559614Y-7881507I-30983J0D01*
G01X6343584Y-7881461D02*
G02X6312604Y-7850478I3J30983D01*
G01X6312604Y-7770481D02*
G02X6343584Y-7739493I30983J5D01*
G01X6547961Y-6682824D02*
G01X6547961Y-6762821D01*
G01X6548007Y-6626779D02*
G01X6548007Y-6546781D01*
G01X6405993Y-6682824D02*
G01X6405993Y-6762821D01*
G01X6406041Y-6626779D02*
G01X6406041Y-6546781D01*
G01X6516978Y-6793796D02*
G01X6436973Y-6793796D01*
G01X6437027Y-6515804D02*
G01X6517029Y-6515804D01*
G01X6406041Y-6546786D02*
G02X6437027Y-6515804I30983J0D01*
G01X6517024Y-6515804D02*
G02X6548007Y-6546786I0J-30983D01*
G01X6547961Y-6762816D02*
G02X6516978Y-6793796I-30983J3D01*
G01X6436981Y-6793796D02*
G02X6405993Y-6762816I-5J30983D01*
G01X5250214Y-1516471D02*
G01X5250214Y-1436474D01*
G01X5250169Y-1572516D02*
G01X5250169Y-1652513D01*
G01X5392183Y-1516471D02*
G01X5392183Y-1436474D01*
G01X5392134Y-1572516D02*
G01X5392134Y-1652513D01*
G01X5281197Y-1405498D02*
G01X5361202Y-1405498D01*
G01X5361149Y-1683491D02*
G01X5281146Y-1683491D01*
G01X5392134Y-1652508D02*
G02X5361149Y-1683491I-30983J0D01*
G01X5281151Y-1683491D02*
G02X5250169Y-1652508I0J30983D01*
G01X5250214Y-1436479D02*
G02X5281197Y-1405498I30983J-3D01*
G01X5361195Y-1405498D02*
G02X5392183Y-1436479I5J-30983D01*
G01X5675817Y-1522973D02*
G01X5675817Y-1442976D01*
G01X5675771Y-1579018D02*
G01X5675771Y-1659016D01*
G01X5817785Y-1522973D02*
G01X5817785Y-1442976D01*
G01X5817737Y-1579018D02*
G01X5817737Y-1659016D01*
G01X5706800Y-1412001D02*
G01X5786805Y-1412001D01*
G01X5786751Y-1689993D02*
G01X5706749Y-1689993D01*
G01X5817737Y-1659011D02*
G02X5786751Y-1689993I-30983J0D01*
G01X5706754Y-1689993D02*
G02X5675771Y-1659011I0J30983D01*
G01X5675817Y-1442981D02*
G02X5706800Y-1412001I30983J-3D01*
G01X5786797Y-1412001D02*
G02X5817785Y-1442981I5J-30983D01*
G01X6647214Y-1732066D02*
G01X6647214Y-1652069D01*
G01X6647169Y-1788111D02*
G01X6647169Y-1868108D01*
G01X6789183Y-1732066D02*
G01X6789183Y-1652069D01*
G01X6789134Y-1788111D02*
G01X6789134Y-1868108D01*
G01X6678197Y-1621093D02*
G01X6758202Y-1621093D01*
G01X6758149Y-1899086D02*
G01X6678146Y-1899086D01*
G01X6789134Y-1868103D02*
G02X6758149Y-1899086I-30983J0D01*
G01X6678151Y-1899086D02*
G02X6647169Y-1868103I0J30983D01*
G01X6647214Y-1652074D02*
G02X6678197Y-1621093I30983J-3D01*
G01X6758195Y-1621093D02*
G02X6789183Y-1652074I5J-30983D01*
G01X6977663Y-1737315D02*
G01X6977663Y-1657318D01*
G01X6977617Y-1793360D02*
G01X6977617Y-1873357D01*
G01X7119631Y-1737315D02*
G01X7119631Y-1657318D01*
G01X7119583Y-1793360D02*
G01X7119583Y-1873357D01*
G01X7008646Y-1626342D02*
G01X7088651Y-1626342D01*
G01X7088598Y-1904335D02*
G01X7008595Y-1904335D01*
G01X7119583Y-1873352D02*
G02X7088598Y-1904335I-30983J0D01*
G01X7008600Y-1904335D02*
G02X6977617Y-1873352I0J30983D01*
G01X6977663Y-1657323D02*
G02X7008646Y-1626342I30983J-3D01*
G01X7088643Y-1626342D02*
G02X7119631Y-1657323I5J-30983D01*
G01X8308419Y-1364143D02*
G01X8388416Y-1364143D01*
G01X8252374Y-1364097D02*
G01X8172376Y-1364097D01*
G01X8308419Y-1506111D02*
G01X8388416Y-1506111D01*
G01X8252374Y-1506063D02*
G01X8172376Y-1506063D01*
G01X8419391Y-1395125D02*
G01X8419391Y-1475130D01*
G01X8141399Y-1475077D02*
G01X8141399Y-1395075D01*
G01X8172381Y-1506063D02*
G02X8141399Y-1475077I0J30983D01*
G01X8141399Y-1395080D02*
G02X8172381Y-1364097I30983J0D01*
G01X8388411Y-1364143D02*
G02X8419391Y-1395125I-3J-30983D01*
G01X8419391Y-1475123D02*
G02X8388411Y-1506111I-30983J-5D01*
G01X8321119Y-1834043D02*
G01X8401116Y-1834043D01*
G01X8265074Y-1833997D02*
G01X8185076Y-1833997D01*
G01X8321119Y-1976011D02*
G01X8401116Y-1976011D01*
G01X8265074Y-1975963D02*
G01X8185076Y-1975963D01*
G01X8432091Y-1865025D02*
G01X8432091Y-1945030D01*
G01X8154099Y-1944977D02*
G01X8154099Y-1864975D01*
G01X8185081Y-1975963D02*
G02X8154099Y-1944977I0J30983D01*
G01X8154099Y-1864980D02*
G02X8185081Y-1833997I30983J0D01*
G01X8401111Y-1834043D02*
G02X8432091Y-1865025I-3J-30983D01*
G01X8432091Y-1945023D02*
G02X8401111Y-1976011I-30983J-5D01*
G01X8298825Y-925989D02*
G01X8378822Y-925989D01*
G01X8242780Y-925943D02*
G01X8162783Y-925943D01*
G01X8298825Y-1067957D02*
G01X8378822Y-1067957D01*
G01X8242780Y-1067909D02*
G01X8162783Y-1067909D01*
G01X8409798Y-956972D02*
G01X8409798Y-1036977D01*
G01X8131805Y-1036923D02*
G01X8131805Y-956921D01*
G01X8162788Y-1067909D02*
G02X8131805Y-1036923I0J30983D01*
G01X8131805Y-956926D02*
G02X8162788Y-925943I30983J0D01*
G01X8378817Y-925989D02*
G02X8409798Y-956972I-3J-30983D01*
G01X8409798Y-1036969D02*
G02X8378817Y-1067957I-30983J-5D01*
G01X4319109Y-5323924D02*
G01X4319109Y-5403921D01*
G01X4319155Y-5267879D02*
G01X4319155Y-5187881D01*
G01X4177141Y-5323924D02*
G01X4177141Y-5403921D01*
G01X4177189Y-5267879D02*
G01X4177189Y-5187881D01*
G01X4288126Y-5434896D02*
G01X4208122Y-5434896D01*
G01X4208175Y-5156904D02*
G01X4288177Y-5156904D01*
G01X4177189Y-5187886D02*
G02X4208175Y-5156904I30983J0D01*
G01X4288172Y-5156904D02*
G02X4319155Y-5187886I0J-30983D01*
G01X4319109Y-5403916D02*
G02X4288126Y-5434896I-30983J3D01*
G01X4208129Y-5434896D02*
G02X4177141Y-5403916I-5J30983D01*
G01X4824891Y-5312179D02*
G01X4824891Y-5232182D01*
G01X4824845Y-5368224D02*
G01X4824845Y-5448221D01*
G01X4966859Y-5312179D02*
G01X4966859Y-5232182D01*
G01X4966811Y-5368224D02*
G01X4966811Y-5448221D01*
G01X4855874Y-5201206D02*
G01X4935878Y-5201206D01*
G01X4935825Y-5479199D02*
G01X4855823Y-5479199D01*
G01X4966811Y-5448216D02*
G02X4935825Y-5479199I-30983J0D01*
G01X4855828Y-5479199D02*
G02X4824845Y-5448216I0J30983D01*
G01X4824891Y-5232187D02*
G02X4855874Y-5201206I30983J-3D01*
G01X4935871Y-5201206D02*
G02X4966859Y-5232187I5J-30983D01*
G01X3977719Y-515837D02*
G01X4057716Y-515837D01*
G01X3921674Y-515791D02*
G01X3841676Y-515791D01*
G01X3977719Y-657805D02*
G01X4057716Y-657805D01*
G01X3921674Y-657757D02*
G01X3841676Y-657757D01*
G01X4088691Y-546820D02*
G01X4088691Y-626825D01*
G01X3810699Y-626772D02*
G01X3810699Y-546769D01*
G01X3841681Y-657757D02*
G02X3810699Y-626772I0J30983D01*
G01X3810699Y-546774D02*
G02X3841681Y-515791I30983J0D01*
G01X4057711Y-515837D02*
G02X4088691Y-546820I-3J-30983D01*
G01X4088691Y-626817D02*
G02X4057711Y-657805I-30983J-5D01*
G01X8308419Y-1135543D02*
G01X8388416Y-1135543D01*
G01X8252374Y-1135497D02*
G01X8172376Y-1135497D01*
G01X8308419Y-1277511D02*
G01X8388416Y-1277511D01*
G01X8252374Y-1277463D02*
G01X8172376Y-1277463D01*
G01X8419391Y-1166525D02*
G01X8419391Y-1246530D01*
G01X8141399Y-1246477D02*
G01X8141399Y-1166475D01*
G01X8172381Y-1277463D02*
G02X8141399Y-1246477I0J30983D01*
G01X8141399Y-1166480D02*
G02X8172381Y-1135497I30983J0D01*
G01X8388411Y-1135543D02*
G02X8419391Y-1166525I-3J-30983D01*
G01X8419391Y-1246523D02*
G02X8388411Y-1277511I-30983J-5D01*
G01X8308419Y-1592743D02*
G01X8388416Y-1592743D01*
G01X8252374Y-1592697D02*
G01X8172376Y-1592697D01*
G01X8308419Y-1734711D02*
G01X8388416Y-1734711D01*
G01X8252374Y-1734663D02*
G01X8172376Y-1734663D01*
G01X8419391Y-1623725D02*
G01X8419391Y-1703730D01*
G01X8141399Y-1703677D02*
G01X8141399Y-1623675D01*
G01X8172381Y-1734663D02*
G02X8141399Y-1703677I0J30983D01*
G01X8141399Y-1623680D02*
G02X8172381Y-1592697I30983J0D01*
G01X8388411Y-1592743D02*
G02X8419391Y-1623725I-3J-30983D01*
G01X8419391Y-1703723D02*
G02X8388411Y-1734711I-30983J-5D01*
G54D12*
G01X3150499Y-8828749D02*
G01X3150499Y-8569049D01*
G54D13*
G01X3306338Y-8700149D02*
G01X3179338Y-8700149D01*
G01X3280938Y-8700149D02*
G01X3280938Y-8662049D01*
G01X3280938Y-8662049D02*
G01X3204738Y-8700149D01*
G01X3204738Y-8700149D02*
G01X3204738Y-8662049D01*
G01X3280938Y-8700149D02*
G01X3280938Y-8738249D01*
G01X3280938Y-8738249D02*
G01X3204738Y-8700149D01*
G01X3204738Y-8700149D02*
G01X3204738Y-8738249D01*
G54D12*
G01X3468187Y-8603251D02*
G01X3468187Y-8570251D01*
G01X3468187Y-8570251D02*
G01X3033489Y-8570251D01*
G01X3033489Y-8570251D02*
G01X3033489Y-8601351D01*
G01X3467186Y-8794149D02*
G01X3467186Y-8829951D01*
G01X3467186Y-8829951D02*
G01X3032587Y-8829951D01*
G01X3032587Y-8829951D02*
G01X3032587Y-8798848D01*
G54D11*
G01X3947348Y-408995D02*
G01X3187700Y-408995D01*
G01X3187700Y-408995D02*
G01X3187700Y-154995D01*
G01X3187700Y-154995D02*
G01X4203700Y-154995D01*
G01X4203700Y-154995D02*
G01X4203700Y-408995D01*
G01X4203700Y-408995D02*
G01X3947348Y-408995D01*
G01X3947348Y-408995D02*
G01X3947348Y-154995D01*
G01X4799587Y-6375400D02*
G01X4483100Y-6375400D01*
G01X5385813Y-7594600D02*
G01X5702300Y-7594600D01*
G01X5702300Y-7594600D02*
G01X5702300Y-6375400D01*
G01X5702300Y-6375400D02*
G01X5385813Y-6375400D01*
G01X4483100Y-6375400D02*
G01X4483100Y-7594600D01*
G01X4483100Y-7594600D02*
G01X4799587Y-7594600D01*
G54D14*
G01X6705267Y-2821288D02*
G01X6705267Y-2822304D01*
G01X6705267Y-2822304D02*
G01X6672247Y-2855324D01*
G01X6637449Y-2821288D02*
G01X6638465Y-2821288D01*
G01X6638465Y-2821288D02*
G01X6672247Y-2855324D01*
G01X6637449Y-2821288D02*
G01X6705267Y-2821288D01*
G01X6597317Y-2819256D02*
G01X6597317Y-2704448D01*
G01X6747431Y-2819256D02*
G01X6747431Y-2704448D01*
G01X6597317Y-2704448D02*
G01X6745399Y-2704448D01*
G01X6747685Y-2857356D02*
G01X6747685Y-2962258D01*
G01X6707553Y-2992230D02*
G01X6717713Y-2992230D01*
G01X6717713Y-2992230D02*
G01X6747685Y-2962258D01*
G01X6637703Y-2992230D02*
G01X6707553Y-2992230D01*
G01X6637703Y-2992230D02*
G01X6627543Y-2992230D01*
G01X6627543Y-2992230D02*
G01X6597571Y-2962258D01*
G01X6597571Y-2857356D02*
G01X6597571Y-2962258D01*
G01X6672247Y-2821288D02*
G01X6672247Y-2855324D01*
G54D10*
G01X3598621Y-4663460D02*
G01X3694509Y-4663460D01*
G01X3694509Y-4663460D02*
G01X3694509Y-4531340D01*
G01X3694509Y-4531340D02*
G01X3598621Y-4531340D01*
G01X3513379Y-4663460D02*
G01X3417491Y-4663460D01*
G01X3417491Y-4663460D02*
G01X3417491Y-4531340D01*
G01X3417491Y-4531340D02*
G01X3513379Y-4531340D01*
G01X6725608Y-3214785D02*
G01X6725608Y-3118897D01*
G01X6725608Y-3118897D02*
G01X6593487Y-3118897D01*
G01X6593487Y-3118897D02*
G01X6593487Y-3214785D01*
G01X6725608Y-3300027D02*
G01X6725608Y-3395914D01*
G01X6725608Y-3395914D02*
G01X6593487Y-3395914D01*
G01X6593487Y-3395914D02*
G01X6593487Y-3300027D01*
G54D11*
G01X3695703Y-7572624D02*
G01X3695703Y-7726294D01*
G01X3695703Y-7726294D02*
G01X2679703Y-7726294D01*
G01X2679703Y-7726294D02*
G01X2679703Y-7572624D01*
G54D10*
G01X6593592Y-1968027D02*
G01X5928351Y-1968027D01*
G01X5928351Y-1968027D02*
G01X5928351Y-1673748D01*
G01X5928351Y-1673748D02*
G01X6593592Y-1673748D01*
G01X6593592Y-1673748D02*
G01X6593592Y-1968027D01*
G54D16*
G01X4210440Y-4165990D02*
G01X4830200Y-4165990D01*
G01X4830200Y-4165990D02*
G01X4830200Y-4831470D01*
G01X4830200Y-4831470D02*
G01X4167260Y-4831470D01*
G01X4167260Y-4831470D02*
G01X4167260Y-4165990D01*
G01X4167260Y-4165990D02*
G01X4243460Y-4165990D01*
G54D17*
G01X4161001Y-4905999D02*
G03X4161128Y-4945998I127J-20000D01*
G03X4161255Y-4905999I0J20000D01*
G54D10*
G01X4734779Y-5512730D02*
G01X4399057Y-5512730D01*
G01X4399057Y-5512730D02*
G01X4399057Y-5107010D01*
G01X4399057Y-5107010D02*
G01X4734779Y-5107010D01*
G01X4734779Y-5107010D02*
G01X4734779Y-5512730D01*
G01X4591919Y-5535590D02*
G01X4757639Y-5535590D01*
G01X4757639Y-5535590D02*
G01X4757639Y-5349870D01*
G54D11*
G01X5158819Y-779943D02*
G01X5238816Y-779943D01*
G01X5102774Y-779897D02*
G01X5022776Y-779897D01*
G01X5158819Y-921911D02*
G01X5238816Y-921911D01*
G01X5102774Y-921863D02*
G01X5022776Y-921863D01*
G01X5269791Y-810925D02*
G01X5269791Y-890930D01*
G01X4991799Y-890877D02*
G01X4991799Y-810875D01*
G01X5022781Y-921863D02*
G02X4991799Y-890877I0J30983D01*
G01X4991799Y-810880D02*
G02X5022781Y-779897I30983J0D01*
G01X5238811Y-779943D02*
G02X5269791Y-810925I-3J-30983D01*
G01X5269791Y-890923D02*
G02X5238811Y-921911I-30983J-5D01*
G01X8221763Y-2504519D02*
G01X8221763Y-2584516D01*
G01X8221809Y-2448474D02*
G01X8221809Y-2368476D01*
G01X8079795Y-2504519D02*
G01X8079795Y-2584516D01*
G01X8079843Y-2448474D02*
G01X8079843Y-2368476D01*
G01X8190780Y-2615491D02*
G01X8110775Y-2615491D01*
G01X8110828Y-2337498D02*
G01X8190831Y-2337498D01*
G01X8079843Y-2368481D02*
G02X8110828Y-2337498I30983J0D01*
G01X8190826Y-2337498D02*
G02X8221809Y-2368481I0J-30983D01*
G01X8221763Y-2584511D02*
G02X8190780Y-2615491I-30983J3D01*
G01X8110783Y-2615491D02*
G02X8079795Y-2584511I-5J30983D01*
G01X7233761Y-4777824D02*
G01X7233761Y-4857821D01*
G01X7233807Y-4721779D02*
G01X7233807Y-4641781D01*
G01X7091793Y-4777824D02*
G01X7091793Y-4857821D01*
G01X7091841Y-4721779D02*
G01X7091841Y-4641781D01*
G01X7202778Y-4888796D02*
G01X7122773Y-4888796D01*
G01X7122827Y-4610804D02*
G01X7202829Y-4610804D01*
G01X7091841Y-4641786D02*
G02X7122827Y-4610804I30983J0D01*
G01X7202824Y-4610804D02*
G02X7233807Y-4641786I0J-30983D01*
G01X7233761Y-4857816D02*
G02X7202778Y-4888796I-30983J3D01*
G01X7122781Y-4888796D02*
G02X7091793Y-4857816I-5J30983D01*
G01X5092346Y-110548D02*
G01X5092346Y-186748D01*
G01X5092346Y-186748D02*
G01X4952646Y-186748D01*
G01X4952646Y-186748D02*
G01X4952646Y-618548D01*
G01X4952646Y-618548D02*
G01X6019446Y-618548D01*
G01X6019446Y-618548D02*
G01X6019446Y-186748D01*
G01X6019446Y-186748D02*
G01X5917846Y-186748D01*
G01X5917846Y-186748D02*
G01X5917846Y-110548D01*
G01X5917846Y-110548D02*
G01X5917846Y-97848D01*
G01X5752746Y-97848D02*
G01X5752746Y-186748D01*
G01X5752746Y-186748D02*
G01X5244746Y-186748D01*
G01X5244746Y-186748D02*
G01X5244746Y-97848D01*
G01X6121046Y-694748D02*
G01X4876446Y-694748D01*
G01X4876446Y-97848D01*
G01X6121046Y-97848D01*
G01X6121046Y-694748D01*
G01X8874705Y-2438400D02*
G01X8798505Y-2438400D01*
G01X8798505Y-2438400D02*
G01X8798505Y-2298700D01*
G01X8798505Y-2298700D02*
G01X8366705Y-2298700D01*
G01X8366705Y-2298700D02*
G01X8366705Y-3365500D01*
G01X8366705Y-3365500D02*
G01X8798505Y-3365500D01*
G01X8798505Y-3365500D02*
G01X8798505Y-3263900D01*
G01X8798505Y-3263900D02*
G01X8874705Y-3263900D01*
G01X8874705Y-3263900D02*
G01X8887405Y-3263900D01*
G01X8887405Y-3098800D02*
G01X8798505Y-3098800D01*
G01X8798505Y-3098800D02*
G01X8798505Y-2590800D01*
G01X8798505Y-2590800D02*
G01X8887405Y-2590800D01*
G01X8290505Y-3467100D02*
G01X8290505Y-2222500D01*
G01X8887405Y-2222500D01*
G01X8887405Y-3467100D01*
G01X8290505Y-3467100D01*
G01X97112Y-8291641D02*
G01X97112Y-6767641D01*
G01X957110Y-8287023D02*
G01X957110Y-6763023D01*
G01X1097110Y-8291641D02*
G01X1097110Y-6767641D01*
G01X93873Y-6767641D02*
G01X1093871Y-6767641D01*
G01X97112Y-8130468D02*
G01X394114Y-8130468D01*
G01X394114Y-8130468D02*
G01X394114Y-7924235D01*
G01X394114Y-7924235D02*
G01X97112Y-7924235D01*
G01X97112Y-7110838D02*
G01X394114Y-7110838D01*
G01X394114Y-7110838D02*
G01X394114Y-6904605D01*
G01X394114Y-6904605D02*
G01X97112Y-6904605D01*
G01X97112Y-7617024D02*
G01X394114Y-7617024D01*
G01X394114Y-7617024D02*
G01X394114Y-7410792D01*
G01X394114Y-7410792D02*
G01X97112Y-7410792D01*
G01X94864Y-8291641D02*
G01X1094862Y-8291641D01*
G01X194000Y-8293393D02*
G01X194000Y-6769393D01*
G01X118953Y-6081841D02*
G01X118953Y-4557841D01*
G01X978952Y-6077223D02*
G01X978952Y-4553223D01*
G01X1118951Y-6081841D02*
G01X1118951Y-4557841D01*
G01X115715Y-4557841D02*
G01X1115713Y-4557841D01*
G01X118953Y-5920668D02*
G01X415956Y-5920668D01*
G01X415956Y-5920668D02*
G01X415956Y-5714435D01*
G01X415956Y-5714435D02*
G01X118953Y-5714435D01*
G01X118953Y-4901038D02*
G01X415956Y-4901038D01*
G01X415956Y-4901038D02*
G01X415956Y-4694805D01*
G01X415956Y-4694805D02*
G01X118953Y-4694805D01*
G01X118953Y-5407224D02*
G01X415956Y-5407224D01*
G01X415956Y-5407224D02*
G01X415956Y-5200992D01*
G01X415956Y-5200992D02*
G01X118953Y-5200992D01*
G01X116706Y-6081841D02*
G01X1116704Y-6081841D01*
G01X215842Y-6083593D02*
G01X215842Y-4559593D01*
G01X94000Y-4037141D02*
G01X94000Y-2513141D01*
G01X953998Y-4032523D02*
G01X953998Y-2508523D01*
G01X1093998Y-4037141D02*
G01X1093998Y-2513141D01*
G01X90762Y-2513141D02*
G01X1090760Y-2513141D01*
G01X94000Y-3875968D02*
G01X391002Y-3875968D01*
G01X391002Y-3875968D02*
G01X391002Y-3669735D01*
G01X391002Y-3669735D02*
G01X94000Y-3669735D01*
G01X94000Y-2856338D02*
G01X391002Y-2856338D01*
G01X391002Y-2856338D02*
G01X391002Y-2650105D01*
G01X391002Y-2650105D02*
G01X94000Y-2650105D01*
G01X94000Y-3362524D02*
G01X391002Y-3362524D01*
G01X391002Y-3362524D02*
G01X391002Y-3156292D01*
G01X391002Y-3156292D02*
G01X94000Y-3156292D01*
G01X91752Y-4037141D02*
G01X1091750Y-4037141D01*
G01X190888Y-4038893D02*
G01X190888Y-2514893D01*
G01X111833Y-1928941D02*
G01X111833Y-404941D01*
G01X971831Y-1924323D02*
G01X971831Y-400323D01*
G01X1111831Y-1928941D02*
G01X1111831Y-404941D01*
G01X108594Y-404941D02*
G01X1108592Y-404941D01*
G01X111833Y-1767768D02*
G01X408835Y-1767768D01*
G01X408835Y-1767768D02*
G01X408835Y-1561535D01*
G01X408835Y-1561535D02*
G01X111833Y-1561535D01*
G01X111833Y-748138D02*
G01X408835Y-748138D01*
G01X408835Y-748138D02*
G01X408835Y-541905D01*
G01X408835Y-541905D02*
G01X111833Y-541905D01*
G01X111833Y-1254324D02*
G01X408835Y-1254324D01*
G01X408835Y-1254324D02*
G01X408835Y-1048092D01*
G01X408835Y-1048092D02*
G01X111833Y-1048092D01*
G01X109585Y-1928941D02*
G01X1109583Y-1928941D01*
G01X208721Y-1930693D02*
G01X208721Y-406693D01*
G01X8944959Y-5461434D02*
G01X8944959Y-4448051D01*
G01X8006206Y-4385434D02*
G01X8031209Y-4445434D01*
G01X8106206Y-4385434D02*
G01X8006206Y-4385434D01*
G01X8081199Y-4445434D02*
G01X8106206Y-4385434D01*
G01X8831208Y-4445434D02*
G01X8856207Y-4385434D01*
G01X8856207Y-4385434D02*
G01X8756204Y-4385434D01*
G01X8756204Y-4385434D02*
G01X8781195Y-4445434D01*
G01X7928959Y-5461434D02*
G01X7928959Y-4448051D01*
G01X7928959Y-5461434D02*
G01X8944959Y-5461434D01*
G01X7929213Y-4445434D02*
G01X8945213Y-4445434D01*
G36*
G01X8931205Y-4653435D02*
G01X8931205Y-4753435D01*
G01X8731206Y-4753435D01*
G01X8731206Y-4803435D01*
G01X8631206Y-4703435D01*
G01X8731206Y-4603435D01*
G01X8731206Y-4653435D01*
G01X8931205Y-4653435D01*
G37*
G36*
G01X8931205Y-5161435D02*
G01X8931205Y-5261435D01*
G01X8731206Y-5261435D01*
G01X8731206Y-5311435D01*
G01X8631206Y-5211435D01*
G01X8731206Y-5111435D01*
G01X8731206Y-5161435D01*
G01X8931205Y-5161435D01*
G37*
G54D10*
G01X1518147Y-7932146D02*
G01X1614034Y-7932146D01*
G01X1614034Y-7932146D02*
G01X1614034Y-7800025D01*
G01X1614034Y-7800025D02*
G01X1518147Y-7800025D01*
G01X1432904Y-7932146D02*
G01X1337017Y-7932146D01*
G01X1337017Y-7932146D02*
G01X1337017Y-7800025D01*
G01X1337017Y-7800025D02*
G01X1432904Y-7800025D01*
G01X1785686Y-7853121D02*
G01X1785686Y-7949009D01*
G01X1785686Y-7949009D02*
G01X1917807Y-7949009D01*
G01X1917807Y-7949009D02*
G01X1917807Y-7853121D01*
G01X1785686Y-7767879D02*
G01X1785686Y-7671991D01*
G01X1785686Y-7671991D02*
G01X1917807Y-7671991D01*
G01X1917807Y-7671991D02*
G01X1917807Y-7767879D01*
G01X1593375Y-5380711D02*
G01X1593375Y-5284823D01*
G01X1593375Y-5284823D02*
G01X1461254Y-5284823D01*
G01X1461254Y-5284823D02*
G01X1461254Y-5380711D01*
G01X1593375Y-5465953D02*
G01X1593375Y-5561841D01*
G01X1593375Y-5561841D02*
G01X1461254Y-5561841D01*
G01X1461254Y-5561841D02*
G01X1461254Y-5465953D01*
G01X1738444Y-5478221D02*
G01X1738444Y-5574109D01*
G01X1738444Y-5574109D02*
G01X1870565Y-5574109D01*
G01X1870565Y-5574109D02*
G01X1870565Y-5478221D01*
G01X1738444Y-5392979D02*
G01X1738444Y-5297091D01*
G01X1738444Y-5297091D02*
G01X1870565Y-5297091D01*
G01X1870565Y-5297091D02*
G01X1870565Y-5392979D01*
G01X1628818Y-3551479D02*
G01X1628818Y-3455591D01*
G01X1628818Y-3455591D02*
G01X1496698Y-3455591D01*
G01X1496698Y-3455591D02*
G01X1496698Y-3551479D01*
G01X1628818Y-3636721D02*
G01X1628818Y-3732609D01*
G01X1628818Y-3732609D02*
G01X1496698Y-3732609D01*
G01X1496698Y-3732609D02*
G01X1496698Y-3636721D01*
G01X1712598Y-3636721D02*
G01X1712598Y-3732609D01*
G01X1712598Y-3732609D02*
G01X1844718Y-3732609D01*
G01X1844718Y-3732609D02*
G01X1844718Y-3636721D01*
G01X1712598Y-3551479D02*
G01X1712598Y-3455591D01*
G01X1712598Y-3455591D02*
G01X1844718Y-3455591D01*
G01X1844718Y-3455591D02*
G01X1844718Y-3551479D01*
G01X1487901Y-1178377D02*
G01X1487901Y-1082490D01*
G01X1487901Y-1082490D02*
G01X1355780Y-1082490D01*
G01X1355780Y-1082490D02*
G01X1355780Y-1178377D01*
G01X1487901Y-1263620D02*
G01X1487901Y-1359507D01*
G01X1487901Y-1359507D02*
G01X1355780Y-1359507D01*
G01X1355780Y-1359507D02*
G01X1355780Y-1263620D01*
G01X1567765Y-1260023D02*
G01X1567765Y-1355910D01*
G01X1567765Y-1355910D02*
G01X1699886Y-1355910D01*
G01X1699886Y-1355910D02*
G01X1699886Y-1260023D01*
G01X1567765Y-1174780D02*
G01X1567765Y-1078893D01*
G01X1567765Y-1078893D02*
G01X1699886Y-1078893D01*
G01X1699886Y-1078893D02*
G01X1699886Y-1174780D01*
G01X6887921Y-4739660D02*
G01X6983809Y-4739660D01*
G01X6983809Y-4739660D02*
G01X6983809Y-4607540D01*
G01X6983809Y-4607540D02*
G01X6887921Y-4607540D01*
G01X6802679Y-4739660D02*
G01X6706791Y-4739660D01*
G01X6706791Y-4739660D02*
G01X6706791Y-4607540D01*
G01X6706791Y-4607540D02*
G01X6802679Y-4607540D01*
G01X6606560Y-4732579D02*
G01X6606560Y-4636691D01*
G01X6606560Y-4636691D02*
G01X6474440Y-4636691D01*
G01X6474440Y-4636691D02*
G01X6474440Y-4732579D01*
G01X6606560Y-4817821D02*
G01X6606560Y-4913709D01*
G01X6606560Y-4913709D02*
G01X6474440Y-4913709D01*
G01X6474440Y-4913709D02*
G01X6474440Y-4817821D01*
G01X6802679Y-4810740D02*
G01X6706791Y-4810740D01*
G01X6706791Y-4810740D02*
G01X6706791Y-4942860D01*
G01X6706791Y-4942860D02*
G01X6802679Y-4942860D01*
G01X6887921Y-4810740D02*
G01X6983809Y-4810740D01*
G01X6983809Y-4810740D02*
G01X6983809Y-4942860D01*
G01X6983809Y-4942860D02*
G01X6887921Y-4942860D01*
G54D11*
G01X5710993Y-4571098D02*
G01X5710993Y-5071097D01*
G01X6010993Y-4571098D02*
G01X6010993Y-5071097D01*
G01X5710993Y-4571098D02*
G01X5788336Y-4571098D01*
G01X6010993Y-4571098D02*
G01X5933622Y-4571098D01*
G01X6010993Y-5071097D02*
G01X5710993Y-5071097D01*
G01X5788336Y-4571098D02*
G03X5933622Y-4571589I72657J3980D01*
G54D10*
G01X5777476Y-8291060D02*
G01X5777476Y-7946677D01*
G01X5777476Y-7946677D02*
G01X6444097Y-7946677D01*
G01X6444097Y-7946677D02*
G01X6617724Y-8120304D01*
G01X6617724Y-8120304D02*
G01X6617724Y-8291060D01*
G01X5777476Y-8447540D02*
G01X5777476Y-8791923D01*
G01X5777476Y-8791923D02*
G01X6444097Y-8791923D01*
G01X6444097Y-8791923D02*
G01X6617724Y-8618296D01*
G01X6617724Y-8618296D02*
G01X6617724Y-8447540D01*
G36*
G01X5810001Y-8190850D02*
G01X5810001Y-8165950D01*
G01X5909600Y-8165950D01*
G01X5909600Y-8190850D01*
G01X5810001Y-8190850D01*
G37*
G36*
G01X6585199Y-8190850D02*
G01X6585199Y-8165950D01*
G01X6485600Y-8165950D01*
G01X6485600Y-8190850D01*
G01X6585199Y-8190850D01*
G37*
G36*
G01X6547851Y-8261401D02*
G01X6547851Y-8095399D01*
G01X6522951Y-8095399D01*
G01X6522951Y-8261401D01*
G01X6547851Y-8261401D01*
G37*
G01X7088899Y-6926862D02*
G01X6825259Y-6928866D01*
G01X6825259Y-6928866D02*
G01X6825259Y-6393180D01*
G01X6825259Y-6393180D02*
G01X6964705Y-6253734D01*
G01X6964705Y-6253734D02*
G01X7094245Y-6255070D01*
G01X7233595Y-6928249D02*
G01X7500442Y-6928917D01*
G01X7500442Y-6928917D02*
G01X7500442Y-6393297D01*
G01X7500442Y-6393297D02*
G01X7360829Y-6253683D01*
G01X7360829Y-6253683D02*
G01X7231405Y-6253683D01*
G36*
G01X7020926Y-6901500D02*
G01X7001126Y-6901500D01*
G01X7001126Y-6822300D01*
G01X7020926Y-6822300D01*
G01X7020926Y-6901500D01*
G37*
G36*
G01X7020926Y-6281100D02*
G01X7001126Y-6281100D01*
G01X7001126Y-6360300D01*
G01X7020926Y-6360300D01*
G01X7020926Y-6281100D01*
G37*
G36*
G01X7077024Y-6310800D02*
G01X6945025Y-6310800D01*
G01X6945025Y-6330599D01*
G01X7077024Y-6330599D01*
G01X7077024Y-6310800D01*
G37*
G54D11*
G01X7748814Y-7287332D02*
G01X8658809Y-7287332D01*
G01X8658809Y-7287332D02*
G01X8658809Y-7644223D01*
G01X7748814Y-7649221D02*
G01X7748814Y-7287332D01*
G01X8658817Y-8664160D02*
G01X8658817Y-8490454D01*
G01X7748814Y-8777332D02*
G01X8007916Y-8777332D01*
G01X8007916Y-8777332D02*
G01X8007916Y-8664160D01*
G01X8007916Y-8664160D02*
G01X8658817Y-8664160D01*
G01X7748814Y-8777332D02*
G01X7748814Y-8500449D01*
G01X7748814Y-8559118D02*
G01X8658809Y-8559118D01*
G01X8658809Y-7460611D02*
G01X7748814Y-7460611D01*
G01X7748814Y-8254219D02*
G01X7748814Y-7885449D01*
G01X8658809Y-7890453D02*
G01X8658809Y-8244224D01*

G04 Circle Start*
G01X2705100Y-8004426D02*
G03X2730500Y-8004426I12700J0D01*
G03X2705100Y-8004426I-12700J0D01*
G01X4220955Y-4783007D02*
G03X4255042Y-4783007I17043J0D01*
G03X4220955Y-4783007I-17043J0D01*
G54D18*
G01X5744381Y-4643298D02*
G03X5774404Y-4643298I15011J0D01*
G03X5744381Y-4643298I-15011J0D01*
G04 Circle End*

M02*

