G04 Layer: TopLayer*
G04 EasyEDA Pro v2.2.40.8, 2025-07-27 07:59:39*
G04 Gerber Generator version 0.3*
G04 Scale: 100 percent, Rotated: No, Reflected: No*
G04 Dimensions in millimeters*
G04 Leading zeros omitted, absolute positions, 4 integers and 5 decimals*
G04 Generated by one-click*
%FSLAX45Y45*%
%MOMM*%
%AMPolygonMacro1*4,1,8,-3.683,2.54,-5.461,2.54,-5.461,4.064,5.461,4.064,5.461,2.54,4.31749,2.54,4.31749,-4.064,-3.683,-4.064,-3.683,2.54,0*%
%ADD10C,0.2032*%
%ADD11R,0.8X0.9*%
%ADD12R,0.9X0.8*%
%ADD13R,2.04638X1.62001*%
%ADD14R,1.7X1.7*%
%ADD15C,1.7*%
%ADD16R,5.39999X2.79999*%
%ADD17R,0.8001X0.8001*%
%ADD18R,0.80648X0.86401*%
%ADD19R,0.8639X0.80648*%
%ADD20R,0.86401X0.80648*%
%ADD21R,1.15001X3.19999*%
%ADD22PolygonMacro1*%
%ADD23R,1.1X2.49999*%
%ADD24R,3.59999X2.34*%
%ADD25O,0.27X1.5*%
%ADD26O,1.5X0.27*%
%ADD27R,1.2X1.4*%
%ADD28C,1.6*%
%ADD29R,1.524X1.6*%
%ADD30R,1.6X1.524*%
%ADD31C,2.0*%
%ADD32O,1.95021X0.5684*%
%ADD33R,4.19999X1.4*%
%ADD34R,1.2X3.79999*%
%ADD35R,2.1X2.0*%
%ADD36R,2.49999X1.9*%
%ADD37R,2.0X2.0*%
%ADD38C,0.61*%
%ADD39C,0.254*%
%ADD40C,0.5*%
%ADD41C,0.3*%
%ADD42C,0.8*%
G75*


G04 Copper Start*
G36*
G01X6458784Y-8046284D02*
G01X6460987Y-8042988D01*
G01X6461760Y-8039100D01*
G01X6461760Y-7586108D01*
G01X6697696Y-7350173D01*
G01X7744605Y-7350173D01*
G01X7942463Y-7548030D01*
G01X7942463Y-8659951D01*
G01X7646374Y-8956040D01*
G01X6328745Y-8956040D01*
G01X6207760Y-8835055D01*
G01X6207760Y-8297308D01*
G01X6458784Y-8046284D01*
G37*
G36*
G01X232808Y-8956040D02*
G01X24522Y-8747754D01*
G01X21443Y-8723965D01*
G01X20414Y-8700000D01*
G01X20414Y-300000D01*
G01X21775Y-272449D01*
G01X25844Y-245166D01*
G01X32582Y-218416D01*
G01X41923Y-192461D01*
G01X53776Y-167553D01*
G01X167553Y-53776D01*
G01X190635Y-42692D01*
G01X214634Y-33765D01*
G01X1835497Y-33765D01*
G01X1844040Y-42308D01*
G01X1844040Y-592692D01*
G01X1545192Y-891540D01*
G01X558800Y-891540D01*
G01X554912Y-892313D01*
G01X551616Y-894516D01*
G01X462716Y-983416D01*
G01X460513Y-986712D01*
G01X459740Y-990600D01*
G01X459740Y-2260600D01*
G01X460513Y-2264488D01*
G01X462716Y-2267784D01*
G01X500816Y-2305884D01*
G01X504112Y-2308087D01*
G01X508000Y-2308860D01*
G01X795892Y-2308860D01*
G01X929640Y-2442608D01*
G01X929640Y-2929492D01*
G01X859392Y-2999740D01*
G01X469900Y-2999740D01*
G01X466012Y-3000513D01*
G01X462716Y-3002716D01*
G01X411916Y-3053516D01*
G01X409713Y-3056812D01*
G01X408940Y-3060700D01*
G01X408940Y-4203700D01*
G01X409713Y-4207588D01*
G01X411916Y-4210884D01*
G01X500816Y-4299784D01*
G01X504112Y-4301987D01*
G01X508000Y-4302760D01*
G01X859392Y-4302760D01*
G01X980440Y-4423808D01*
G01X980440Y-5042119D01*
G01X940019Y-5082540D01*
G01X532002Y-5082540D01*
G01X528114Y-5083313D01*
G01X524818Y-5085516D01*
G01X406280Y-5204054D01*
G01X404077Y-5207350D01*
G01X403304Y-5211238D01*
G01X403304Y-6128464D01*
G01X404077Y-6132352D01*
G01X406280Y-6135648D01*
G01X653216Y-6382584D01*
G01X656512Y-6384787D01*
G01X660400Y-6385560D01*
G01X1062592Y-6385560D01*
G01X1094740Y-6417708D01*
G01X1094740Y-7260192D01*
G01X1062592Y-7292340D01*
G01X520700Y-7292340D01*
G01X516812Y-7293113D01*
G01X513516Y-7295316D01*
G01X450016Y-7358816D01*
G01X447813Y-7362112D01*
G01X447040Y-7366000D01*
G01X447040Y-8344974D01*
G01X447813Y-8348862D01*
G01X450016Y-8352158D01*
G01X587678Y-8489821D01*
G01X590975Y-8492024D01*
G01X594863Y-8492797D01*
G01X2261563Y-8492797D01*
G01X2265451Y-8492024D01*
G01X2268747Y-8489821D01*
G01X2534484Y-8224084D01*
G01X2536687Y-8220788D01*
G01X2537460Y-8216900D01*
G01X2537460Y-7878208D01*
G01X2582308Y-7833360D01*
G01X2904092Y-7833360D01*
G01X2923540Y-7852808D01*
G01X2923540Y-8441292D01*
G01X2748716Y-8616116D01*
G01X2746513Y-8619412D01*
G01X2745740Y-8623300D01*
G01X2745740Y-8885792D01*
G01X2675492Y-8956040D01*
G01X232808Y-8956040D01*
G37*
G36*
G01X5887284Y-1542216D02*
G01X5883988Y-1540013D01*
G01X5880100Y-1539240D01*
G01X4944508Y-1539240D01*
G01X4721860Y-1316592D01*
G01X4721860Y-347108D01*
G01X4919108Y-149860D01*
G01X5139292Y-149860D01*
G01X5222240Y-232808D01*
G01X5222240Y-503792D01*
G01X5174416Y-551616D01*
G01X5172213Y-554912D01*
G01X5171440Y-558800D01*
G01X5171440Y-656192D01*
G01X5123616Y-704016D01*
G01X5121413Y-707312D01*
G01X5120640Y-711200D01*
G01X5120640Y-977900D01*
G01X5121413Y-981788D01*
G01X5123616Y-985084D01*
G01X5199816Y-1061284D01*
G01X5203112Y-1063487D01*
G01X5207000Y-1064260D01*
G01X5837792Y-1064260D01*
G01X6136640Y-1363108D01*
G01X6136640Y-1669462D01*
G01X6050962Y-1755140D01*
G01X5960508Y-1755140D01*
G01X5953760Y-1748392D01*
G01X5953760Y-1612900D01*
G01X5952987Y-1609012D01*
G01X5950784Y-1605716D01*
G01X5887284Y-1542216D01*
G37*
G36*
G01X4696460Y-2057400D02*
G01X6794386Y-2057400D01*
G01X6796121Y-2070578D01*
G01X6801207Y-2082857D01*
G01X6809298Y-2093402D01*
G01X6819843Y-2101493D01*
G01X6832122Y-2106579D01*
G01X6845300Y-2108314D01*
G01X6858478Y-2106579D01*
G01X6870757Y-2101493D01*
G01X6881302Y-2093402D01*
G01X6889393Y-2082857D01*
G01X6894479Y-2070578D01*
G01X6896214Y-2057400D01*
G01X6994386Y-2057400D01*
G01X6996121Y-2070578D01*
G01X7001207Y-2082857D01*
G01X7009298Y-2093402D01*
G01X7019843Y-2101493D01*
G01X7032122Y-2106579D01*
G01X7045300Y-2108314D01*
G01X7058478Y-2106579D01*
G01X7070757Y-2101493D01*
G01X7081302Y-2093402D01*
G01X7089393Y-2082857D01*
G01X7094479Y-2070578D01*
G01X7096214Y-2057400D01*
G01X7194386Y-2057400D01*
G01X7196121Y-2070578D01*
G01X7201207Y-2082857D01*
G01X7209298Y-2093402D01*
G01X7219843Y-2101493D01*
G01X7232122Y-2106579D01*
G01X7245300Y-2108314D01*
G01X7258478Y-2106579D01*
G01X7270757Y-2101493D01*
G01X7281302Y-2093402D01*
G01X7289393Y-2082857D01*
G01X7294479Y-2070578D01*
G01X7296214Y-2057400D01*
G01X7294479Y-2044222D01*
G01X7289393Y-2031943D01*
G01X7281302Y-2021398D01*
G01X7270757Y-2013307D01*
G01X7258478Y-2008221D01*
G01X7245300Y-2006486D01*
G01X7232122Y-2008221D01*
G01X7219843Y-2013307D01*
G01X7209298Y-2021398D01*
G01X7201207Y-2031943D01*
G01X7196121Y-2044222D01*
G01X7194386Y-2057400D01*
G01X7194386Y-2057400D01*
G01X7096214Y-2057400D01*
G01X7094479Y-2044222D01*
G01X7089393Y-2031943D01*
G01X7081302Y-2021398D01*
G01X7070757Y-2013307D01*
G01X7058478Y-2008221D01*
G01X7045300Y-2006486D01*
G01X7032122Y-2008221D01*
G01X7019843Y-2013307D01*
G01X7009298Y-2021398D01*
G01X7001207Y-2031943D01*
G01X6996121Y-2044222D01*
G01X6994386Y-2057400D01*
G01X6994386Y-2057400D01*
G01X6896214Y-2057400D01*
G01X6894479Y-2044222D01*
G01X6889393Y-2031943D01*
G01X6881302Y-2021398D01*
G01X6870757Y-2013307D01*
G01X6858478Y-2008221D01*
G01X6845300Y-2006486D01*
G01X6832122Y-2008221D01*
G01X6819843Y-2013307D01*
G01X6809298Y-2021398D01*
G01X6801207Y-2031943D01*
G01X6796121Y-2044222D01*
G01X6794386Y-2057400D01*
G01X6794386Y-2057400D01*
G01X4696460Y-2057400D01*
G01X4695687Y-2053512D01*
G01X4693484Y-2050216D01*
G01X3968206Y-1324938D01*
G01X3968206Y-148262D01*
G01X3992008Y-124460D01*
G01X4351892Y-124460D01*
G01X4384040Y-156608D01*
G01X4384040Y-1164043D01*
G01X4384813Y-1167931D01*
G01X4387016Y-1171227D01*
G01X5026373Y-1810584D01*
G01X5029669Y-1812787D01*
G01X5033557Y-1813560D01*
G01X6108700Y-1813560D01*
G01X6112588Y-1812787D01*
G01X6115884Y-1810584D01*
G01X6186292Y-1740176D01*
G01X6188495Y-1736880D01*
G01X6189268Y-1732992D01*
G01X6189268Y-1368900D01*
G01X6214508Y-1343660D01*
G01X6345792Y-1343660D01*
G01X6352540Y-1350408D01*
G01X6352540Y-1651000D01*
G01X6353313Y-1654888D01*
G01X6355516Y-1658184D01*
G01X6457116Y-1759784D01*
G01X6460412Y-1761987D01*
G01X6464300Y-1762760D01*
G01X6612492Y-1762760D01*
G01X6622216Y-1772484D01*
G01X6625512Y-1774687D01*
G01X6629400Y-1775460D01*
G01X7950200Y-1775460D01*
G01X7954088Y-1774687D01*
G01X7957384Y-1772484D01*
G01X8033584Y-1696284D01*
G01X8035787Y-1692988D01*
G01X8036560Y-1689100D01*
G01X8036560Y-956708D01*
G01X8157608Y-835660D01*
G01X8225392Y-835660D01*
G01X8257540Y-867808D01*
G01X8257540Y-1993900D01*
G01X8258313Y-1997788D01*
G01X8260516Y-2001084D01*
G01X8349416Y-2089984D01*
G01X8352712Y-2092187D01*
G01X8356600Y-2092960D01*
G01X8724377Y-2092960D01*
G01X8877245Y-2245829D01*
G01X8877245Y-2500286D01*
G01X8809592Y-2567940D01*
G01X8383524Y-2567940D01*
G01X8297690Y-2482106D01*
G01X8294393Y-2479904D01*
G01X8290505Y-2479130D01*
G01X8280491Y-2479130D01*
G01X7124701Y-2479040D01*
G01X7120812Y-2479813D01*
G01X7117516Y-2482016D01*
G01X6777592Y-2821940D01*
G01X5173108Y-2821940D01*
G01X5065768Y-2714600D01*
G01X5981586Y-2714600D01*
G01X5983321Y-2727778D01*
G01X5988407Y-2740057D01*
G01X5996498Y-2750602D01*
G01X6007043Y-2758693D01*
G01X6019322Y-2763779D01*
G01X6032500Y-2765514D01*
G01X6045678Y-2763779D01*
G01X6057957Y-2758693D01*
G01X6068502Y-2750602D01*
G01X6076593Y-2740057D01*
G01X6081679Y-2727778D01*
G01X6083414Y-2714600D01*
G01X6181586Y-2714600D01*
G01X6183321Y-2727778D01*
G01X6188407Y-2740057D01*
G01X6196498Y-2750602D01*
G01X6207043Y-2758693D01*
G01X6219322Y-2763779D01*
G01X6232500Y-2765514D01*
G01X6245678Y-2763779D01*
G01X6257957Y-2758693D01*
G01X6268502Y-2750602D01*
G01X6276593Y-2740057D01*
G01X6281679Y-2727778D01*
G01X6283414Y-2714600D01*
G01X6381586Y-2714600D01*
G01X6383321Y-2727778D01*
G01X6388407Y-2740057D01*
G01X6396498Y-2750602D01*
G01X6407043Y-2758693D01*
G01X6419322Y-2763779D01*
G01X6432500Y-2765514D01*
G01X6445678Y-2763779D01*
G01X6457957Y-2758693D01*
G01X6468502Y-2750602D01*
G01X6476593Y-2740057D01*
G01X6481679Y-2727778D01*
G01X6483414Y-2714600D01*
G01X6481679Y-2701422D01*
G01X6476593Y-2689143D01*
G01X6468502Y-2678598D01*
G01X6457957Y-2670507D01*
G01X6445678Y-2665421D01*
G01X6432500Y-2663686D01*
G01X6419322Y-2665421D01*
G01X6407043Y-2670507D01*
G01X6396498Y-2678598D01*
G01X6388407Y-2689143D01*
G01X6383321Y-2701422D01*
G01X6381586Y-2714600D01*
G01X6381586Y-2714600D01*
G01X6283414Y-2714600D01*
G01X6281679Y-2701422D01*
G01X6276593Y-2689143D01*
G01X6268502Y-2678598D01*
G01X6257957Y-2670507D01*
G01X6245678Y-2665421D01*
G01X6232500Y-2663686D01*
G01X6219322Y-2665421D01*
G01X6207043Y-2670507D01*
G01X6196498Y-2678598D01*
G01X6188407Y-2689143D01*
G01X6183321Y-2701422D01*
G01X6181586Y-2714600D01*
G01X6181586Y-2714600D01*
G01X6083414Y-2714600D01*
G01X6081679Y-2701422D01*
G01X6076593Y-2689143D01*
G01X6068502Y-2678598D01*
G01X6057957Y-2670507D01*
G01X6045678Y-2665421D01*
G01X6032500Y-2663686D01*
G01X6019322Y-2665421D01*
G01X6007043Y-2670507D01*
G01X5996498Y-2678598D01*
G01X5988407Y-2689143D01*
G01X5983321Y-2701422D01*
G01X5981586Y-2714600D01*
G01X5981586Y-2714600D01*
G01X5065768Y-2714600D01*
G01X4865768Y-2514600D01*
G01X5981586Y-2514600D01*
G01X5983321Y-2527778D01*
G01X5988407Y-2540057D01*
G01X5996498Y-2550602D01*
G01X6007043Y-2558693D01*
G01X6019322Y-2563779D01*
G01X6032500Y-2565514D01*
G01X6045678Y-2563779D01*
G01X6057957Y-2558693D01*
G01X6068502Y-2550602D01*
G01X6076593Y-2540057D01*
G01X6081679Y-2527778D01*
G01X6083414Y-2514600D01*
G01X6181586Y-2514600D01*
G01X6183321Y-2527778D01*
G01X6188407Y-2540057D01*
G01X6196498Y-2550602D01*
G01X6207043Y-2558693D01*
G01X6219322Y-2563779D01*
G01X6232500Y-2565514D01*
G01X6245678Y-2563779D01*
G01X6257957Y-2558693D01*
G01X6268502Y-2550602D01*
G01X6276593Y-2540057D01*
G01X6281679Y-2527778D01*
G01X6283414Y-2514600D01*
G01X6381586Y-2514600D01*
G01X6383321Y-2527778D01*
G01X6388407Y-2540057D01*
G01X6396498Y-2550602D01*
G01X6407043Y-2558693D01*
G01X6419322Y-2563779D01*
G01X6432500Y-2565514D01*
G01X6445678Y-2563779D01*
G01X6457957Y-2558693D01*
G01X6468502Y-2550602D01*
G01X6476593Y-2540057D01*
G01X6481679Y-2527778D01*
G01X6483414Y-2514600D01*
G01X6481679Y-2501422D01*
G01X6476593Y-2489143D01*
G01X6468502Y-2478598D01*
G01X6457957Y-2470507D01*
G01X6445678Y-2465421D01*
G01X6432500Y-2463686D01*
G01X6419322Y-2465421D01*
G01X6407043Y-2470507D01*
G01X6396498Y-2478598D01*
G01X6388407Y-2489143D01*
G01X6383321Y-2501422D01*
G01X6381586Y-2514600D01*
G01X6381586Y-2514600D01*
G01X6283414Y-2514600D01*
G01X6281679Y-2501422D01*
G01X6276593Y-2489143D01*
G01X6268502Y-2478598D01*
G01X6257957Y-2470507D01*
G01X6245678Y-2465421D01*
G01X6232500Y-2463686D01*
G01X6219322Y-2465421D01*
G01X6207043Y-2470507D01*
G01X6196498Y-2478598D01*
G01X6188407Y-2489143D01*
G01X6183321Y-2501422D01*
G01X6181586Y-2514600D01*
G01X6181586Y-2514600D01*
G01X6083414Y-2514600D01*
G01X6081679Y-2501422D01*
G01X6076593Y-2489143D01*
G01X6068502Y-2478598D01*
G01X6057957Y-2470507D01*
G01X6045678Y-2465421D01*
G01X6032500Y-2463686D01*
G01X6019322Y-2465421D01*
G01X6007043Y-2470507D01*
G01X5996498Y-2478598D01*
G01X5988407Y-2489143D01*
G01X5983321Y-2501422D01*
G01X5981586Y-2514600D01*
G01X5981586Y-2514600D01*
G01X4865768Y-2514600D01*
G01X4773668Y-2422500D01*
G01X5168786Y-2422500D01*
G01X5170521Y-2435678D01*
G01X5175607Y-2447957D01*
G01X5183698Y-2458502D01*
G01X5194243Y-2466593D01*
G01X5206522Y-2471679D01*
G01X5219700Y-2473414D01*
G01X5232878Y-2471679D01*
G01X5245157Y-2466593D01*
G01X5255702Y-2458502D01*
G01X5263793Y-2447957D01*
G01X5268879Y-2435678D01*
G01X5270614Y-2422500D01*
G01X5368786Y-2422500D01*
G01X5370521Y-2435678D01*
G01X5375607Y-2447957D01*
G01X5383698Y-2458502D01*
G01X5394243Y-2466593D01*
G01X5406522Y-2471679D01*
G01X5419700Y-2473414D01*
G01X5432878Y-2471679D01*
G01X5445157Y-2466593D01*
G01X5455702Y-2458502D01*
G01X5463793Y-2447957D01*
G01X5468879Y-2435678D01*
G01X5470614Y-2422500D01*
G01X5568786Y-2422500D01*
G01X5570521Y-2435678D01*
G01X5575607Y-2447957D01*
G01X5583698Y-2458502D01*
G01X5594243Y-2466593D01*
G01X5606522Y-2471679D01*
G01X5619700Y-2473414D01*
G01X5632878Y-2471679D01*
G01X5645157Y-2466593D01*
G01X5655702Y-2458502D01*
G01X5663793Y-2447957D01*
G01X5668879Y-2435678D01*
G01X5670614Y-2422500D01*
G01X5668879Y-2409322D01*
G01X5663793Y-2397043D01*
G01X5655702Y-2386498D01*
G01X5645157Y-2378407D01*
G01X5632878Y-2373321D01*
G01X5619700Y-2371586D01*
G01X5606522Y-2373321D01*
G01X5594243Y-2378407D01*
G01X5583698Y-2386498D01*
G01X5575607Y-2397043D01*
G01X5570521Y-2409322D01*
G01X5568786Y-2422500D01*
G01X5568786Y-2422500D01*
G01X5470614Y-2422500D01*
G01X5468879Y-2409322D01*
G01X5463793Y-2397043D01*
G01X5455702Y-2386498D01*
G01X5445157Y-2378407D01*
G01X5432878Y-2373321D01*
G01X5419700Y-2371586D01*
G01X5406522Y-2373321D01*
G01X5394243Y-2378407D01*
G01X5383698Y-2386498D01*
G01X5375607Y-2397043D01*
G01X5370521Y-2409322D01*
G01X5368786Y-2422500D01*
G01X5368786Y-2422500D01*
G01X5270614Y-2422500D01*
G01X5268879Y-2409322D01*
G01X5263793Y-2397043D01*
G01X5255702Y-2386498D01*
G01X5245157Y-2378407D01*
G01X5232878Y-2373321D01*
G01X5219700Y-2371586D01*
G01X5206522Y-2373321D01*
G01X5194243Y-2378407D01*
G01X5183698Y-2386498D01*
G01X5175607Y-2397043D01*
G01X5170521Y-2409322D01*
G01X5168786Y-2422500D01*
G01X5168786Y-2422500D01*
G01X4773668Y-2422500D01*
G01X4696460Y-2345292D01*
G01X4696460Y-2222500D01*
G01X5168786Y-2222500D01*
G01X5170521Y-2235678D01*
G01X5175607Y-2247957D01*
G01X5183698Y-2258502D01*
G01X5194243Y-2266593D01*
G01X5206522Y-2271679D01*
G01X5219700Y-2273414D01*
G01X5232878Y-2271679D01*
G01X5245157Y-2266593D01*
G01X5255702Y-2258502D01*
G01X5263793Y-2247957D01*
G01X5268879Y-2235678D01*
G01X5270614Y-2222500D01*
G01X5368786Y-2222500D01*
G01X5370521Y-2235678D01*
G01X5375607Y-2247957D01*
G01X5383698Y-2258502D01*
G01X5394243Y-2266593D01*
G01X5406522Y-2271679D01*
G01X5419700Y-2273414D01*
G01X5432878Y-2271679D01*
G01X5445157Y-2266593D01*
G01X5455702Y-2258502D01*
G01X5463793Y-2247957D01*
G01X5468879Y-2235678D01*
G01X5470614Y-2222500D01*
G01X5568786Y-2222500D01*
G01X5570521Y-2235678D01*
G01X5575607Y-2247957D01*
G01X5583698Y-2258502D01*
G01X5594243Y-2266593D01*
G01X5606522Y-2271679D01*
G01X5619700Y-2273414D01*
G01X5632878Y-2271679D01*
G01X5645157Y-2266593D01*
G01X5655702Y-2258502D01*
G01X5656547Y-2257400D01*
G01X6794386Y-2257400D01*
G01X6796121Y-2270578D01*
G01X6801207Y-2282857D01*
G01X6809298Y-2293402D01*
G01X6819843Y-2301493D01*
G01X6832122Y-2306579D01*
G01X6845300Y-2308314D01*
G01X6858478Y-2306579D01*
G01X6870757Y-2301493D01*
G01X6881302Y-2293402D01*
G01X6889393Y-2282857D01*
G01X6894479Y-2270578D01*
G01X6896214Y-2257400D01*
G01X6994386Y-2257400D01*
G01X6996121Y-2270578D01*
G01X7001207Y-2282857D01*
G01X7009298Y-2293402D01*
G01X7019843Y-2301493D01*
G01X7032122Y-2306579D01*
G01X7045300Y-2308314D01*
G01X7058478Y-2306579D01*
G01X7070757Y-2301493D01*
G01X7081302Y-2293402D01*
G01X7089393Y-2282857D01*
G01X7094479Y-2270578D01*
G01X7096214Y-2257400D01*
G01X7194386Y-2257400D01*
G01X7196121Y-2270578D01*
G01X7201207Y-2282857D01*
G01X7209298Y-2293402D01*
G01X7219843Y-2301493D01*
G01X7232122Y-2306579D01*
G01X7245300Y-2308314D01*
G01X7258478Y-2306579D01*
G01X7270757Y-2301493D01*
G01X7281302Y-2293402D01*
G01X7289393Y-2282857D01*
G01X7294479Y-2270578D01*
G01X7296214Y-2257400D01*
G01X7294479Y-2244222D01*
G01X7289393Y-2231943D01*
G01X7281302Y-2221398D01*
G01X7270757Y-2213307D01*
G01X7258478Y-2208221D01*
G01X7245300Y-2206486D01*
G01X7232122Y-2208221D01*
G01X7219843Y-2213307D01*
G01X7209298Y-2221398D01*
G01X7201207Y-2231943D01*
G01X7196121Y-2244222D01*
G01X7194386Y-2257400D01*
G01X7194386Y-2257400D01*
G01X7096214Y-2257400D01*
G01X7094479Y-2244222D01*
G01X7089393Y-2231943D01*
G01X7081302Y-2221398D01*
G01X7070757Y-2213307D01*
G01X7058478Y-2208221D01*
G01X7045300Y-2206486D01*
G01X7032122Y-2208221D01*
G01X7019843Y-2213307D01*
G01X7009298Y-2221398D01*
G01X7001207Y-2231943D01*
G01X6996121Y-2244222D01*
G01X6994386Y-2257400D01*
G01X6994386Y-2257400D01*
G01X6896214Y-2257400D01*
G01X6894479Y-2244222D01*
G01X6889393Y-2231943D01*
G01X6881302Y-2221398D01*
G01X6870757Y-2213307D01*
G01X6858478Y-2208221D01*
G01X6845300Y-2206486D01*
G01X6832122Y-2208221D01*
G01X6819843Y-2213307D01*
G01X6809298Y-2221398D01*
G01X6801207Y-2231943D01*
G01X6796121Y-2244222D01*
G01X6794386Y-2257400D01*
G01X6794386Y-2257400D01*
G01X5656547Y-2257400D01*
G01X5663793Y-2247957D01*
G01X5668879Y-2235678D01*
G01X5670614Y-2222500D01*
G01X5668879Y-2209322D01*
G01X5663793Y-2197043D01*
G01X5655702Y-2186498D01*
G01X5645157Y-2178407D01*
G01X5632878Y-2173321D01*
G01X5619700Y-2171586D01*
G01X5606522Y-2173321D01*
G01X5594243Y-2178407D01*
G01X5583698Y-2186498D01*
G01X5575607Y-2197043D01*
G01X5570521Y-2209322D01*
G01X5568786Y-2222500D01*
G01X5568786Y-2222500D01*
G01X5470614Y-2222500D01*
G01X5468879Y-2209322D01*
G01X5463793Y-2197043D01*
G01X5455702Y-2186498D01*
G01X5445157Y-2178407D01*
G01X5432878Y-2173321D01*
G01X5419700Y-2171586D01*
G01X5406522Y-2173321D01*
G01X5394243Y-2178407D01*
G01X5383698Y-2186498D01*
G01X5375607Y-2197043D01*
G01X5370521Y-2209322D01*
G01X5368786Y-2222500D01*
G01X5368786Y-2222500D01*
G01X5270614Y-2222500D01*
G01X5268879Y-2209322D01*
G01X5263793Y-2197043D01*
G01X5255702Y-2186498D01*
G01X5245157Y-2178407D01*
G01X5232878Y-2173321D01*
G01X5219700Y-2171586D01*
G01X5206522Y-2173321D01*
G01X5194243Y-2178407D01*
G01X5183698Y-2186498D01*
G01X5175607Y-2197043D01*
G01X5170521Y-2209322D01*
G01X5168786Y-2222500D01*
G01X5168786Y-2222500D01*
G01X4696460Y-2222500D01*
G01X4696460Y-2057400D01*
G37*
G36*
G01X6855460Y-4835020D02*
G01X6877884Y-4812596D01*
G01X6879338Y-4810760D01*
G01X7023100Y-4810760D01*
G01X7026988Y-4809987D01*
G01X7030284Y-4807784D01*
G01X7052708Y-4785360D01*
G01X7272892Y-4785360D01*
G01X7279640Y-4792108D01*
G01X7279640Y-4974192D01*
G01X7247492Y-5006340D01*
G01X6925708Y-5006340D01*
G01X6855460Y-4936092D01*
G01X6855460Y-4835020D01*
G37*
G36*
G01X6004560Y-4660900D02*
G01X6003787Y-4657012D01*
G01X6001584Y-4653716D01*
G01X5979160Y-4631292D01*
G01X5979160Y-2714600D01*
G01X5981586Y-2714600D01*
G01X5983321Y-2727778D01*
G01X5988407Y-2740057D01*
G01X5996498Y-2750602D01*
G01X6007043Y-2758693D01*
G01X6019322Y-2763779D01*
G01X6032500Y-2765514D01*
G01X6045678Y-2763779D01*
G01X6057957Y-2758693D01*
G01X6068502Y-2750602D01*
G01X6076593Y-2740057D01*
G01X6081679Y-2727778D01*
G01X6083414Y-2714600D01*
G01X6181586Y-2714600D01*
G01X6183321Y-2727778D01*
G01X6188407Y-2740057D01*
G01X6196498Y-2750602D01*
G01X6207043Y-2758693D01*
G01X6219322Y-2763779D01*
G01X6232500Y-2765514D01*
G01X6245678Y-2763779D01*
G01X6257957Y-2758693D01*
G01X6268502Y-2750602D01*
G01X6276593Y-2740057D01*
G01X6281679Y-2727778D01*
G01X6283414Y-2714600D01*
G01X6381586Y-2714600D01*
G01X6383321Y-2727778D01*
G01X6388407Y-2740057D01*
G01X6396498Y-2750602D01*
G01X6407043Y-2758693D01*
G01X6419322Y-2763779D01*
G01X6432500Y-2765514D01*
G01X6445678Y-2763779D01*
G01X6457957Y-2758693D01*
G01X6468502Y-2750602D01*
G01X6476593Y-2740057D01*
G01X6481679Y-2727778D01*
G01X6483414Y-2714600D01*
G01X6481679Y-2701422D01*
G01X6476593Y-2689143D01*
G01X6468502Y-2678598D01*
G01X6457957Y-2670507D01*
G01X6445678Y-2665421D01*
G01X6432500Y-2663686D01*
G01X6419322Y-2665421D01*
G01X6407043Y-2670507D01*
G01X6396498Y-2678598D01*
G01X6388407Y-2689143D01*
G01X6383321Y-2701422D01*
G01X6381586Y-2714600D01*
G01X6381586Y-2714600D01*
G01X6283414Y-2714600D01*
G01X6281679Y-2701422D01*
G01X6276593Y-2689143D01*
G01X6268502Y-2678598D01*
G01X6257957Y-2670507D01*
G01X6245678Y-2665421D01*
G01X6232500Y-2663686D01*
G01X6219322Y-2665421D01*
G01X6207043Y-2670507D01*
G01X6196498Y-2678598D01*
G01X6188407Y-2689143D01*
G01X6183321Y-2701422D01*
G01X6181586Y-2714600D01*
G01X6181586Y-2714600D01*
G01X6083414Y-2714600D01*
G01X6081679Y-2701422D01*
G01X6076593Y-2689143D01*
G01X6068502Y-2678598D01*
G01X6057957Y-2670507D01*
G01X6045678Y-2665421D01*
G01X6032500Y-2663686D01*
G01X6019322Y-2665421D01*
G01X6007043Y-2670507D01*
G01X5996498Y-2678598D01*
G01X5988407Y-2689143D01*
G01X5983321Y-2701422D01*
G01X5981586Y-2714600D01*
G01X5981586Y-2714600D01*
G01X5979160Y-2714600D01*
G01X5979160Y-2671208D01*
G01X6011308Y-2639060D01*
G01X6771640Y-2639060D01*
G01X6771640Y-2641600D01*
G01X6772413Y-2645488D01*
G01X6774616Y-2648784D01*
G01X6856332Y-2730500D01*
G01X6752192Y-2834640D01*
G01X6565900Y-2834640D01*
G01X6562012Y-2835413D01*
G01X6558716Y-2837616D01*
G01X6510892Y-2885440D01*
G01X6413500Y-2885440D01*
G01X6409612Y-2886213D01*
G01X6406316Y-2888416D01*
G01X6342816Y-2951916D01*
G01X6340613Y-2955212D01*
G01X6339840Y-2959100D01*
G01X6339840Y-4605892D01*
G01X6256892Y-4688840D01*
G01X6004560Y-4688840D01*
G01X6004560Y-4660900D01*
G37*
G36*
G01X4863493Y-4241093D02*
G01X4856072Y-4241914D01*
G01X4849011Y-4244340D01*
G01X4840360Y-4244340D01*
G01X4840360Y-4195207D01*
G01X4897907Y-4137660D01*
G01X6142592Y-4137660D01*
G01X6212840Y-4207908D01*
G01X6212840Y-4313792D01*
G01X6142592Y-4384040D01*
G01X5185808Y-4384040D01*
G01X5049084Y-4247316D01*
G01X5045788Y-4245113D01*
G01X5041900Y-4244340D01*
G01X5028994Y-4244340D01*
G01X5022866Y-4242510D01*
G01X5016500Y-4241893D01*
G01X4993816Y-4241893D01*
G01X4986492Y-4241093D01*
G01X4863493Y-4241093D01*
G37*
G36*
G01X8314212Y-8197343D02*
G01X8312359Y-8176744D01*
G01X8306859Y-8156806D01*
G01X8297889Y-8138170D01*
G01X8285736Y-8121434D01*
G01X8270792Y-8107136D01*
G01X8253536Y-8095734D01*
G01X8234521Y-8087596D01*
G01X8214360Y-8082982D01*
G01X8214360Y-7871607D01*
G01X8232557Y-7867210D01*
G01X8249690Y-7859663D01*
G01X8265217Y-7849205D01*
G01X8278650Y-7836165D01*
G01X8289564Y-7820954D01*
G01X8297615Y-7804053D01*
G01X8302550Y-7785994D01*
G01X8304213Y-7767347D01*
G01X8302550Y-7748700D01*
G01X8297615Y-7730641D01*
G01X8289564Y-7713739D01*
G01X8278650Y-7698529D01*
G01X8265217Y-7685489D01*
G01X8249690Y-7675030D01*
G01X8232557Y-7667484D01*
G01X8214360Y-7663087D01*
G01X8214360Y-7515305D01*
G01X8213587Y-7511417D01*
G01X8211384Y-7508121D01*
G01X7983411Y-7280148D01*
G01X7980115Y-7277946D01*
G01X7976227Y-7277172D01*
G01X6708068Y-7277172D01*
G01X6704180Y-7277946D01*
G01X6700883Y-7280148D01*
G01X6431716Y-7549316D01*
G01X6429513Y-7552612D01*
G01X6428740Y-7556500D01*
G01X6428740Y-7856865D01*
G01X6120884Y-8164721D01*
G01X6118681Y-8168017D01*
G01X6117908Y-8171905D01*
G01X6117908Y-8815624D01*
G01X6015592Y-8917940D01*
G01X3344308Y-8917940D01*
G01X3312160Y-8885792D01*
G01X3312160Y-8707141D01*
G01X3312617Y-8706684D01*
G01X3314819Y-8703388D01*
G01X3315593Y-8699500D01*
G01X3315593Y-8662176D01*
G01X3369708Y-8608060D01*
G01X4838700Y-8608060D01*
G01X4842588Y-8607287D01*
G01X4845884Y-8605084D01*
G01X5722184Y-7728784D01*
G01X5724387Y-7725488D01*
G01X5725160Y-7721600D01*
G01X5725160Y-6900308D01*
G01X5960508Y-6664960D01*
G01X7009609Y-6664960D01*
G01X7013497Y-6664187D01*
G01X7016793Y-6661984D01*
G01X7077317Y-6601460D01*
G01X8771492Y-6601460D01*
G01X8943340Y-6773308D01*
G01X8943340Y-8784192D01*
G01X8784192Y-8943340D01*
G01X8348108Y-8943340D01*
G01X8214360Y-8809592D01*
G01X8214360Y-8311704D01*
G01X8234521Y-8307090D01*
G01X8253536Y-8298952D01*
G01X8270792Y-8287551D01*
G01X8285736Y-8273253D01*
G01X8297889Y-8256517D01*
G01X8306859Y-8237881D01*
G01X8312359Y-8217943D01*
G01X8314212Y-8197343D01*
G37*
G36*
G01X7724140Y-1261508D02*
G01X7724140Y-1583292D01*
G01X7577692Y-1729740D01*
G01X6506608Y-1729740D01*
G01X6398260Y-1621392D01*
G01X6398260Y-1069193D01*
G01X6483950Y-983503D01*
G01X7446134Y-983503D01*
G01X7724140Y-1261508D01*
G37*
G36*
G01X3678792Y-8282940D02*
G01X3496708Y-8282940D01*
G01X3464560Y-8250792D01*
G01X3464560Y-7861300D01*
G01X3463787Y-7857412D01*
G01X3461584Y-7854116D01*
G01X3423484Y-7816016D01*
G01X3420188Y-7813813D01*
G01X3416300Y-7813040D01*
G01X3289300Y-7813040D01*
G01X3285412Y-7813813D01*
G01X3282116Y-7816016D01*
G01X3256716Y-7841416D01*
G01X3254513Y-7844712D01*
G01X3253740Y-7848600D01*
G01X3253740Y-8263492D01*
G01X3246992Y-8270240D01*
G01X3153808Y-8270240D01*
G01X3121660Y-8238092D01*
G01X3121660Y-7823200D01*
G01X3120887Y-7819312D01*
G01X3118684Y-7816016D01*
G01X2953584Y-7650916D01*
G01X2950288Y-7648713D01*
G01X2946400Y-7647940D01*
G01X2849008Y-7647940D01*
G01X2423160Y-7222092D01*
G01X2423160Y-6493908D01*
G01X2661484Y-6255584D01*
G01X2663687Y-6252288D01*
G01X2664460Y-6248400D01*
G01X2664460Y-5985908D01*
G01X2798208Y-5852160D01*
G01X3958192Y-5852160D01*
G01X4104640Y-5998608D01*
G01X4104640Y-6460092D01*
G01X3840916Y-6723816D01*
G01X3838713Y-6727112D01*
G01X3837940Y-6731000D01*
G01X3837940Y-8123792D01*
G01X3678792Y-8282940D01*
G37*
G54D10*
G01X6458784Y-8046284D02*
G03X6461760Y-8039100I-7184J7184D01*
G01X6461760Y-7586108D01*
G01X6697696Y-7350173D01*
G01X7744605Y-7350173D01*
G01X7942463Y-7548030D01*
G01X7942463Y-8659951D01*
G01X7646374Y-8956040D01*
G01X6328745Y-8956040D01*
G01X6207760Y-8835055D01*
G01X6207760Y-8297308D01*
G01X6458784Y-8046284D01*
G01X232808Y-8956040D02*
G01X24522Y-8747754D01*
G02X20414Y-8700000I275478J47754D01*
G01X20414Y-300000D01*
G02X53776Y-167553I279586J0D01*
G01X167553Y-53776D01*
G02X214634Y-33765I132447J-246224D01*
G01X1835497Y-33765D01*
G01X1844040Y-42308D01*
G01X1844040Y-592692D01*
G01X1545192Y-891540D01*
G01X558800Y-891540D01*
G03X551616Y-894516I0J-10160D01*
G01X462716Y-983416D01*
G03X459740Y-990600I7184J-7184D01*
G01X459740Y-2260600D01*
G03X462716Y-2267784I10160J0D01*
G01X500816Y-2305884D01*
G03X508000Y-2308860I7184J7184D01*
G01X795892Y-2308860D01*
G01X929640Y-2442608D01*
G01X929640Y-2929492D01*
G01X859392Y-2999740D01*
G01X469900Y-2999740D01*
G03X462716Y-3002716I0J-10160D01*
G01X411916Y-3053516D01*
G03X408940Y-3060700I7184J-7184D01*
G01X408940Y-4203700D01*
G03X411916Y-4210884I10160J0D01*
G01X500816Y-4299784D01*
G03X508000Y-4302760I7184J7184D01*
G01X859392Y-4302760D01*
G01X980440Y-4423808D01*
G01X980440Y-5042119D01*
G01X940019Y-5082540D01*
G01X532002Y-5082540D01*
G03X524818Y-5085516I0J-10160D01*
G01X406280Y-5204054D01*
G03X403304Y-5211238I7184J-7184D01*
G01X403304Y-6128464D01*
G03X406280Y-6135648I10160J0D01*
G01X653216Y-6382584D01*
G03X660400Y-6385560I7184J7184D01*
G01X1062592Y-6385560D01*
G01X1094740Y-6417708D01*
G01X1094740Y-7260192D01*
G01X1062592Y-7292340D01*
G01X520700Y-7292340D01*
G03X513516Y-7295316I0J-10160D01*
G01X450016Y-7358816D01*
G03X447040Y-7366000I7184J-7184D01*
G01X447040Y-8344974D01*
G03X450016Y-8352158I10160J0D01*
G01X587678Y-8489821D01*
G03X594863Y-8492797I7184J7184D01*
G01X2261563Y-8492797D01*
G03X2268747Y-8489821I0J10160D01*
G01X2534484Y-8224084D01*
G03X2537460Y-8216900I-7184J7184D01*
G01X2537460Y-7878208D01*
G01X2582308Y-7833360D01*
G01X2904092Y-7833360D01*
G01X2923540Y-7852808D01*
G01X2923540Y-8441292D01*
G01X2748716Y-8616116D01*
G03X2745740Y-8623300I7184J-7184D01*
G01X2745740Y-8885792D01*
G01X2675492Y-8956040D01*
G01X232808Y-8956040D01*
G01X5887284Y-1542216D02*
G03X5880100Y-1539240I-7184J-7184D01*
G01X4944508Y-1539240D01*
G01X4721860Y-1316592D01*
G01X4721860Y-347108D01*
G01X4919108Y-149860D01*
G01X5139292Y-149860D01*
G01X5222240Y-232808D01*
G01X5222240Y-503792D01*
G01X5174416Y-551616D01*
G03X5171440Y-558800I7184J-7184D01*
G01X5171440Y-656192D01*
G01X5123616Y-704016D01*
G03X5120640Y-711200I7184J-7184D01*
G01X5120640Y-977900D01*
G03X5123616Y-985084I10160J0D01*
G01X5199816Y-1061284D01*
G03X5207000Y-1064260I7184J7184D01*
G01X5837792Y-1064260D01*
G01X6136640Y-1363108D01*
G01X6136640Y-1669462D01*
G01X6050962Y-1755140D01*
G01X5960508Y-1755140D01*
G01X5953760Y-1748392D01*
G01X5953760Y-1612900D01*
G03X5950784Y-1605716I-10160J0D01*
G01X5887284Y-1542216D01*
G01X4696460Y-2057400D02*
G03X4693484Y-2050216I-10160J0D01*
G01X3968206Y-1324938D01*
G01X3968206Y-148262D01*
G01X3992008Y-124460D01*
G01X4351892Y-124460D01*
G01X4384040Y-156608D01*
G01X4384040Y-1164043D01*
G03X4387016Y-1171227I10160J0D01*
G01X5026373Y-1810584D01*
G03X5033557Y-1813560I7184J7184D01*
G01X6108700Y-1813560D01*
G03X6115884Y-1810584I0J10160D01*
G01X6186292Y-1740176D01*
G03X6189268Y-1732992I-7184J7184D01*
G01X6189268Y-1368900D01*
G01X6214508Y-1343660D01*
G01X6345792Y-1343660D01*
G01X6352540Y-1350408D01*
G01X6352540Y-1651000D01*
G03X6355516Y-1658184I10160J0D01*
G01X6457116Y-1759784D01*
G03X6464300Y-1762760I7184J7184D01*
G01X6612492Y-1762760D01*
G01X6622216Y-1772484D01*
G03X6629400Y-1775460I7184J7184D01*
G01X7950200Y-1775460D01*
G03X7957384Y-1772484I0J10160D01*
G01X8033584Y-1696284D01*
G03X8036560Y-1689100I-7184J7184D01*
G01X8036560Y-956708D01*
G01X8157608Y-835660D01*
G01X8225392Y-835660D01*
G01X8257540Y-867808D01*
G01X8257540Y-1993900D01*
G03X8260516Y-2001084I10160J0D01*
G01X8349416Y-2089984D01*
G03X8356600Y-2092960I7184J7184D01*
G01X8724377Y-2092960D01*
G01X8877245Y-2245829D01*
G01X8877245Y-2500286D01*
G01X8809592Y-2567940D01*
G01X8383524Y-2567940D01*
G01X8297690Y-2482106D01*
G03X8290505Y-2479130I-7184J-7184D01*
G01X8280491Y-2479130D01*
G01X7124701Y-2479040D01*
G03X7117516Y-2482016I-1J-10160D01*
G01X6777592Y-2821940D01*
G01X5173108Y-2821940D01*
G01X4696460Y-2345292D01*
G01X4696460Y-2057400D01*
G01X5168786Y-2422500D02*
G03X5270614Y-2422500I50914J0D01*
G03X5168786Y-2422500I-50914J0D01*
G01X5168786Y-2222500D02*
G03X5270614Y-2222500I50914J0D01*
G03X5168786Y-2222500I-50914J0D01*
G01X5368786Y-2422500D02*
G03X5470614Y-2422500I50914J0D01*
G03X5368786Y-2422500I-50914J0D01*
G01X5368786Y-2222500D02*
G03X5470614Y-2222500I50914J0D01*
G03X5368786Y-2222500I-50914J0D01*
G01X5568786Y-2422500D02*
G03X5670614Y-2422500I50914J0D01*
G03X5568786Y-2422500I-50914J0D01*
G01X5568786Y-2222500D02*
G03X5670614Y-2222500I50914J0D01*
G03X5568786Y-2222500I-50914J0D01*
G01X5981586Y-2714600D02*
G03X6083414Y-2714600I50914J0D01*
G03X5981586Y-2714600I-50914J0D01*
G01X5981586Y-2514600D02*
G03X6083414Y-2514600I50914J0D01*
G03X5981586Y-2514600I-50914J0D01*
G01X6181586Y-2714600D02*
G03X6283414Y-2714600I50914J0D01*
G03X6181586Y-2714600I-50914J0D01*
G01X6181586Y-2514600D02*
G03X6283414Y-2514600I50914J0D01*
G03X6181586Y-2514600I-50914J0D01*
G01X6381586Y-2514600D02*
G03X6483414Y-2514600I50914J0D01*
G03X6381586Y-2514600I-50914J0D01*
G01X6381586Y-2714600D02*
G03X6483414Y-2714600I50914J0D01*
G03X6381586Y-2714600I-50914J0D01*
G01X6794386Y-2057400D02*
G03X6896214Y-2057400I50914J0D01*
G03X6794386Y-2057400I-50914J0D01*
G01X6794386Y-2257400D02*
G03X6896214Y-2257400I50914J0D01*
G03X6794386Y-2257400I-50914J0D01*
G01X6994386Y-2057400D02*
G03X7096214Y-2057400I50914J0D01*
G03X6994386Y-2057400I-50914J0D01*
G01X6994386Y-2257400D02*
G03X7096214Y-2257400I50914J0D01*
G03X6994386Y-2257400I-50914J0D01*
G01X7194386Y-2057400D02*
G03X7296214Y-2057400I50914J0D01*
G03X7194386Y-2057400I-50914J0D01*
G01X7194386Y-2257400D02*
G03X7296214Y-2257400I50914J0D01*
G03X7194386Y-2257400I-50914J0D01*
G01X6855460Y-4835020D02*
G01X6877884Y-4812596D01*
G01X6879338Y-4810760D01*
G01X7023100Y-4810760D01*
G03X7030284Y-4807784I0J10160D01*
G01X7052708Y-4785360D01*
G01X7272892Y-4785360D01*
G01X7279640Y-4792108D01*
G01X7279640Y-4974192D01*
G01X7247492Y-5006340D01*
G01X6925708Y-5006340D01*
G01X6855460Y-4936092D01*
G01X6855460Y-4835020D01*
G01X6004560Y-4660900D02*
G03X6001584Y-4653716I-10160J0D01*
G01X5979160Y-4631292D01*
G01X5979160Y-2671208D01*
G01X6011308Y-2639060D01*
G01X6771640Y-2639060D01*
G01X6771640Y-2641600D01*
G03X6774616Y-2648784I10160J0D01*
G01X6856332Y-2730500D01*
G01X6752192Y-2834640D01*
G01X6565900Y-2834640D01*
G03X6558716Y-2837616I0J-10160D01*
G01X6510892Y-2885440D01*
G01X6413500Y-2885440D01*
G03X6406316Y-2888416I0J-10160D01*
G01X6342816Y-2951916D01*
G03X6339840Y-2959100I7184J-7184D01*
G01X6339840Y-4605892D01*
G01X6256892Y-4688840D01*
G01X6004560Y-4688840D01*
G01X6004560Y-4660900D01*
G01X5981586Y-2714600D02*
G03X6083414Y-2714600I50914J0D01*
G03X5981586Y-2714600I-50914J0D01*
G01X6181586Y-2714600D02*
G03X6283414Y-2714600I50914J0D01*
G03X6181586Y-2714600I-50914J0D01*
G01X6381586Y-2714600D02*
G03X6483414Y-2714600I50914J0D01*
G03X6381586Y-2714600I-50914J0D01*
G01X4863493Y-4241093D02*
G03X4849011Y-4244340I0J-33914D01*
G01X4840360Y-4244340D01*
G01X4840360Y-4195207D01*
G01X4897907Y-4137660D01*
G01X6142592Y-4137660D01*
G01X6212840Y-4207908D01*
G01X6212840Y-4313792D01*
G01X6142592Y-4384040D01*
G01X5185808Y-4384040D01*
G01X5049084Y-4247316D01*
G03X5041900Y-4244340I-7184J-7184D01*
G01X5028994Y-4244340D01*
G03X5016500Y-4241893I-12494J-30667D01*
G01X4993816Y-4241893D01*
G03X4986492Y-4241093I-7323J-33114D01*
G01X4863493Y-4241093D01*
G01X8314212Y-8197343D02*
G03X8214360Y-8082982I-115415J0D01*
G01X8214360Y-7871607D01*
G03X8304213Y-7767347I-15563J104260D01*
G03X8214360Y-7663087I-105415J0D01*
G01X8214360Y-7515305D01*
G03X8211384Y-7508121I-10160J0D01*
G01X7983411Y-7280148D01*
G03X7976227Y-7277172I-7184J-7184D01*
G01X6708068Y-7277172D01*
G03X6700883Y-7280148I0J-10160D01*
G01X6431716Y-7549316D01*
G03X6428740Y-7556500I7184J-7184D01*
G01X6428740Y-7856865D01*
G01X6120884Y-8164721D01*
G03X6117908Y-8171905I7184J-7184D01*
G01X6117908Y-8815624D01*
G01X6015592Y-8917940D01*
G01X3344308Y-8917940D01*
G01X3312160Y-8885792D01*
G01X3312160Y-8707141D01*
G01X3312617Y-8706684D01*
G03X3315593Y-8699500I-7184J7184D01*
G01X3315593Y-8662176D01*
G01X3369708Y-8608060D01*
G01X4838700Y-8608060D01*
G03X4845884Y-8605084I0J10160D01*
G01X5722184Y-7728784D01*
G03X5725160Y-7721600I-7184J7184D01*
G01X5725160Y-6900308D01*
G01X5960508Y-6664960D01*
G01X7009609Y-6664960D01*
G03X7016793Y-6661984I0J10160D01*
G01X7077317Y-6601460D01*
G01X8771492Y-6601460D01*
G01X8943340Y-6773308D01*
G01X8943340Y-8784192D01*
G01X8784192Y-8943340D01*
G01X8348108Y-8943340D01*
G01X8214360Y-8809592D01*
G01X8214360Y-8311704D01*
G03X8314212Y-8197343I-15563J114361D01*
G01X7724140Y-1261508D02*
G01X7724140Y-1583292D01*
G01X7577692Y-1729740D01*
G01X6506608Y-1729740D01*
G01X6398260Y-1621392D01*
G01X6398260Y-1069193D01*
G01X6483950Y-983503D01*
G01X7446134Y-983503D01*
G01X7724140Y-1261508D01*
G01X3678792Y-8282940D02*
G01X3496708Y-8282940D01*
G01X3464560Y-8250792D01*
G01X3464560Y-7861300D01*
G03X3461584Y-7854116I-10160J0D01*
G01X3423484Y-7816016D01*
G03X3416300Y-7813040I-7184J-7184D01*
G01X3289300Y-7813040D01*
G03X3282116Y-7816016I0J-10160D01*
G01X3256716Y-7841416D01*
G03X3253740Y-7848600I7184J-7184D01*
G01X3253740Y-8263492D01*
G01X3246992Y-8270240D01*
G01X3153808Y-8270240D01*
G01X3121660Y-8238092D01*
G01X3121660Y-7823200D01*
G03X3118684Y-7816016I-10160J0D01*
G01X2953584Y-7650916D01*
G03X2946400Y-7647940I-7184J-7184D01*
G01X2849008Y-7647940D01*
G01X2423160Y-7222092D01*
G01X2423160Y-6493908D01*
G01X2661484Y-6255584D01*
G03X2664460Y-6248400I-7184J7184D01*
G01X2664460Y-5985908D01*
G01X2798208Y-5852160D01*
G01X3958192Y-5852160D01*
G01X4104640Y-5998608D01*
G01X4104640Y-6460092D01*
G01X3840916Y-6723816D01*
G03X3837940Y-6731000I7184J-7184D01*
G01X3837940Y-8123792D01*
G01X3678792Y-8282940D01*
G04 Copper End*

G04 Pad Start*
G54D11*
G01X6521597Y-7810504D03*
G01X6381593Y-7810504D03*
G54D12*
G01X6477004Y-6584803D03*
G01X6477004Y-6724807D03*
G01X5321172Y-1614492D03*
G01X5321172Y-1474487D03*
G01X5746774Y-1620994D03*
G01X5746774Y-1480990D03*
G01X6718172Y-1830087D03*
G01X6718172Y-1690082D03*
G01X7048621Y-1835336D03*
G01X7048621Y-1695331D03*
G54D11*
G01X8210398Y-1435100D03*
G01X8350402Y-1435100D03*
G01X8223098Y-1905000D03*
G01X8363102Y-1905000D03*
G01X8200804Y-996946D03*
G01X8340809Y-996946D03*
G54D12*
G01X4248152Y-5225903D03*
G01X4248152Y-5365907D03*
G01X4895848Y-5410200D03*
G01X4895848Y-5270195D03*
G54D11*
G01X3879698Y-586795D03*
G01X4019702Y-586795D03*
G01X8210398Y-1206500D03*
G01X8350402Y-1206500D03*
G01X8210398Y-1663700D03*
G01X8350402Y-1663700D03*
G54D13*
G01X3481591Y-8700210D03*
G01X3020809Y-8702090D03*
G54D14*
G01X4076700Y-281995D03*
G54D15*
G01X3822700Y-281995D03*
G01X3568700Y-281995D03*
G01X3314700Y-281995D03*
G54D16*
G01X5092700Y-7474991D03*
G01X5092700Y-6495009D03*
G54D17*
G01X6673263Y-2923396D03*
G01X6672755Y-2763376D03*
G54D18*
G01X3631336Y-4597400D03*
G01X3480664Y-4597400D03*
G54D20*
G01X6659547Y-3182069D03*
G01X6659547Y-3332742D03*
G54D21*
G01X3528060Y-8040774D03*
G01X3357880Y-8040774D03*
G01X3017520Y-8040774D03*
G01X3187700Y-8040774D03*
G01X2847340Y-8040774D03*
G54D22*
G01X3187700Y-7039226D03*
G54D23*
G01X6490969Y-1513890D03*
G01X6260972Y-1513890D03*
G01X6030975Y-1513890D03*
G54D24*
G01X6260972Y-2107882D03*
G54D25*
G01X4224994Y-4924993D03*
G01X4275007Y-4924993D03*
G01X4324994Y-4924993D03*
G01X4375006Y-4924993D03*
G01X4424994Y-4924993D03*
G01X4475006Y-4924993D03*
G01X4524993Y-4924993D03*
G01X4575006Y-4924993D03*
G01X4624993Y-4924993D03*
G01X4675006Y-4924993D03*
G01X4724993Y-4924993D03*
G01X4775006Y-4924993D03*
G54D26*
G01X4924993Y-4775006D03*
G01X4924993Y-4724993D03*
G01X4924993Y-4675006D03*
G01X4924993Y-4624993D03*
G01X4924993Y-4575006D03*
G01X4924993Y-4524993D03*
G01X4924993Y-4475006D03*
G01X4924993Y-4424994D03*
G01X4924993Y-4375006D03*
G01X4924993Y-4324994D03*
G01X4924993Y-4275007D03*
G01X4924993Y-4224994D03*
G54D25*
G01X4775006Y-4075007D03*
G01X4724993Y-4075007D03*
G01X4675006Y-4075007D03*
G01X4624993Y-4075007D03*
G01X4575006Y-4075007D03*
G01X4524993Y-4075007D03*
G01X4475006Y-4075007D03*
G01X4424994Y-4075007D03*
G01X4375006Y-4075007D03*
G01X4324994Y-4075007D03*
G01X4275007Y-4075007D03*
G01X4224994Y-4075007D03*
G54D26*
G01X4075007Y-4224994D03*
G01X4075007Y-4275007D03*
G01X4075007Y-4324994D03*
G01X4075007Y-4375006D03*
G01X4075007Y-4424994D03*
G01X4075007Y-4475006D03*
G01X4075007Y-4524993D03*
G01X4075007Y-4575006D03*
G01X4075007Y-4624993D03*
G01X4075007Y-4675006D03*
G01X4075007Y-4724993D03*
G01X4075007Y-4775006D03*
G54D27*
G01X4651932Y-5419877D03*
G01X4651932Y-5199863D03*
G01X4481930Y-5199863D03*
G01X4481930Y-5419877D03*
G54D11*
G01X5060798Y-850900D03*
G01X5200802Y-850900D03*
G54D12*
G01X8150805Y-2406498D03*
G01X8150805Y-2546502D03*
G01X7162804Y-4679803D03*
G01X7162804Y-4819807D03*
G54D28*
G01X5123740Y-339148D03*
G01X5373752Y-339148D03*
G01X5623739Y-339148D03*
G54D29*
G01X5873751Y-339148D03*
G54D28*
G01X8646105Y-2469794D03*
G01X8646105Y-2719807D03*
G01X8646105Y-2969793D03*
G54D30*
G01X8646105Y-3219806D03*
G54D31*
G01X647110Y-8035025D03*
G01X647110Y-7527025D03*
G01X647110Y-7019025D03*
G01X668952Y-5825225D03*
G01X668952Y-5317225D03*
G01X668952Y-4809225D03*
G01X643999Y-3780525D03*
G01X643999Y-3272525D03*
G01X643999Y-2764525D03*
G01X661832Y-1672325D03*
G01X661832Y-1164325D03*
G01X661832Y-656325D03*
G01X8381206Y-5207434D03*
G01X8381206Y-4699434D03*
G54D18*
G01X1550862Y-7866085D03*
G01X1400189Y-7866085D03*
G54D20*
G01X1851747Y-7885836D03*
G01X1851747Y-7735164D03*
G01X1527314Y-5347995D03*
G01X1527314Y-5498668D03*
G01X1804505Y-5510936D03*
G01X1804505Y-5360264D03*
G01X1562758Y-3518764D03*
G01X1562758Y-3669436D03*
G01X1778658Y-3669436D03*
G01X1778658Y-3518764D03*
G01X1421841Y-1145662D03*
G01X1421841Y-1296335D03*
G01X1633825Y-1292738D03*
G01X1633825Y-1142065D03*
G54D18*
G01X6920636Y-4673600D03*
G01X6769964Y-4673600D03*
G54D20*
G01X6540500Y-4699864D03*
G01X6540500Y-4850536D03*
G54D18*
G01X6769964Y-4876800D03*
G01X6920636Y-4876800D03*
G54D32*
G01X5590483Y-4630598D03*
G01X5590483Y-4757598D03*
G01X5590483Y-4884598D03*
G01X5590483Y-5011598D03*
G01X6131503Y-4630598D03*
G01X6131503Y-4757598D03*
G01X6131503Y-4884598D03*
G01X6131503Y-5011598D03*
G54D33*
G01X6524320Y-8369300D03*
G01X5870880Y-8369300D03*
G54D34*
G01X7162825Y-6324295D03*
G01X7162825Y-6858305D03*
G54D35*
G01X8748799Y-7767347D03*
G54D36*
G01X7628801Y-7767347D03*
G54D37*
G01X7653820Y-8377328D03*
G54D35*
G01X8748799Y-8367345D03*
G04 Pad End*

G04 Via Start*
G54D38*
G01X4114800Y-5397500D03*
G01X5067300Y-5270195D03*
G01X4114800Y-5054600D03*
G01X4114800Y-5143500D03*
G01X4114800Y-5219700D03*
G01X4114800Y-5295900D03*
G01X4114800Y-5486400D03*
G01X4114800Y-5588000D03*
G01X4114800Y-5676900D03*
G01X4216400Y-5676900D03*
G01X4318000Y-5676900D03*
G01X4419600Y-5676900D03*
G01X4533900Y-5676900D03*
G01X4648200Y-5676900D03*
G01X4749800Y-5676900D03*
G01X4876800Y-5676900D03*
G01X5003800Y-5676900D03*
G01X5143500Y-5676900D03*
G01X5232400Y-5676900D03*
G01X5346700Y-5676900D03*
G01X5346700Y-5575300D03*
G01X5346700Y-5461000D03*
G01X5346700Y-5359400D03*
G01X5346700Y-5257800D03*
G01X5346700Y-5156200D03*
G01X5283200Y-5092700D03*
G01X5194300Y-5029200D03*
G01X5080000Y-4978400D03*
G01X4991100Y-4965700D03*
G01X4902200Y-4965700D03*
G01X4275007Y-4216400D03*
G01X4203700Y-4724993D03*
G01X3390900Y-4597400D03*
G01X1854200Y-8051800D03*
G01X1804505Y-5664200D03*
G01X4470400Y-3810000D03*
G01X4559300Y-3860800D03*
G01X6286500Y-5011598D03*
G01X7289800Y-4679803D03*
G01X6659547Y-3454400D03*
G01X1778658Y-3784600D03*
G01X5854700Y-1219200D03*
G01X6134100Y-4292600D03*
G01X3721100Y-8039100D03*
G01X2374900Y-8610600D03*
G01X2476500Y-8470900D03*
G01X2590800Y-8305800D03*
G01X2792551Y-8305800D03*
G01X2705100Y-8496300D03*
G01X2603500Y-8674100D03*
G01X2476500Y-8851900D03*
G01X2247900Y-8750300D03*
G01X7162800Y-7759700D03*
G01X6974546Y-7759700D03*
G01X6781800Y-7759700D03*
G01X6781800Y-7965305D03*
G01X6982574Y-7965305D03*
G01X7164536Y-7965305D03*
G01X6781800Y-8153400D03*
G01X6985250Y-8153400D03*
G01X7167212Y-8153400D03*
G01X4575006Y-4749800D03*
G01X5092700Y-4394200D03*
G01X5873751Y-520700D03*
G01X5588000Y-1620994D03*
G01X5461000Y-1614492D03*
G01X7036514Y-1079500D03*
G01X7191717Y-1079500D03*
G01X7371895Y-1079500D03*
G01X7371895Y-1225819D03*
G01X7371895Y-1400645D03*
G01X7232748Y-1400645D03*
G01X7581900Y-1397000D03*
G01X7569200Y-1231596D03*
G01X7213600Y-1231900D03*
G01X1625600Y-1435100D03*
G01X7366000Y-5270500D03*
G01X5416462Y-4630598D03*
G01X6781800Y-5016500D03*
G01X6769100Y-4533900D03*
G01X7594600Y-2663104D03*
G01X7988300Y-2565400D03*
G01X8470900Y-1905000D03*
G01X8470900Y-1003300D03*
G01X8470900Y-1206500D03*
G01X8470900Y-1435100D03*
G01X8470900Y-1663700D03*
G01X2844800Y-6007100D03*
G01X2844800Y-6207100D03*
G01X3044800Y-6007100D03*
G01X3244800Y-6007100D03*
G01X3044800Y-6207100D03*
G01X3244800Y-6207100D03*
G01X3467100Y-6007100D03*
G01X3467100Y-6207100D03*
G01X3667100Y-6007100D03*
G01X3867100Y-6007100D03*
G01X3667100Y-6207100D03*
G01X3867100Y-6207100D03*
G01X2844800Y-6362700D03*
G01X2844800Y-6562700D03*
G01X3044800Y-6362700D03*
G01X3244800Y-6362700D03*
G01X3044800Y-6562700D03*
G01X3244800Y-6562700D03*
G01X3467100Y-6362700D03*
G01X3467100Y-6562700D03*
G01X3667100Y-6362700D03*
G01X3867100Y-6362700D03*
G01X3667100Y-6562700D03*
G01X3867100Y-6562700D03*
G01X5219700Y-2222500D03*
G01X5219700Y-2422500D03*
G01X5419700Y-2222500D03*
G01X5619700Y-2222500D03*
G01X5419700Y-2422500D03*
G01X5619700Y-2422500D03*
G01X6845300Y-2057400D03*
G01X6845300Y-2257400D03*
G01X7045300Y-2057400D03*
G01X7245300Y-2057400D03*
G01X7045300Y-2257400D03*
G01X7245300Y-2257400D03*
G01X6032500Y-2514600D03*
G01X6032500Y-2714600D03*
G01X6232500Y-2514600D03*
G01X6432500Y-2514600D03*
G01X6232500Y-2714600D03*
G01X6432500Y-2714600D03*
G01X4556301Y-8861400D03*
G01X4356301Y-8861400D03*
G01X4556301Y-8661400D03*
G01X4356301Y-8661400D03*
G01X4156301Y-8861400D03*
G01X4156301Y-8661400D03*
G01X6359701Y-7235800D03*
G01X6159701Y-7235800D03*
G01X6359701Y-7035800D03*
G01X6159701Y-7035800D03*
G01X5959701Y-7235800D03*
G01X5959701Y-7035800D03*
G01X8417101Y-7096100D03*
G01X8217101Y-7096100D03*
G01X8417101Y-6896100D03*
G01X8217101Y-6896100D03*
G01X8017101Y-7096100D03*
G01X8017101Y-6896100D03*
G04 Via End*

G04 Track Start*
G54D39*
G01X4075007Y-4575006D02*
G01X3653730Y-4575006D01*
G01X3631336Y-4597400D01*
G01X4481930Y-5199863D02*
G01X4455890Y-5225903D01*
G01X4248152Y-5225903D01*
G01X4651932Y-5419877D02*
G01X4886171Y-5419877D01*
G01X4895848Y-5410200D01*
G01X4895848Y-5270195D02*
G01X4825515Y-5199863D01*
G01X4651932Y-5199863D01*
G01X4248152Y-5365907D02*
G01X4302122Y-5419877D01*
G01X4481930Y-5419877D01*
G01X4248152Y-5365907D02*
G01X4216559Y-5397500D01*
G01X4114800Y-5397500D01*
G01X4895848Y-5270195D02*
G01X5067300Y-5270195D01*
G01X4575006Y-4924993D02*
G01X4575006Y-4749800D01*
G01X4651932Y-5419877D02*
G01X4651932Y-5566332D01*
G01X4673600Y-5588000D01*
G01X4991100Y-5588000D01*
G01X5156200Y-5422900D02*
G01X5156200Y-5207000D01*
G01X5067300Y-5118100D01*
G01X4826000Y-5118100D02*
G01X4775200Y-5067300D01*
G01X4508500Y-5067300D01*
G01X4991100Y-5588000D02*
G01X5156200Y-5422900D01*
G01X5067300Y-5118100D02*
G01X4826000Y-5118100D01*
G01X4424994Y-4924993D02*
G01X4424994Y-5059994D01*
G01X4481930Y-5116930D01*
G01X4481930Y-5199863D01*
G01X4508500Y-5067300D02*
G01X4474531Y-5033331D01*
G01X4474531Y-4925468D01*
G01X4475006Y-4924993D01*
G01X4114800Y-5054600D02*
G01X4114800Y-5143500D01*
G01X4114800Y-5219700D01*
G01X4114800Y-5295900D01*
G01X4114800Y-5397500D01*
G01X4114800Y-5486400D01*
G01X4114800Y-5588000D01*
G01X4114800Y-5676900D01*
G01X4216400Y-5676900D01*
G01X4318000Y-5676900D01*
G01X4419600Y-5676900D01*
G01X4533900Y-5676900D01*
G01X4648200Y-5676900D01*
G01X4749800Y-5676900D01*
G01X4876800Y-5676900D01*
G01X5003800Y-5676900D01*
G01X5143500Y-5676900D01*
G01X5232400Y-5676900D01*
G01X5346700Y-5676900D01*
G01X5346700Y-5575300D01*
G01X5346700Y-5461000D01*
G01X5346700Y-5359400D01*
G01X5346700Y-5257800D01*
G01X5346700Y-5156200D01*
G01X5219700Y-5029200D02*
G01X5194300Y-5029200D01*
G01X5346700Y-5156200D02*
G01X5283200Y-5092700D01*
G01X5219700Y-5029200D01*
G01X5194300Y-5029200D02*
G01X5143500Y-4978400D01*
G01X5080000Y-4978400D01*
G01X5067300Y-4965700D01*
G01X4991100Y-4965700D01*
G01X4902200Y-4965700D01*
G01X4275007Y-4075007D02*
G01X4275007Y-4216400D01*
G01X4075007Y-4724993D02*
G01X4203700Y-4724993D01*
G01X3480664Y-4597400D02*
G01X3390900Y-4597400D01*
G01X3020809Y-8702090D02*
G01X3020809Y-8044063D01*
G01X3017520Y-8040774D01*
G54D40*
G01X1851747Y-7735164D02*
G01X1586636Y-7735164D01*
G01X1550862Y-7770938D02*
G01X1550862Y-7866085D01*
G01X1586636Y-7735164D02*
G01X1550862Y-7770938D01*
G01X1400189Y-7866085D02*
G01X1392275Y-7874000D01*
G01X808135Y-7874000D02*
G01X647110Y-8035025D01*
G01X1392275Y-7874000D02*
G01X808135Y-7874000D01*
G01X1851747Y-7885836D02*
G01X1854200Y-7888290D01*
G01X1854200Y-8051800D01*
G01X668952Y-5825225D02*
G01X1375675Y-5825225D01*
G01X1536700Y-5664200D01*
G01X1536700Y-5508054D01*
G01X1527314Y-5498668D01*
G01X1804505Y-5510936D02*
G01X1804505Y-5664200D01*
G01X1527314Y-5347995D02*
G01X1792237Y-5347995D01*
G54D41*
G01X4075007Y-4224994D02*
G01X3818594Y-4224994D01*
G01X3314700Y-3721100D02*
G01X3314700Y-281995D01*
G01X3818594Y-4224994D02*
G01X3314700Y-3721100D01*
G01X3879698Y-586795D02*
G01X3879698Y-338992D01*
G01X3822700Y-281995D01*
G01X4019702Y-586795D02*
G01X4076700Y-529797D01*
G01X4076700Y-281995D01*
G01X4075007Y-4324994D02*
G01X3550294Y-4324994D01*
G01X3048000Y-3822700D01*
G01X3048000Y-2247900D01*
G01X1942165Y-1142065D02*
G01X1633825Y-1142065D01*
G01X3048000Y-2247900D02*
G01X1942165Y-1142065D01*
G01X1633825Y-1142065D02*
G01X1425437Y-1142065D01*
G01X1421841Y-1145662D01*
G01X4075007Y-4375006D02*
G01X3511406Y-4375006D01*
G01X1779522Y-3517900D02*
G01X1778658Y-3518764D01*
G01X3511406Y-4375006D02*
G01X2654300Y-3517900D01*
G01X1779522Y-3517900D01*
G01X1778658Y-3518764D02*
G01X1562758Y-3518764D01*
G01X4475006Y-4075007D02*
G01X4475006Y-3814606D01*
G01X4470400Y-3810000D01*
G01X4524993Y-4075007D02*
G01X4524993Y-3895107D01*
G01X4559300Y-3860800D01*
G01X6540500Y-4699864D02*
G01X6743700Y-4699864D01*
G01X6769964Y-4673600D01*
G01X6131503Y-4757598D02*
G01X6266002Y-4757598D01*
G01X6324600Y-4699000D01*
G01X6539636Y-4699000D01*
G01X6540500Y-4699864D01*
G01X6131503Y-4884598D02*
G01X6329502Y-4884598D01*
G01X6362700Y-4851400D01*
G01X6539636Y-4851400D01*
G01X6540500Y-4850536D01*
G01X6743700Y-4850536D01*
G01X6769964Y-4876800D01*
G01X6920636Y-4876800D02*
G01X7105811Y-4876800D01*
G01X7162804Y-4819807D01*
G01X6920636Y-4673600D02*
G01X7156601Y-4673600D01*
G01X7162804Y-4679803D01*
G01X4924993Y-4775006D02*
G01X5219894Y-4775006D01*
G01X5364302Y-4630598D01*
G01X4924993Y-4724993D02*
G01X5155607Y-4724993D01*
G01X5753100Y-4521200D02*
G01X5829300Y-4597400D01*
G01X5829300Y-4711700D01*
G01X5783402Y-4757598D02*
G01X5590483Y-4757598D01*
G01X5155607Y-4724993D02*
G01X5359400Y-4521200D01*
G01X5753100Y-4521200D01*
G01X5829300Y-4711700D02*
G01X5783402Y-4757598D01*
G01X5590483Y-4884598D02*
G01X5582685Y-4876800D01*
G01X5406013Y-4876800D01*
G01X5384800Y-4855587D01*
G01X5384800Y-4787598D01*
G01X5414800Y-4757598D01*
G01X5590483Y-4757598D01*
G01X5316398Y-5011598D02*
G01X5207000Y-4902200D01*
G01X4797798Y-4902200D02*
G01X4775006Y-4924993D01*
G01X5590483Y-5011598D02*
G01X5316398Y-5011598D01*
G01X5207000Y-4902200D02*
G01X4797798Y-4902200D01*
G01X6131503Y-5011598D02*
G01X6286500Y-5011598D01*
G01X7162804Y-4679803D02*
G01X7289800Y-4679803D01*
G01X6131503Y-4630598D02*
G01X6291402Y-4630598D01*
G01X6311900Y-4610100D01*
G01X6311900Y-2933700D01*
G01X6482224Y-2763376D02*
G01X6672755Y-2763376D01*
G01X6311900Y-2933700D02*
G01X6482224Y-2763376D01*
G01X6673263Y-2923396D02*
G01X6673263Y-3168353D01*
G01X6659547Y-3182069D01*
G01X6659547Y-3332742D02*
G01X6659547Y-3454400D01*
G01X4075007Y-4424994D02*
G01X2191706Y-4424994D01*
G01X1803400Y-4813300D01*
G01X1803400Y-5359159D01*
G54D40*
G01X1792237Y-5347995D02*
G01X1803400Y-5359159D01*
G01X1804505Y-5360264D01*
G54D41*
G01X4624993Y-4924993D02*
G01X4624993Y-4813300D01*
G01X1778658Y-3669436D02*
G01X1778658Y-3784600D01*
G54D42*
G01X3357880Y-8040774D02*
G01X3357880Y-8323580D01*
G01X3429000Y-8394700D02*
G01X3733800Y-8394700D01*
G01X4165600Y-7962900D01*
G01X4165600Y-6807200D02*
G01X4432300Y-6540500D01*
G01X5047209Y-6540500D01*
G01X5092700Y-6495009D01*
G01X3357880Y-8323580D02*
G01X3429000Y-8394700D01*
G01X4165600Y-7962900D02*
G01X4165600Y-6807200D01*
G01X5092700Y-6495009D02*
G01X6387210Y-6495009D01*
G01X6477004Y-6584803D01*
G01X6737511Y-6324295D01*
G01X7162825Y-6324295D01*
G54D41*
G01X4924993Y-4224994D02*
G01X6066494Y-4224994D01*
G01X6134100Y-4292600D01*
G01X4075007Y-4775006D02*
G01X4165406Y-4775006D01*
G01X4191000Y-4800600D01*
G01X4292600Y-4800600D01*
G01X4622800Y-4241800D02*
G01X4644013Y-4220587D01*
G01X4920585Y-4220587D02*
G01X4924993Y-4224994D01*
G01X4292600Y-4800600D02*
G01X4622800Y-4470400D01*
G01X4224994Y-4075007D02*
G01X4224994Y-4131606D01*
G01X4191000Y-4165600D01*
G01X4191000Y-4254500D01*
G01X4241800Y-4305300D01*
G01X4618833Y-4305300D02*
G01X4622800Y-4309267D01*
G01X4622800Y-4470400D02*
G01X4622800Y-4309267D01*
G01X4622800Y-4241800D01*
G01X4241800Y-4305300D02*
G01X4618833Y-4305300D01*
G01X4737413Y-4700880D02*
G01X4737413Y-4220587D01*
G01X4644013Y-4220587D02*
G01X4737413Y-4220587D01*
G01X4920585Y-4220587D01*
G01X4624993Y-4813300D02*
G01X4737413Y-4700880D01*
G54D42*
G01X3187700Y-8040774D02*
G01X3187700Y-7070976D01*
G01X3219450Y-7039226D01*
G01X3528060Y-8040774D02*
G01X3719426Y-8040774D01*
G01X3721100Y-8039100D01*
G54D41*
G01X3020809Y-8702090D02*
G01X3098800Y-8624099D01*
G01X3098800Y-8559800D01*
G01X3120013Y-8538587D01*
G01X3755013Y-8538587D01*
G01X4305300Y-7988300D02*
G01X5092700Y-7988300D01*
G01X5113913Y-7967087D01*
G01X5113913Y-7496205D01*
G01X5092700Y-7474991D01*
G01X3755013Y-8538587D02*
G01X4305300Y-7988300D01*
G54D40*
G01X661832Y-1672325D02*
G01X1248675Y-1672325D01*
G01X1422400Y-1498600D01*
G01X1422400Y-1296894D01*
G01X1421841Y-1296335D01*
G01X643999Y-3780525D02*
G01X1451670Y-3780525D01*
G01X1562758Y-3669436D01*
G54D39*
G01X1851747Y-7735164D02*
G01X1851747Y-7520853D01*
G01X1943100Y-7429500D01*
G01X1943100Y-6705600D01*
G01X2552700Y-6096000D01*
G01X2552700Y-4533900D01*
G01X4075007Y-4475006D02*
G01X2611594Y-4475006D01*
G01X2552700Y-4533900D02*
G01X2611594Y-4475006D01*
G01X4924993Y-4275007D02*
G01X5016500Y-4275007D01*
G01X5092700Y-4351207D02*
G01X5092700Y-4394200D01*
G01X5016500Y-4275007D02*
G01X5092700Y-4351207D01*
G01X5873751Y-339148D02*
G01X5873751Y-520700D01*
G01X5200802Y-850900D02*
G01X5816600Y-850900D01*
G01X5880100Y-787400D01*
G01X5880100Y-527049D01*
G01X5873751Y-520700D01*
G01X5746774Y-1620994D02*
G01X5588000Y-1620994D01*
G01X5321172Y-1614492D02*
G01X5461000Y-1614492D01*
G01X1633825Y-1292738D02*
G01X1633825Y-1426875D01*
G01X1625600Y-1435100D01*
G54D42*
G01X7162825Y-5926235D02*
G01X7594600Y-5494460D01*
G01X7162825Y-6324295D02*
G01X7162825Y-5926235D01*
G54D41*
G01X5364302Y-4630598D02*
G01X5416462Y-4630598D01*
G01X5590483Y-4630598D01*
G01X5590483Y-5011598D02*
G01X5590483Y-5107883D01*
G01X5664200Y-5181600D01*
G01X7277100Y-5181600D01*
G01X7366000Y-5270500D01*
G01X6781800Y-5016500D02*
G01X6781800Y-4888636D01*
G01X6769964Y-4876800D01*
G01X6131503Y-4630598D02*
G01X6126601Y-4635500D01*
G01X5981700Y-4635500D01*
G01X5960487Y-4656713D01*
G01X5960487Y-5080000D02*
G01X5981700Y-5101213D01*
G01X6824087Y-5101213D01*
G01X6934200Y-4991100D01*
G01X6934200Y-4890364D01*
G01X6920636Y-4876800D01*
G01X5960487Y-4656713D02*
G01X5960487Y-5080000D01*
G01X6769100Y-4533900D02*
G01X6769100Y-4672736D01*
G01X6769964Y-4673600D01*
G54D42*
G01X7594600Y-5494460D02*
G01X7594600Y-2663104D01*
G54D40*
G01X8150805Y-2546502D02*
G01X8007198Y-2546502D01*
G01X7988300Y-2565400D01*
G01X8363102Y-1905000D02*
G01X8470900Y-1905000D01*
G01X8350402Y-1663700D02*
G01X8470900Y-1663700D01*
G01X8350402Y-1435100D02*
G01X8470900Y-1435100D01*
G01X8350402Y-1206500D02*
G01X8470900Y-1206500D01*
G01X8340809Y-996946D02*
G01X8464546Y-996946D01*
G01X8470900Y-1003300D01*
G54D41*
G01X3568700Y-2913577D02*
G01X4324994Y-3669871D01*
G01X4324994Y-4075007D02*
G01X4324994Y-3669871D01*
G01X3568700Y-2913577D02*
G01X3568700Y-281995D01*
G04 Track End*

M02*

